<?xml version="1.0" encoding="utf-8"?>
<!-- Generator: Adobe Illustrator 16.0.0, SVG Export Plug-In . SVG Version: 6.00 Build 0)  -->
<!DOCTYPE svg PUBLIC "-//W3C//DTD SVG 1.1//EN" "http://www.w3.org/Graphics/SVG/1.1/DTD/svg11.dtd">
<svg version="1.1" id="Layer_1" xmlns="http://www.w3.org/2000/svg" xmlns:xlink="http://www.w3.org/1999/xlink" x="0px" y="0px"
	 width="21.526px" height="21.649px" viewBox="0 0 21.526 21.649" enable-background="new 0 0 21.526 21.649" xml:space="preserve">
<path fill-rule="evenodd" clip-rule="evenodd" fill="#A4A5A6" d="M2.536,0.813C3.013,0.336,3.67,0.088,4.342,0.13
	S5.636,0.5,6.049,1.031l2.412,3.103c0.443,0.568,0.601,1.31,0.425,2.009L8.15,9.088C8.072,9.399,8.163,9.729,8.39,9.955l3.306,3.304
	c0.228,0.227,0.557,0.317,0.867,0.239l2.945-0.735c0.699-0.175,1.44-0.019,2.01,0.425l3.102,2.412
	c1.115,0.866,1.219,2.515,0.22,3.513l-1.392,1.392c-0.995,0.995-2.483,1.433-3.871,0.945c-3.549-1.25-6.772-3.282-9.429-5.947
	C3.482,12.846,1.45,9.623,0.2,6.073c-0.488-1.388-0.05-2.876,0.944-3.872l1.393-1.391L2.536,0.813z M4.915,1.91
	C4.754,1.703,4.513,1.576,4.252,1.56C3.991,1.544,3.735,1.64,3.55,1.825L2.158,3.217c-0.65,0.65-0.89,1.572-0.604,2.379
	c1.178,3.348,3.094,6.387,5.607,8.892c2.505,2.513,5.543,4.429,8.891,5.606c0.808,0.285,1.729,0.047,2.379-0.604l1.393-1.393
	c0.184-0.185,0.28-0.44,0.264-0.701c-0.016-0.262-0.145-0.503-0.351-0.663l-3.103-2.413c-0.221-0.172-0.508-0.233-0.779-0.166
	l-2.945,0.736c-0.801,0.2-1.646-0.034-2.23-0.617l-3.304-3.305c-0.583-0.584-0.818-1.431-0.618-2.23l0.736-2.944
	c0.067-0.272,0.007-0.56-0.166-0.781L4.915,1.91z"/>
</svg>
