<?xml version="1.0" encoding="utf-8"?>
<!-- Generator: Adobe Illustrator 16.0.0, SVG Export Plug-In . SVG Version: 6.00 Build 0)  -->
<!DOCTYPE svg PUBLIC "-//W3C//DTD SVG 1.1//EN" "http://www.w3.org/Graphics/SVG/1.1/DTD/svg11.dtd">
<svg version="1.1" id="Layer_1" xmlns="http://www.w3.org/2000/svg" xmlns:xlink="http://www.w3.org/1999/xlink" x="0px" y="0px"
	 width="23.542px" height="23.542px" viewBox="0 0 23.542 23.542" enable-background="new 0 0 23.542 23.542" xml:space="preserve">
<path fill="#A4A5A6" d="M17.986,11.819c0.003,1.104,0.908,2.008,2.013,2.008c1.106,0,2.013-0.906,2.013-2.013
	c0-5.678-4.603-10.28-10.281-10.28c-5.678,0-10.28,4.603-10.28,10.28c0,5.679,4.604,10.281,10.28,10.281
	c2.721,0,5.3-1.058,7.233-2.972c0.539-0.536,1.353,0.283,0.814,0.818c-2.146,2.125-5.027,3.312-8.047,3.312
	c-6.318,0-11.439-5.122-11.439-11.439S5.414,0.375,11.731,0.375c6.34,0,11.428,5.124,11.438,11.455
	c-0.008,1.738-1.431,3.156-3.171,3.156c-1.745,0-3.171-1.427-3.171-3.172c0.033-2.803-2.316-5.097-5.097-5.097
	c-2.815,0-5.098,2.282-5.098,5.097c0,2.815,2.282,5.097,5.098,5.097c1.565,0,3.032-0.709,4.003-1.938
	c0.47-0.595,1.375,0.12,0.905,0.715c-1.189,1.505-2.99,2.382-4.908,2.382c-3.455,0-6.256-2.802-6.256-6.256
	c0-3.455,2.801-6.256,6.256-6.256c2.103,0,3.963,1.038,5.097,2.629V7.144c0-0.762,1.158-0.762,1.158,0V11.819L17.986,11.819z"/>
<path fill="none" stroke="#A4A5A6" stroke-width="0.5" d="M17.986,11.819c0.003,1.104,0.908,2.008,2.013,2.008
	c1.106,0,2.013-0.906,2.013-2.013c0-5.678-4.603-10.28-10.281-10.28c-5.678,0-10.28,4.603-10.28,10.28
	c0,5.679,4.604,10.281,10.28,10.281c2.721,0,5.3-1.058,7.233-2.972c0.539-0.536,1.353,0.283,0.814,0.818
	c-2.146,2.125-5.027,3.312-8.047,3.312c-6.318,0-11.439-5.122-11.439-11.439S5.414,0.375,11.731,0.375
	c6.34,0,11.428,5.124,11.438,11.455c-0.008,1.738-1.431,3.156-3.171,3.156c-1.745,0-3.171-1.427-3.171-3.172
	c0.033-2.803-2.316-5.097-5.097-5.097c-2.815,0-5.098,2.282-5.098,5.097c0,2.815,2.282,5.097,5.098,5.097
	c1.565,0,3.032-0.709,4.003-1.938c0.47-0.595,1.375,0.12,0.905,0.715c-1.189,1.505-2.99,2.382-4.908,2.382
	c-3.455,0-6.256-2.802-6.256-6.256c0-3.455,2.801-6.256,6.256-6.256c2.103,0,3.963,1.038,5.097,2.629V7.144
	c0-0.762,1.158-0.762,1.158,0V11.819L17.986,11.819z"/>
</svg>
