<svg width="18" height="18" viewBox="0 0 18 18" fill="none" xmlns="http://www.w3.org/2000/svg">
<g clip-path="url(#clip0_281_38)">
<path d="M11.3231 11.5759C11.3235 11.5763 11.3238 11.5765 11.3242 11.5768C11.3245 11.577 11.3245 11.5771 11.3248 11.5773C11.3242 11.5768 11.3237 11.5763 11.3231 11.5759Z" fill="#A4A5A6"/>
<path d="M11.3314 11.5829L11.332 11.5834L11.3322 11.5835L11.3314 11.5829Z" fill="#A4A5A6"/>
<path d="M17.5872 3.17256C17.0977 2.76124 16.3652 2.8249 15.9542 3.31438L13.9768 5.66778V3.8509C13.9768 3.78087 13.9488 3.71334 13.8993 3.66345L10.3731 0.131268C10.3232 0.0817676 10.2557 0.0534668 10.1853 0.0534668H1.07624C0.482766 0.0534668 0 0.536549 0 1.13006V16.8699C0 17.4634 0.482766 17.9465 1.07624 17.9465H12.9002C13.494 17.9465 13.9768 17.4634 13.9768 16.8699V9.98912C14.0794 10.1311 14.285 10.1353 14.3947 10.0047L16.6548 7.3146C16.9509 6.9622 16.923 6.45162 16.6139 6.13276L17.729 4.80554C18.14 4.31599 18.0763 3.58351 17.5872 3.17256ZM10.4506 0.995971L13.0035 3.53682H10.7731C10.5953 3.53682 10.4506 3.39215 10.4506 3.21426V0.995971ZM13.4462 16.8699C13.4462 17.1709 13.2011 17.416 12.9002 17.416H1.07624C0.775266 17.416 0.530508 17.1709 0.530508 16.8699V1.13006C0.530508 0.829084 0.775266 0.583975 1.07624 0.583975H9.92004V3.21429C9.92004 3.68469 10.3027 4.06736 10.7731 4.06736H13.4462V6.29943L11.606 8.48942H4.81911C4.67262 8.48942 4.55386 8.60814 4.55386 8.75467C4.55386 8.90121 4.67262 9.01993 4.81911 9.01993H11.1602C9.51891 10.9735 9.92215 10.4363 9.51929 11.1067H6.76448C6.61771 11.1067 6.49923 11.2255 6.49923 11.3719C6.49923 11.5183 6.61771 11.6372 6.76448 11.6372H9.20028C8.25124 13.1984 8.11005 13.4343 8.18276 13.7239H2.03685C1.89035 13.7239 1.77159 13.8426 1.77159 13.9892C1.77159 14.1357 1.89035 14.2544 2.03685 14.2544H11.7159C11.8624 14.2544 11.9812 14.1357 11.9812 13.9892C11.9812 13.8426 11.8624 13.7239 11.7159 13.7239H9.66716C11.6656 12.0561 11.5493 12.1603 11.5795 12.1246C11.8218 11.8362 13.2051 10.1897 13.4462 9.90274V16.8699ZM11.3225 11.5753C11.3228 11.5755 11.3232 11.5759 11.3237 11.5763C11.3254 11.5778 11.3271 11.5792 11.3285 11.5804C11.3285 11.5804 11.3285 11.5804 11.3285 11.5804C11.3294 11.5811 11.3304 11.5819 11.3315 11.5828C11.3312 11.5826 11.331 11.5825 11.3309 11.5823C11.3311 11.5825 11.3315 11.5829 11.3318 11.5831C11.3334 11.5844 11.3353 11.586 11.3374 11.5878C11.3373 11.5877 11.3373 11.5877 11.3371 11.5876C11.3376 11.588 11.3378 11.5881 11.3376 11.588C11.3346 11.5916 11.1792 11.7765 11.1888 11.7652L8.8863 13.6843C8.88275 13.6856 8.84197 13.7345 8.77419 13.7104C8.55904 13.6346 8.78386 13.3787 10.2317 10.95L10.3749 10.7791C11.0666 11.3603 11.2704 11.5315 11.322 11.5749C11.3221 11.575 11.3222 11.575 11.3223 11.5752C11.3223 11.5751 11.3222 11.5751 11.3222 11.5751C11.3223 11.5752 11.3224 11.5752 11.3225 11.5753ZM11.7411 11.1081C11.7365 11.1074 11.7323 11.107 11.7277 11.1074L10.7735 10.3056C10.7783 10.2998 14.7268 5.59996 14.9071 5.38533L15.8694 6.19386C15.861 6.20398 11.8097 11.0258 11.7411 11.1081ZM16.2486 6.97334C15.5664 7.78559 13.9891 9.66185 13.9768 9.67897V9.27147L16.2678 6.54475C16.3577 6.67346 16.353 6.84896 16.2486 6.97334ZM17.3226 4.46421L16.2107 5.78763L15.2483 4.97907L16.3602 3.65565C16.718 3.2292 17.4194 3.44893 17.4676 4.00545C17.4821 4.17276 17.4308 4.33543 17.3226 4.46421Z" fill="#A4A5A6"/>
<path d="M11.3232 11.5759L11.3226 11.5753L11.3224 11.5752L11.3232 11.5759Z" fill="#A4A5A6"/>
<path d="M8.15556 5.87219H2.03686C1.89036 5.87219 1.77161 5.99091 1.77161 6.13745C1.77161 6.28398 1.89036 6.4027 2.03686 6.4027H8.15556C8.30206 6.4027 8.42081 6.28398 8.42081 6.13745C8.42081 5.99091 8.30206 5.87219 8.15556 5.87219Z" fill="#A4A5A6"/>
<path d="M11.7159 5.87219H9.21655C9.07005 5.87219 8.95129 5.99091 8.95129 6.13745C8.95129 6.28398 9.07005 6.4027 9.21655 6.4027H11.7159C11.8624 6.4027 11.9812 6.28398 11.9812 6.13745C11.9812 5.99091 11.8624 5.87219 11.7159 5.87219Z" fill="#A4A5A6"/>
<path d="M5.70348 11.1067H2.03686C1.89043 11.1067 1.77161 11.2255 1.77161 11.3719C1.77161 11.5184 1.89043 11.6372 2.03686 11.6372H5.70348C5.84991 11.6372 5.96874 11.5184 5.96874 11.3719C5.96874 11.2255 5.84991 11.1067 5.70348 11.1067Z" fill="#A4A5A6"/>
<path d="M3.75811 8.48938H2.03686C1.89036 8.48938 1.77161 8.6081 1.77161 8.75463C1.77161 8.90116 1.89036 9.01989 2.03686 9.01989H3.75811C3.90461 9.01989 4.02336 8.90116 4.02336 8.75463C4.02336 8.6081 3.90461 8.48938 3.75811 8.48938Z" fill="#A4A5A6"/>
</g>
<defs>
<clipPath id="clip0_281_38">
<rect width="18" height="18" fill="white"/>
</clipPath>
</defs>
</svg>
