<?xml version="1.0" encoding="utf-8"?>
<!-- Generator: Adobe Illustrator 16.0.0, SVG Export Plug-In . SVG Version: 6.00 Build 0)  -->
<!DOCTYPE svg PUBLIC "-//W3C//DTD SVG 1.1//EN" "http://www.w3.org/Graphics/SVG/1.1/DTD/svg11.dtd">
<svg version="1.1" id="Layer_1" xmlns="http://www.w3.org/2000/svg" xmlns:xlink="http://www.w3.org/1999/xlink" x="0px" y="0px"
	 width="21.833px" height="24.154px" viewBox="0 0 21.833 24.154" enable-background="new 0 0 21.833 24.154" xml:space="preserve">
<path fill="#A4A5A6" d="M6.672,10.878c1.068,1.119,2.57,1.821,4.237,1.821s3.168-0.701,4.237-1.82
	c0.035,0.103,0.108,0.188,0.203,0.24c0.756,0.433,1.447,0.97,2.051,1.596c1.742,1.808,2.709,4.221,2.699,6.729l0,0v0.002v0.914
	c0,1.09-0.874,1.964-1.965,1.964H3.684c-1.091,0-1.966-0.874-1.966-1.964v-0.914l0,0v-0.003c-0.021-3.426,1.791-6.601,4.753-8.325
	l0,0C6.566,11.063,6.637,10.979,6.672,10.878L6.672,10.878z M10.909,1.872c2.753,0,4.976,2.221,4.976,4.972
	c0,2.75-2.223,4.971-4.976,4.971c-2.754,0-4.977-2.221-4.977-4.971C5.933,4.093,8.155,1.872,10.909,1.872z M10.909,0.987
	c-3.231,0-5.861,2.628-5.861,5.856c0,1.292,0.425,2.482,1.137,3.452l0,0c-0.056,0.009-0.109,0.028-0.158,0.058
	c-3.235,1.884-5.216,5.354-5.193,9.095v0.911c0,1.568,1.282,2.849,2.851,2.849h14.449c1.569,0,2.851-1.28,2.851-2.849v-0.914
	c0.01-2.737-1.047-5.372-2.947-7.345c-0.662-0.687-1.42-1.275-2.248-1.749l0,0c-0.048-0.028-0.1-0.047-0.154-0.056
	c0.711-0.97,1.136-2.161,1.136-3.452C16.77,3.614,14.14,0.987,10.909,0.987L10.909,0.987z"/>
<path fill="none" stroke="#A4A5A6" stroke-width="0.5" d="M6.672,10.878c1.068,1.119,2.57,1.821,4.237,1.821s3.168-0.701,4.237-1.82
	c0.035,0.103,0.108,0.188,0.203,0.24c0.756,0.433,1.447,0.97,2.051,1.596c1.742,1.808,2.709,4.221,2.699,6.729l0,0v0.002v0.914
	c0,1.09-0.874,1.964-1.965,1.964H3.684c-1.091,0-1.966-0.874-1.966-1.964v-0.914l0,0v-0.003c-0.021-3.426,1.791-6.601,4.753-8.325
	l0,0C6.566,11.063,6.637,10.979,6.672,10.878L6.672,10.878z M10.909,1.872c2.753,0,4.976,2.221,4.976,4.972
	c0,2.75-2.223,4.971-4.976,4.971c-2.754,0-4.977-2.221-4.977-4.971C5.933,4.093,8.155,1.872,10.909,1.872z M10.909,0.987
	c-3.231,0-5.861,2.628-5.861,5.856c0,1.292,0.425,2.482,1.137,3.452l0,0c-0.056,0.009-0.109,0.028-0.158,0.058
	c-3.235,1.884-5.216,5.354-5.193,9.095v0.911c0,1.568,1.282,2.849,2.851,2.849h14.449c1.569,0,2.851-1.28,2.851-2.849v-0.914
	c0.01-2.737-1.047-5.372-2.947-7.345c-0.662-0.687-1.42-1.275-2.248-1.749l0,0c-0.048-0.028-0.1-0.047-0.154-0.056
	c0.711-0.97,1.136-2.161,1.136-3.452C16.77,3.614,14.14,0.987,10.909,0.987L10.909,0.987z"/>
</svg>
