<svg xmlns="http://www.w3.org/2000/svg" viewBox="0 0 600 311.52"><defs><style>.cls-1{fill:#4e4e50;}</style></defs><g id="Layer_2" data-name="Layer 2"><g id="Layer_1-2" data-name="Layer 1"><path class="cls-1" d="M355.05,166.54a25.09,25.09,0,0,0-7.45-1c-3.59,0-8.17.38-16.3.38-4.27,0-9.53-.11-16.13-.43-28.57-1.38-41.15-2.71-53.87-3.74-3-.24-5.69-.34-8.15-.34a75.53,75.53,0,0,0-13.36,1l.14.74H240a76,76,0,0,1,13.16-1c2.44,0,5.15.09,8.08.33,12.72,1,25.32,2.36,53.91,3.75,6.61.32,11.88.42,16.16.42,8.15,0,12.76-.38,16.3-.38a23.86,23.86,0,0,1,7.24,1,5.73,5.73,0,0,1,2.54,1.32,2.15,2.15,0,0,1,.66,1.54,3.91,3.91,0,0,1-.5,1.73,10.43,10.43,0,0,1-1.77,2.33c-.3.3-.56.55-.76.72l-.22.2-.06,0h0l.47.59A15.92,15.92,0,0,0,357,174a10.7,10.7,0,0,0,1.24-1.79,4.52,4.52,0,0,0,.58-2.08,2.9,2.9,0,0,0-.87-2.07c-.11-.11-.24-.21-.37-.32.21-2.3.16-4.87-1.32-6.75a6.91,6.91,0,0,0-2.05-1.42,53.18,53.18,0,0,0-9.47-3.08,54.14,54.14,0,0,1,9.44,3.13,6.56,6.56,0,0,1,2,1.4c1.49,1.86,1.55,4.42,1.35,6.72A7,7,0,0,0,355.05,166.54Z"/><path class="cls-1" d="M0,311.46s92.85,0,205.52.05h1.88c173.43,0,392.65,0,392.6-.05l-75-.16-100.78-.08v-55h-.76v28.4c-23.26-1.68-46.7-2.08-70-2.2,0-7.2,0-19.62,0-26.2h13.63v22.69h0c.05-5.64.05-16.88,0-22.69h13.26v24.47h0c0-6.08,0-18.21,0-24.47H394v21.68h0c0-5.39,0-16.12,0-21.68h13.56c-.2,3.71-.07,8.63-.11,12.08,0,3.83-.12,9.58.19,13.35.32-3.79.16-9.5.19-13.35s.13-9.58-.19-13.36c0,.4-.06.83-.08,1.27l-13.56,0v0H380.32v0H367.06v0H353.43v0l-9.25,0c0-1-.07-2-.13-2.83,26.06-1.26,52.13-2.2,78.21-.95a45,45,0,0,1,8.13.85c.4.13.89.37.72.68a2.89,2.89,0,0,1-.94.86c-.84.58-1.82,1-2.68,1.57h0a2.68,2.68,0,0,0-.28.18.66.66,0,0,0-.26.37c0,.2.22.32.38.34h.45v0l0,0c2.15,0,4.25-.53,6.38-.7a12.11,12.11,0,0,1,4,0,.77.77,0,0,1,.46.32.62.62,0,0,1-.08.53c-1.56,2.72-6.93,2.79-10,2.72l0,.26a26.25,26.25,0,0,0,5.53-.13c1.84-.3,4-.8,5.05-2.58a1.15,1.15,0,0,0,.1-1.07,1.12,1.12,0,0,0-.4-.45,3.92,3.92,0,0,0-1.92-.45,23.71,23.71,0,0,0-2.81.09c-1.52.12-3,.31-4.51.45a10.32,10.32,0,0,0,1.13-.64,3.29,3.29,0,0,0,1.32-1.28,1.32,1.32,0,0,0-.19-1.41,2.61,2.61,0,0,0-1.14-.69,15.22,15.22,0,0,0-2.87-.58c-1.22-.16-2.43-.27-3.63-.37V201.6h-.76V247a7.54,7.54,0,0,0-3.45-3.12,10.52,10.52,0,0,1,2.44,1.74,6,6,0,0,1,1,1.39v4.23l-1.13-.09q-7.33-.47-14.67-.82c.1-2.84.13-6.17.15-9.59,1.38.16,2.76.36,4.13.61,0,2.73.07,5.32.17,7.5.1-2.17.15-4.73.17-7.42a44.73,44.73,0,0,1,5,1.23c.45.17.9.34,1.35.53-.47-.2-.93-.38-1.35-.54a47.13,47.13,0,0,0-5-1.24c.06-5.88,0-12.45,0-17.22,0-7.08.13-17.68-.19-24.66-.32,7-.15,17.55-.19,24.66,0,4.74,0,11.29,0,17.15-1.37-.26-2.75-.45-4.13-.61,0-5.17,0-10.51,0-14.6,0-7.34.13-18.32-.19-25.56,0,.33,0,.66,0,1l-13.6,0v0H380.32v0H367.06v0H353.43v0l-9.31,0c0-.67-.05-1.32-.07-1.94l.76,0c14-.89,28.54-2.39,42.52-3.07,14.19-.53,28.41-.29,42.59.39,5.32.27,10.64.56,15.93,1.16.88.11,1.76.22,2.63.38a5,5,0,0,1,1.68.49v0a1.43,1.43,0,0,1-.54.26,26.54,26.54,0,0,1-5.28.35c-3.88.15-13-.41-15,3.5,2-3.9,11.26-3.24,15-3.36.89,0,1.78,0,2.67,0,1.08-.09,2.35.05,3.3-.6a.15.15,0,0,0,.05-.13c0-.14-.12-.21-.21-.26a19.26,19.26,0,0,0-4.27-.86c-1.76-.22-3.53-.39-5.3-.55-10.63-.91-21.29-1.31-31.95-1.5-28.4-.79-56.78,3.41-85.14,4.21-14.19.47-28.4.66-42.59.18-21.3-.77-42.6-3.22-63.92-1.5a240.68,240.68,0,0,1-42.53-.26c-3.54-.33-7.06-.76-10.6-1.16a85.89,85.89,0,0,0-10.64-.7,8.41,8.41,0,0,0-2,.23,1.59,1.59,0,0,0-.63.3.68.68,0,0,0-.22.67,5.44,5.44,0,0,0,1,1.76l.38.55a1.12,1.12,0,0,1,.27.56c-.37,1.94-12.63-.22-14.19-.45a83.56,83.56,0,0,0,10.58,1.32,12.49,12.49,0,0,0,2.66-.12A1.71,1.71,0,0,0,152,201c.29-.29,0-.73-.15-1l-.38-.55a11.71,11.71,0,0,1-.72-1.11c-.19-.34-.37-.83,0-1.12a5,5,0,0,1,2.53-.47,85.62,85.62,0,0,1,10.6.79,239.39,239.39,0,0,0,42.55,2.29c8.52-.38,17-1,25.56-1.1-.27,3.17-.13,7.72-.16,10.84,0,1.46,0,3.24,0,5.06a50.39,50.39,0,0,0-10.44,3.11c-.27.12-.55.26-.83.41,0-5.62,0-12.15,0-16v16.06a6.32,6.32,0,0,0-1.17.75l-.72,6.31.73-6.31a7.69,7.69,0,0,1,1.16-.74v6.86a29.89,29.89,0,0,0-3.91,1.43l.34.68h0c.37-.18,5.23-2.42,15-3.7-.29,8.4-.15,21.2-.18,29.64q-5.66-.22-11.3-.55c0-2.44,0-5.41,0-8.48l3.76.2-3.76-.22c0-5.38,0-11.06,0-14.66v14.66l-13-.79c0-13.74,0-31.84,0-42v42q-6.66-.42-13.4-.8c0-13.5,0-31.23,0-41.19v41.19c-4.47-.25-9-.47-13.4-.66,0-13.06,0-30.08,0-39.67V241.8c-4.27-.18-8.52-.31-12.71-.39,0-13,0-30,0-39.63v39.63q-3.43-.06-6.81-.06c0-5.54,0-11.51,0-15.94,0-7.11.13-17.75-.19-24.75-.32,7-.15,17.61-.19,24.75,0,4.41,0,10.4,0,15.94-1.39,0-2.76,0-4.13,0,0-5.56,0-11.41,0-15.82,0-7.47.13-18.64-.19-26-.31,7.39-.15,18.49-.18,26,0,4.39,0,10.26,0,15.82h-1c-3.26.05-6.51.18-9.77.34V202.12h-.76v3a17.38,17.38,0,0,0-3.61-3.24,12.83,12.83,0,0,0-3.42-1.64c-2.52-.63-3.33-1.54-1.06-2.8a20.39,20.39,0,0,1,8.74-1.66,7,7,0,0,0,2.26-1.11,2.74,2.74,0,0,0,1.12-3.36l-.06-.15a.73.73,0,0,1,.12-.83,4.64,4.64,0,0,1,2-1.1,32.73,32.73,0,0,1,4.74-1c8.05-1.12,16.19-1.39,24.31-1.72l.75,0v.13h0v-.13c5.35-.19,11-.33,16.3-.13,7.31.22,14.59.94,21.85,1.83,25.79,3.42,51.6,6.84,77.53,9.21a175,175,0,0,0,48.61-2.82c6.19-1.14,12.93-2.76,19.11-4q8.15-1.56,16.37-2.68v.65h0v-.65a285.61,285.61,0,0,1,51.54-2.45c3.48.27,17.48.58,17.5,5.17v0h0V196h.27l.17-5.37v.08a2.05,2.05,0,0,0-.27-1.42l-.18-.29a4.71,4.71,0,0,0-.68-.73c-2-1.61-4.56-2.17-7-2.66-3.25-.59-6.5-.87-9.76-1.14-2.56-.19-5.13-.33-7.69-.43V137.12h-.76V184c-3.71-.14-7.43-.21-11.14-.19h-.16c.25-6.29.1-15.08.14-21.13,0-6.28.11-16.07-.19-22.27-.3,6.23-.16,16-.19,22.27,0,6-.11,14.86.14,21.13-1.46,0-2.93,0-4.39.07.24-6.33.1-15,.13-21.08,0-6.33.12-16.2-.19-22.44-.05,1-.08,2.11-.11,3.27l-13.53,0v0H380.32v0H367.06v0H353.43v0l-9.2,0c0-.29,0-.55,0-.76-.07-.84-.12-1.68-.2-2.51-.07.83-.12,1.67-.19,2.51,0,1.6,0,5.88,0,7.54V158c.06.83.11,1.67.18,2.51.08-.84.13-1.68.19-2.51V143.67h9.2V159h0c0-3.8,0-11.34,0-15.31h13.63v44.19q-9,1.5-17.89,3.49c-6.2,1.24-12.8,2.3-19.09,3-3.11.32-6.47.62-9.59.79a190.89,190.89,0,0,1-29.84-.9c.16-3.41.05-7.7.08-10.76,0-1.93,0-4.36,0-6.76q18.34.76,36.72,0-18.34-.76-36.72,0c0-2.1-.05-4.16-.2-5.82-.32,3.58-.15,9-.19,12.59,0,3-.07,7.33.08,10.74-1.42-.13-2.84-.28-4.26-.42.13-3.34,0-7.39.06-10.32,0-3.62.13-9-.19-12.59-.14,1.65-.18,3.7-.19,5.77a266.57,266.57,0,0,0-28.69,0,269.18,269.18,0,0,0,28.69,0c0,2.41,0,4.86,0,6.81,0,2.91-.07,7,0,10.29-2.94-.31-5.88-.64-8.81-1-13-1.4-27-3.1-40.58-4.76.23-6.62.11-16,.13-22.19,0-6.71.13-16.7-.17-23.41.94.11,1.89.23,2.83.32A304.19,304.19,0,0,0,286,144.16l-.12.84v8.35c.06.46.11.92.18,1.39.08-.47.13-.93.19-1.39V145c0-.28-.07-.56-.11-.84l4.31-.25a1.8,1.8,0,0,0-.08.21v3.08c.06.17.12.35.19.52a5.44,5.44,0,0,0,.19-.52v-3.08c0-.08-.06-.15-.08-.23a253.77,253.77,0,0,0,27.75-3.35c30.59-5.09,61.83-8.1,92.82-5.87,5.91.62,12,1.24,17.49,3.65-.1.07-.18.16-.29.23a4.55,4.55,0,0,0-1.52,1.41.39.39,0,0,0,.11.45.65.65,0,0,0,.39.13v-.26a.48.48,0,0,1-.23-.08s0-.06,0-.15a1.72,1.72,0,0,1,.38-.45,9,9,0,0,1,1.07-.76c.18-.11.35-.23.51-.35l.22.1-.21-.1a6.94,6.94,0,0,0,2.62-4.13,8.57,8.57,0,0,0-.14-4.27c-.68-1.39-2.16-2.07-3.46-2.64a27.09,27.09,0,0,0-3.93-1.24v-46h-.76V126l-.58-.13a95.23,95.23,0,0,0-10.73-1.53c.26-6,.11-14.49.15-20.31,0-6.09.13-15.21-.19-21.21-.32,6-.15,15.1-.19,21.21,0,5.8-.11,14.32.15,20.31-1.47-.13-2.93-.21-4.4-.3.24-5.85.1-13.95.13-19.53,0-6,.13-14.88-.19-20.75-.07,1.36-.12,2.88-.15,4.48l-13.49,0v0H380.32v0H367.06v0l-13.63,0v0l-9.39,0h9.39v3a25.69,25.69,0,0,0,0-3h13.63v36.19c-3,.19-5.95.4-8.92.63-1.56.13-3.13.29-4.69.43,0-6,0-15.85,0-21v21c-9.19.86-18.42,2.07-27.49,3.63l-6.67,1.23-6.64,1.4c-4,1-9,2.19-13,3.13-3,.65-6,1.17-8.92,1.58.13-3.37,0-7.45.06-10.4,0-1.1,0-2.37,0-3.7a219.47,219.47,0,0,0,26,0,221.62,221.62,0,0,0-26,0c0-3.07,0-6.47-.19-9-.32,3.6-.15,9-.19,12.68,0,3-.06,7.07.06,10.44-1.41.19-2.83.36-4.23.51.12-3.44,0-7.59.05-10.59,0-3.75.13-9.36-.19-13-.21,2.5-.2,5.85-.19,8.92q-18.84-.77-37.69,0,18.84.78,37.69,0c0,1.48,0,2.89,0,4.11,0,3-.07,7.17,0,10.62-16.8,1.72-32.8,0-49.32-3.2.13-3.37,0-7.46.06-10.41,0-3.64.13-9.1-.19-12.69-.31,3.6-.15,9-.18,12.69,0,2.93-.07,7,0,10.36-1.41-.27-2.82-.56-4.24-.85.14-3.24,0-7.22.07-10.08,0-3.48.12-8.7-.19-12.12-.32,3.44-.15,8.62-.19,12.12,0,2.83-.07,6.8.06,10q-5.52-1.14-11.15-2.44c-4.39-1-8.83-1.84-13.28-2.63,0-10.65,0-30.07,0-39.92v39.92c-4.46-.8-8.94-1.51-13.41-2.11,0-10.39,0-28.52,0-37.81v37.81c-1.77-.23-3.54-.46-5.31-.66-2.69-.3-5.4-.57-8.1-.8,0-9.74,0-26.77,0-35.5v35.5q-6.34-.54-12.73-.74c0-9.55,0-26.46,0-35.1v35.1q-3.47-.1-6.94-.08c.22-6,.1-14.6.13-20.27,0-6.23.13-15.56-.19-21.7-.32,6.17-.15,15.44-.19,21.7,0,5.66-.09,14.23.13,20.27-1.46,0-2.91,0-4.37.08.22-5.55.09-13.08.12-18.31,0-5.67.13-14.14-.19-19.72-.31,5.61-.15,14-.18,19.72,0,5.2-.1,12.78.12,18.31h0a89.24,89.24,0,0,0-10.84.81V93c.37.3.73.61,1.11.89L145.35,93V84.75h-.76v7.64a27.78,27.78,0,0,1-4.72-4.85,8.24,8.24,0,0,1-.69-1.23.82.82,0,0,1-.07-.65,1.16,1.16,0,0,1,.43-.5,6,6,0,0,1,2-.72c3.7-.72,7.51-.66,11.26-1A9.75,9.75,0,0,0,155.6,83a.47.47,0,0,0,.28-.35.53.53,0,0,0-.2-.39,9.14,9.14,0,0,0-1.87-1.07c-.89-.5-4.69-1.94-3.39-3.34a5.46,5.46,0,0,1,2.4-1.27,42.83,42.83,0,0,1,5.53-1.06c7.47-1,15-1.45,22.54-1.75,13.17-.4,26.43-.49,39.5,1.28,3.85.62,7.7,1.28,11.54,1.94-.28,3.77-.12,9.2-.16,12.91,0,3.46-.09,8.45.11,12.15a29.86,29.86,0,0,0-4.71,2,21.18,21.18,0,0,0-7.13,5.77v-.12s0,.09,0,.13a13,13,0,0,0-2.48,5.29l.26,0a12.74,12.74,0,0,1,2.65-4.64c2.75-3.22,6.68-5.22,10.66-6.5l.43-.15c1-.25,2.07-.54,3.07-.78,1.2-.2,2.38-.43,3.58-.6l3.61-.36c19.46-1.18,38.55,4,57.92,4.9,8.55.26,20.42-.42,29.12-.56v-.26c-8.27-.64-17.17-.76-25.46-1-3.53-.13-7.18-.55-10.7-1-2.12-.26-4.28-.56-6.47-.87V89.47c-.06-.77-.11-1.53-.19-2.29-.08.76-.12,1.52-.19,2.29V91.3c-11.59-.51-23.22-.51-34.81,0q17.4.76,34.81,0V97a47.17,47.17,0,0,1-6-1c-4.1-.88-8.15-2-12.31-2.58a75.91,75.91,0,0,0-30.88,1.88c0-2,0-4,0-5.61,0-3.4.12-8.44-.17-11.85,22.53,4,45.08,8.1,68,9.2a163.36,163.36,0,0,0,22.67-.12c1.64-.1,4-.46,5.64-.66s3.77-.64,5.58-1.08l1.11-.27c0,.09-.06.18-.08.27v3.69c.06.21.11.41.19.62.07-.21.13-.41.19-.62V85.14c0-.11-.07-.21-.1-.32,1.4-.34,2.81-.7,4.21-1.1v2.1a3.91,3.91,0,0,0,.18.35,2.45,2.45,0,0,0,.19-.35V83.68l0-.06c5.32-1.51,10.64-3.33,15.91-4.68a214.41,214.41,0,0,1,33.4-5.67c14.94-1.27,30.3-2.15,45,1.33a24.75,24.75,0,0,1,5.27,2,4.71,4.71,0,0,1,2,1.78.87.87,0,0,1-.35,1.11c-.38.26-.79.51-1.18.78-1.56,1.07-3.08,2.19-4.59,3.32-4.54,3.38-9,6.86-13.46,10.35,4.48-3.46,9-6.89,13.54-10.24,1.52-1.12,3.05-2.23,4.61-3.28.77-.56,2.05-.94,1.63-2.12a4.9,4.9,0,0,0-2.13-1.9,24.93,24.93,0,0,0-5.31-2c-14.72-3.63-30.13-2.79-45.12-1.59A208.67,208.67,0,0,0,360,78.31c-7.2,1.83-14.53,4.55-21.77,6.16-1.8.43-3.71.74-5.54,1.06-1.65.2-3.91.55-5.6.65a163.46,163.46,0,0,1-22.57.09c-26.38-1.36-52.4-6.47-78.38-11-3.73-.61-7.47-1.21-11.24-1.53a295,295,0,0,0-45.28.2c-3.77.3-7.53.66-11.27,1.19-2,.38-8,.93-8.43,3.22,0,.81.71,1.34,1.3,1.73,1.21.78,2.54,1.27,3.78,1.95a2.57,2.57,0,0,1,.57.38.41.41,0,0,1,.13.21s-.07.11-.16.16a5.18,5.18,0,0,1-1.33.32c-1.4.18-2.82.24-4.23.33-1.88.12-3.77.22-5.64.42a12.35,12.35,0,0,0-4.8,1.19,1.08,1.08,0,0,0-.46.55c-.16.5.18.94.4,1.35a16.65,16.65,0,0,0,2.72,3.26c.78.76,1.61,1.47,2.44,2.17v32.06c-6.85,1.1-17,4.89-13.73,13.51a18.88,18.88,0,0,0,3.16,4.58c3.37,4.05,6.95,7.9,10.57,11.71v40.59c-3.09.17-7.83.8-9.78,3a1.49,1.49,0,0,0-.3,1.1,1.52,1.52,0,0,0,.61.93,10.88,10.88,0,0,0,3,1.08,15.35,15.35,0,0,1,6.51,4.57v36.18l-1.74.08c-2,.12-4.09.16-6.12.39a12.8,12.8,0,0,0-4.44,1.12c-.42.24-.95.62-.87,1.16l-1.59,6.73a7,7,0,0,0-1,.23,1.4,1.4,0,0,0-.94.77c-.24.51.16,1.09.14,1.54a.46.46,0,0,1,0,.2,2.36,2.36,0,0,0-.1.48,2,2,0,0,0,1,1.58,14.76,14.76,0,0,0,3.87,1.79,87.82,87.82,0,0,0,10.7,2.61l.06-.26A87.16,87.16,0,0,1,133,257.26a14.82,14.82,0,0,1-3.64-1.78c-.34-.26-.69-.61-.67-1,0-.15.14-.42.14-.66a2.19,2.19,0,0,0-.09-.73,1.27,1.27,0,0,1-.07-.58c0-.14.25-.23.45-.29a13.28,13.28,0,0,1,2.68-.33c3.49-.14,8.25-.13,12.81-.1v.37h.76v-.36l8.36.07,2.56,0c-.28,4.46-.13,10.93-.16,15.34s-.13,11.27.18,15.71c.32-4.47.16-11.18.19-15.71s.12-10.9-.17-15.34c25,.12,50.3,2.3,75.46,3.54,0,8.32-.09,19.91.17,27.68-8.12-.14-16.33-.2-24.53-.21,0-7.37,0-19.69,0-26.08v26.08c-9,0-18,0-26.85.14,0-6.89,0-19.4,0-25.76v25.76l-8.41.1-4.33.07c.05-6.64.05-19.32,0-25.88h0v0c-2,0-3.93.06-5.88.07,1.94,0,3.9,0,5.88-.07v25.88c-4.54.09-9.23.2-13.6.32-2.29.09-5.63.16-8.84.26v-27h-.76v27c-2.32.08-4.54.18-6.17.33-1,.15-3.14.33-2.86,1.85.5,1.76,6.74,2.91,8.56,3.36l.07-.25c-1.43-.42-2.85-.89-4.25-1.41-5.48-2.09-3.93-2.58.78-2.56l3.87.06v26C95,311.28,46.33,311.35,0,311.46Zm344.23-42.9c0-3.49.07-8.32-.05-12.34h9.25v26.2l-4,0-5.28,0C344.32,278.16,344.2,272.51,344.23,268.56Zm0,28.54c0-3.4.08-8.18-.06-12,29.49-.06,59.71-.24,79.29-.17v26.32h-14q.07-6.1,0-12.21a.61.61,0,0,1,.42,0c.25.14.57.47.84.17s.57-.78.9-1.13a6.21,6.21,0,0,1,2.92-1.59,6.37,6.37,0,0,0-2.93,1.58c-.33.35-.55.79-.89,1.13a.35.35,0,0,1-.43.08c-.15-.07-.26-.18-.41-.25a.61.61,0,0,0-.42,0v-.55c0,.18,0,.36,0,.55a1.35,1.35,0,0,0-.73,1.13v.07a1.37,1.37,0,0,1,.72-1.19q-.07,6.11,0,12.21h-1.35q.09-6.39,0-12.77-.09,6.39,0,12.77l-35,0q.07-5.82,0-11.66a.62.62,0,0,1,.4,0c.24.14.55.46.81.17s.54-.75.85-1.09a6.15,6.15,0,0,1,2.8-1.52,6.15,6.15,0,0,0-2.8,1.52c-.32.33-.53.76-.86,1.08s-.55,0-.8-.17a.62.62,0,0,0-.4,0V299c0,.17,0,.35,0,.52a1.32,1.32,0,0,0-.7,1.08v.08a1.33,1.33,0,0,1,.69-1.15q-.07,5.84,0,11.66H371.8q.09-6.09,0-12.19-.09,6.09,0,12.19H344.06C344.35,307.1,344.2,301.15,344.23,297.1ZM394.85,250H394c0-2.79,0-6.07,0-9.64a107.38,107.38,0,0,1,13.43.43c0,3.43.05,6.79.14,9.63C403.33,250.17,399.09,250,394.85,250Zm12.72-48.34c-.26,7.24-.11,17.51-.15,24.55,0,4.06,0,9.4,0,14.56a107.39,107.39,0,0,0-13.43-.44c0-12.84,0-29.22,0-38.68ZM394,249.94c-4.39-.05-9.06,0-13.64.08,0-2.67,0-5.79,0-9.16,2.69-.19,5.38-.35,8.08-.43,1.84-.05,3.69-.1,5.54-.13Zm0-48.34v38.68l-5.55.12c-2.69.08-5.38.24-8.07.43,0-13,0-29.63,0-39.23ZM380.31,250c-2.53,0-5,.1-7.45.15-1.93,0-3.86.1-5.79.16,0-2.45,0-5.26,0-8.3,4.41-.42,8.82-.85,13.23-1.17Zm0-48.42v39.23c-4.41.32-8.82.74-13.23,1.16,0-13.18,0-30.51,0-40.39Zm-13.27,48.73q-6.8.19-13.61.43c0-2.15,0-4.84,0-7.62l1.18,0c4.14-.27,8.28-.66,12.42-1.06ZM353.43,201.6v6c.07-2,.06-4,0-6h13.63V242c-4.14.39-8.28.77-12.42,1.05l-1.18,0c0-4.51,0-9.23,0-12.23V243.1a14,14,0,0,1-3.3-.13c-.08,0-.19-.09-.15-.11l.12-.06-.14,0c-1.91-.17-3.81-.33-5.72-.48,0-5.73,0-11.83,0-16.39,0-6.91.1-16.94-.11-24.31Zm-9.2,40.75q2.86.22,5.71.48c-.08.1.1.16.17.19a14.08,14.08,0,0,0,3.31.12v7.62l-9.33.35C344.17,248.51,344.21,245.49,344.23,242.35Zm63.27-98.68c-.15,6.08-.05,13.84-.08,19.17,0,6-.1,14.78.13,21.08q-6.8.17-13.58.67c0-10.94,0-30.67,0-40.92Zm-13.53,0v40.92q-6.82.51-13.63,1.34c0-11.75,0-31.74,0-42.26Zm-13.65,0v42.26q-6.65.81-13.24,1.93c0-11.88,0-33.14,0-44.19ZM236.65,95.26a76.73,76.73,0,0,1,30.87-1.84c4.17.56,8.22,1.68,12.32,2.56a45.42,45.42,0,0,0,6,1v6.31c-11.47-1.63-23.71-3.67-34.91-3.66-2.91,0-6.35.15-9.27.41l-3.73.51-1.42.28C236.63,99.17,236.65,97.21,236.65,95.26Zm-.21-17.46c-.29,3.43-.14,8.44-.17,11.85,0,3.19-.1,7.84.12,11.22A41.13,41.13,0,0,0,232,102c.21-3.71.08-8.65.12-12.1,0-3.69.11-9.15-.17-12.9Zm-.17,88.07c0,6.19-.1,15.57.12,22.17l-4.36-.53c.2-6.67.09-15.83.12-22,0-6.76.12-16.81-.17-23.61,1.49.19,3,.35,4.46.52C236.14,149.2,236.3,159.13,236.27,165.87Zm171.19-77.6c-.1,5.36,0,11.66,0,16.27,0,5.56-.1,13.69.14,19.52q-6.8-.42-13.59-.46c0-9.47,0-26.46,0-35.33Zm-27.14,0v32.36h0c0-8,0-24.14,0-32.36H394V123.6c-9-.07-17.94.28-26.89.86,0-10,0-27.16,0-36.19ZM138,146.26c-1.15-1.37-2.29-2.76-3.4-4.16-1.67-2-3.43-4.26-3.46-7,.12-6.23,8-8.38,13.44-9.22v.22h.76v-.33l.14,0a75,75,0,0,1,8-.55c18.83-.48,37.64,1.84,56.1,5.41,14.08,2.78,28,6.58,42.24,8.4a138,138,0,0,0,53.5-2.84c2.54-.61,5.27-1.32,7.83-1.94l6.57-1.44,6.6-1.27a406.36,406.36,0,0,1,40.69-5.12v.27h0v-.27c4.24-.32,8.48-.6,12.73-.81,9.26-.44,18.55-.7,27.82-.32h0c1.48.06,3,.13,4.44.23,5.32.43,10.77.83,15.83,2.64a5.77,5.77,0,0,1,3.14,2.22,7.71,7.71,0,0,1-.75,6.34,6.37,6.37,0,0,1-1.55,1.6,24.42,24.42,0,0,0-2.6-1.06,49.74,49.74,0,0,0-5.65-1.44c-21.51-3.63-43.53-2.32-65.17-.71-24.83,1.74-49.12,8.13-74.07,8.53-26.4.94-52.82-2-78.73-7-10.65-2.24-21.45-4.16-32.38-3.93a104.05,104.05,0,0,0-23.11,3,69.06,69.06,0,0,0-13.18,4.66,72,72,0,0,1,15.49-5,108,108,0,0,1,39.35-.83c7.58,1.32,15.3,3.1,22.9,4.39,6.66,1.19,13.55,2.22,20.37,3.07-.29,6.83-.13,16.82-.17,23.61,0,6.11-.09,15.29.11,21.94L219,185.9a221.48,221.48,0,0,0-25-1.59c0-11.1,0-30.88,0-41v41c-4.48,0-9,.1-13.41.37,0-11.05,0-30.52,0-40.48v40.48l-.82,0c-4,.24-7.94.45-11.91.76,0-11.11,0-31.36,0-41.64v41.64q-3.49.27-7,.67c.29-6.56.13-16.14.17-22.66s.11-16.67-.19-23.1c-.3,6.45-.16,16.57-.19,23.1s-.12,16.13.17,22.67c-1.83.21-3.67.46-5.49.76a24.74,24.74,0,0,0-6.17,1.7c-1,.47-2,1.45-1.65,2.72a2.86,2.86,0,0,1,.31,1.13,2,2,0,0,1-.87,1.39,6.15,6.15,0,0,1-1.55.87V141.51h-.76v12.34Q141.25,150.1,138,146.26Zm6.58,104.37-1.85,0c-3.66.08-7.31.12-11,.37-.65.06-1.27.1-1.9.2l1.61-6.73c-.08-.53.44-.92.85-1.15a13,13,0,0,1,4.44-1.12c2-.22,4.08-.25,6.13-.37l1.73-.08Zm.76,0v-8.85c3.26-.16,6.51-.28,9.77-.33h1c0,3.24,0,6.36.14,9C152.61,250.47,149,250.52,145.35,250.61Zm22.44-.13c-3.83,0-7.64,0-11.45,0,.09-2.68.13-5.8.14-9l4.13,0c0,3.2.07,6.24.18,8.76.11-2.52.16-5.57.18-8.76q3.39,0,6.82.07Zm12.74.25q-6.36-.18-12.73-.25c0-2.61,0-5.68,0-9,4.19.08,8.44.22,12.71.39Zm13.43.47q-6.71-.28-13.42-.47c0-2.59,0-5.61,0-8.88,4.45.18,8.93.41,13.4.65Zm13.43.63q-6.69-.35-13.42-.63c0-2.56,0-5.51,0-8.69,4.48.24,9,.51,13.4.78Zm13.06.71-.87,0c-4-.24-8.11-.46-12.18-.67,0-2.53,0-5.42,0-8.54,4.39.26,8.74.53,13,.77Zm86,58.63q.09-6.07,0-12.17-.09,6.09,0,12.17h-1.28q.07-5.82,0-11.64a1.33,1.33,0,0,1,.69,1.15v-.08a1.31,1.31,0,0,0-.7-1.08c0-.17,0-.35,0-.52v.52a.62.62,0,0,0-.4,0c-.25.14-.54.46-.8.17s-.54-.75-.86-1.08a6.15,6.15,0,0,0-2.8-1.52,6.15,6.15,0,0,1,2.8,1.52c.31.34.52.76.85,1.09s.57,0,.81-.17a.62.62,0,0,1,.4,0q-.07,5.82,0,11.64H290.54c.29-7.4.15-18.8.18-26.26,14.16.16,31.2.19,48.71.17-.15,3.85,0,8.65-.07,12.08,0,4-.12,10,.17,14Zm33.12,0c.29-4.05.14-10,.18-14,0-3.42.07-8.24-.08-12.09h4.26c-.14,3.86,0,8.62-.06,12,0,4-.12,10,.17,14.08ZM344,199.66c-.31,7.5-.15,18.69-.18,26.25,0,4.54,0,10.63,0,16.36l-4.13-.31c0-5.73,0-11.85,0-16.41,0-7.34.12-18.25-.18-25.61ZM339.73,242l4.13.31c0,3.16.06,6.19.14,8.8-1.48,0-3,.12-4.44.18C339.66,248.6,339.71,245.38,339.73,242ZM344,253.39c-.31,4.35-.15,10.8-.18,15.17,0,3.93-.09,9.61.1,13.86l-4.34,0c.21-4.23.08-9.88.12-13.83,0-4.31.12-10.73-.18-15Zm-4.66,4.33q-24.42-.77-48.85,0,24.42.78,48.85,0c-.07,3.68,0,7.8,0,10.89,0,3.93-.09,9.61.11,13.83-16.24.12-32.52.43-48.75,1.24,0-7.62.11-18.36-.19-25.56-.3,7.24-.16,17.94-.18,25.58l-4.13.21v-2.23c0-7.39.13-18.44-.18-25.73,17.84-.49,35.67-1.46,53.5-2.35C339.45,254.84,339.4,256.24,339.38,257.72ZM236.64,230.85q24.6.77,49.2,0c0,3.37,0,7,0,9.74v1.73l-1.5.23c-15.8,2-31.79,2.2-47.71,2C236.67,240,236.65,235.1,236.64,230.85Zm47.72,11.73,1.49-.23c0,3.36-.05,7.47.06,10.92-16.51.42-33,.53-49.41,0,.08-2.61.12-5.6.14-8.71C252.54,244.78,268.55,244.61,284.36,242.58Zm1.48-11.74q-24.58-.76-49.2,0V223c3-.25,6.23-.4,9.88-.4q1.9,0,3.93.06c15.52.44,26.54,1.08,39.9,1.6,0,1.19,0,2.32,0,3.39,0,3.93,0,9,0,14l-2.47.36-1.64.26v-1.67c0-4.41.13-11-.19-15.34C285.91,226.89,285.86,228.82,285.84,230.84Zm.38,11.45,1.65-.26c.82-.13,1.64-.25,2.46-.35,0,4.06,0,8.1.15,11.46l-4.32.13C286.27,249.79,286.22,245.67,286.22,242.29Zm4.36,10.85c.11-3.39.14-7.43.15-11.51a142.08,142.08,0,0,1,16.63-.88c10.68,0,21.35.46,32,1.23,0,3.39.07,6.62.18,9.32C323.25,252,306.92,252.67,290.58,253.14Zm42.68-28.73a.3.3,0,0,0-.15-.14.31.31,0,0,0-.13-.05,2.41,2.41,0,0,0-.35-.07l-.2,0,0,.18c-.51,0-1.53.05-3.39.05-3,0-8-.06-16.61-.23-8.29-.17-15.27-.39-21.7-.65,0-2.31,0-4.79,0-7.31.91,0,1.82,0,2.73-.08q11.55-.14,23.07-1c5.76-.44,11.51-1.09,17.29-1a26.27,26.27,0,0,1,5.53.55c0,3.92,0,7.75,0,10.93,0,1.61,0,3.42,0,5.34q-24.32-.76-48.64,0v-3.28c0-1.06,0-2.19,0-3.37,6.43.25,13.4.48,21.69.65,8.57.17,13.65.23,16.62.23,1.59,0,2.58,0,3.17,0l.63-.05.19,0,.12-.06a.39.39,0,0,0,.11-.09.4.4,0,0,0,.08-.24A.36.36,0,0,0,333.26,224.41Zm-42.54,6.49q24.31.76,48.64,0c0,3.49,0,7.35,0,11-10.65-.78-21.32-1.26-32-1.23a142.1,142.1,0,0,0-16.63.9C290.73,237.9,290.72,234.18,290.72,230.9Zm48.81-31c-.17,4.2-.19,9.51-.18,14.68a25.63,25.63,0,0,0-5.53-.56c-5.78-.1-11.54.55-17.29,1-7.68.57-15.38.92-23.07,1-.91,0-1.82.07-2.73.08,0-5.27,0-10.68-.18-15C306.89,201.42,323.23,200.93,339.53,199.94Zm-49,1.22c-.16,4.31-.18,9.71-.18,15-1.37,0-2.73-.06-4.1-.18,0-1.64,0-3.25,0-4.58,0-2.94.11-7.26-.15-10.31ZM286.23,216c1.37.12,2.74.17,4.1.18,0,2.51,0,5,0,7.29-13.34-.53-24.35-1.16-39.87-1.61-1.37,0-2.69-.05-4-.05-3.64,0-6.93.15-9.88.39,0-2.65,0-5.52,0-8.42l.61-.1a113.37,113.37,0,0,1,42.14,1.24,46.45,46.45,0,0,0,6.44,1c0,2.21,0,4.48.19,6.23C286.21,220.44,286.24,218.19,286.23,216ZM238.3,198.79c14.2.26,28.37,1.67,42.57,2.14l5.12.13c-.25,3.06-.11,7.35-.14,10.31,0,1.32,0,2.91,0,4.54a46.56,46.56,0,0,1-6.43-1,113.26,113.26,0,0,0-42.16-1.21l-.6.1c0-5.32,0-10.71-.18-15Zm-1.86,0c-.16,4.32-.19,9.73-.18,15.06-1.37.23-2.74.47-4.11.74,0-1.78,0-3.54,0-5,0-3.1.11-7.68-.16-10.84C233.47,198.74,235,198.74,236.44,198.77ZM232,223.45c1.34-.17,2.77-.33,4.3-.46v3.53c0,7.48-.1,18.91.14,26.75l-4.26-.15C232.12,244.7,232.25,231.82,232,223.45Zm-11.51,1.61c0-1.85,0-4.26,0-6.87.28-.15.57-.3.83-.42a49.94,49.94,0,0,1,10.44-3.1c0,2.18,0,4.39.2,6.12.17-1.76.2-4,.19-6.2,1.37-.27,2.74-.51,4.11-.74,0,2.89,0,5.74,0,8.38A77.75,77.75,0,0,0,220.46,225.06Zm-75.11,60.16c19.75.31,39.94.36,60.18.26,0,.65,0,1.3,0,1.95,0-.65,0-1.3,0-1.95h.83c0,.65,0,1.3,0,1.95,0-.65,0-1.3,0-1.95,21.59-.1,43.2-.35,64.27-.57v-.27c-6-.45-12-.7-18-1-6.83-.25-13.82-.43-20.87-.55.26-7.8.17-19.33.17-27.67,10.43.51,20.83.86,31.17.82,7.57,0,15.15-.11,22.72-.32,0,.55,0,1.13-.06,1.71q-24.25-.76-48.51,0,24.24.78,48.51,0c-.23,7.25-.09,17.15-.12,24v2.25q-5.44.31-10.88.7c3.32.08,7,.15,10.88.21,0,7.1-.08,16.4.18,22.61.27-6.23.19-15.5.19-22.61l4.12,0c0,7.44-.11,18.89.18,26.27H267.66q.07-5.82,0-11.64a.62.62,0,0,1,.4,0c.24.14.55.46.81.17s.54-.75.85-1.09a6.15,6.15,0,0,1,2.8-1.52,6.15,6.15,0,0,0-2.8,1.52c-.31.33-.52.76-.85,1.08s-.56,0-.81-.17a.62.62,0,0,0-.4,0V299c0,.17,0,.35,0,.52a1.31,1.31,0,0,0-.69,1.08v.08a1.33,1.33,0,0,1,.69-1.15q-.07,5.82,0,11.64h-1.29q.09-6.07,0-12.17-.09,6.09,0,12.17l-59,0c-.18-3.95-.61-8.16-.9-12.19.26,4.07.57,8.13.85,12.19h-1.76c.11-4,0-8.58,0-12.75,0,4.25,0,8.5,0,12.75h-4.15q.07-6.09,0-12.19-.09,6.09,0,12.19h-1.28q.07-5.82,0-11.66a1.32,1.32,0,0,1,.7,1.15v-.08a1.31,1.31,0,0,0-.7-1.08V299c0,.17,0,.35,0,.52a.62.62,0,0,0-.4,0c-.24.14-.54.46-.8.17s-.54-.75-.85-1.08a6.2,6.2,0,0,0-2.8-1.52,6.17,6.17,0,0,1,2.79,1.52c.32.34.53.76.86,1.09s.56,0,.81-.17a.59.59,0,0,1,.39,0q-.07,5.84,0,11.66l-35,0q.09-6.39,0-12.78-.08,6.39,0,12.78h-1.34q.08-6.12,0-12.22a1.4,1.4,0,0,1,.73,1.19v-.07a1.33,1.33,0,0,0-.73-1.13v-.55c0,.18,0,.36,0,.55a.62.62,0,0,0-.42,0c-.25.14-.56.47-.83.17s-.57-.78-.9-1.13a6.33,6.33,0,0,0-2.92-1.58,6.26,6.26,0,0,1,2.92,1.59c.33.35.54.79.89,1.13s.59,0,.85-.17a.59.59,0,0,1,.41,0q-.08,6.11,0,12.22H145.35Z"/><path class="cls-1" d="M164.48,300a6.16,6.16,0,0,1,.22-1.59A4.43,4.43,0,0,0,164.48,300Z"/><path class="cls-1" d="M164.94,297.92a2.13,2.13,0,0,1,.38-.42h0A2.25,2.25,0,0,0,164.94,297.92Z"/><path class="cls-1" d="M164.48,300v.1s0,.05,0,.07A1,1,0,0,0,164.48,300Z"/><path class="cls-1" d="M165.3,297.49h0l1-.33,0,0h-.06l-.17,0h.11l-.87.29a1.48,1.48,0,0,1,.59-.26,1.33,1.33,0,0,0-.65.29l-.23.07.19,0Z"/><path class="cls-1" d="M157.86,291.27a3.54,3.54,0,0,0-2.85,0c.85-2.14,3.53-1.32,5.31-1.57a4.17,4.17,0,0,1-1.76-2.08l1.52.52h0l.22,0-.22-.08c-.12,0-.13-.19-.07-.29s.22-.12.35-.09c.5.19,1.71.9,2.22,1.15l0,0a2.36,2.36,0,0,1,.45-1.43,2.18,2.18,0,0,1,.66,1.57v.22l.07-.21a2.55,2.55,0,0,1,1.84-1.69c.12,0,.16.15.07.17h0l-.3.09a1.63,1.63,0,0,0,.31,0h0a9.92,9.92,0,0,1,5.61-.08l-3.56,1h0l0,.09h0a4.21,4.21,0,0,1,1.65-.19c.13,0,.26.07.28.19-.05.49-.68.25-1,.55l0,0a9.26,9.26,0,0,0,1.46.85h-.54l.17.08a4.52,4.52,0,0,1,2.3,2.78c-1.88-.28-4.11-.47-5.64.83l0,0h0a1.57,1.57,0,0,0-.24.21l.27-.16a5.14,5.14,0,0,1,4.72-.14,37.8,37.8,0,0,0-5.56,1.33l0,0a10.18,10.18,0,0,1,4.71-.33,4.36,4.36,0,0,1,3.41,3,14.84,14.84,0,0,0-8-.28,15.86,15.86,0,0,1,8,.29h0v0c-.64-2.47-3.5-3.44-5.81-3.13a12.73,12.73,0,0,0-1.26.19,37.29,37.29,0,0,1,4.57-1l.1,0-.09,0a5.21,5.21,0,0,0-4.51-.09c1.53-1.09,3.61-.84,5.37-.58h.07l0-.07A4.54,4.54,0,0,0,170,290.1h.6a9.46,9.46,0,0,1-1.7-1c.28-.19,1,0,1-.6,0-.18-.22-.25-.36-.27a4.33,4.33,0,0,0-.72,0l2.77-.8.13,0a9.94,9.94,0,0,0-5.84,0,.12.12,0,0,0,0-.09.21.21,0,0,0-.19-.12,2.1,2.1,0,0,0-1,.49,2.71,2.71,0,0,0-.82,1.15,2.25,2.25,0,0,0-.73-1.56,2.48,2.48,0,0,0-.5,1.43c-.53-.27-1.68-.94-2.19-1.13a.37.37,0,0,0-.41.12.31.31,0,0,0,0,.28l-1.44-.49-.06,0a4.22,4.22,0,0,0,1.72,2.14c-1.77.19-4.44-.52-5.22,1.63a3.94,3.94,0,0,1,4.91,1.91A3.66,3.66,0,0,0,157.86,291.27Z"/><path class="cls-1" d="M159.87,293.18l0,.07h0Z"/><path class="cls-1" d="M165.32,297.5l.41-.1-.39.08Z"/><path class="cls-1" d="M153.74,297.38a2.89,2.89,0,0,1,3.09-2.25v0l-1.36-1.82.69-.17h0a.46.46,0,0,0-.22-.29c1.23-1,2.66.34,4,.45l0,0c-1.3-.13-2.75-1.48-4-.43h0a.42.42,0,0,1,.21.26l-.69.18h0l1.37,1.83a2.9,2.9,0,0,0-3.09,2.27h0a6.39,6.39,0,0,1,4.94-.92A6.35,6.35,0,0,0,153.74,297.38Z"/><path class="cls-1" d="M165.29,297.49l-.18.07.17-.05,0,0Z"/><path class="cls-1" d="M163.09,296.29c-1.06-.81-2.11-1.61-3.18-2.4,1.09.88,2.2,1.73,3.3,2.58A17.43,17.43,0,0,0,160.7,290,19.45,19.45,0,0,1,163.09,296.29Z"/><path class="cls-1" d="M165.7,294.76l.26-.45c.08-.14.22-.31.13-.48.08.17-.06.33-.14.47l-.28.45L164.31,297a3.81,3.81,0,0,1-.24.32,20.14,20.14,0,0,0-.89-7.44,24,24,0,0,1,.73,3.74,24.94,24.94,0,0,1,.07,4,2.1,2.1,0,0,1,.22-.33c.15-.1.33-.51.44-.66l.53-.9Z"/><path class="cls-1" d="M200.78,300.51v.09s0,0,0,.08A1,1,0,0,0,200.78,300.51Z"/><path class="cls-1" d="M190.49,298h0a1.05,1.05,0,0,1,.05-.19C190.53,297.87,190.5,297.93,190.49,298Z"/><path class="cls-1" d="M200.78,300.51A5.41,5.41,0,0,1,201,299,4.17,4.17,0,0,0,200.78,300.51Z"/><path class="cls-1" d="M201.61,298.08h0l.93-.32h0a1.36,1.36,0,0,0-.94.32l-.22.07.18,0h.05Zm.84-.31-.79.27A1.35,1.35,0,0,1,202.45,297.77Z"/><path class="cls-1" d="M201.22,298.51a2,2,0,0,1,.36-.41h0A2.08,2.08,0,0,0,201.22,298.51Z"/><path class="cls-1" d="M194.44,292.14a3.41,3.41,0,0,0-2.73,0c.82-2.05,3.38-1.26,5.09-1.5a4,4,0,0,1-1.68-2l1.45.5h0l.22,0-.22-.08c-.11,0-.12-.19-.06-.28s.2-.12.32-.09c.49.19,1.64.87,2.13,1.1l0,0v-.06a2.3,2.3,0,0,1,.43-1.31,2.15,2.15,0,0,1,.63,1.71,2.62,2.62,0,0,1,1.5-1.73c.13,0,.35-.17.44,0s0,.1,0,.09h0l-.3.1c.09,0,.22,0,.31,0h0a9.49,9.49,0,0,1,5.36-.07l-3.39,1h0l0,.09h0a3.82,3.82,0,0,1,1.57-.19c.13,0,.25.07.27.18,0,.48-.65.24-.95.53l0,0a9.17,9.17,0,0,0,1.39.81h-.52a4.34,4.34,0,0,1,2.37,2.74,12.52,12.52,0,0,0-2.8-.18,4.31,4.31,0,0,0-2.59,1l-.05,0h0c-.08.07-.17.13-.25.21l.28-.16a4.92,4.92,0,0,1,4.51-.13,35.68,35.68,0,0,0-5.31,1.27h0l0,.05a9.85,9.85,0,0,1,4.51-.32,4.19,4.19,0,0,1,3.26,2.85A14.28,14.28,0,0,0,202,298a15.31,15.31,0,0,1,7.69.28h0a3.53,3.53,0,0,0-1.24-1.92c-1.54-1.3-3.61-1.29-5.51-.92a34.17,34.17,0,0,1,4.35-1l.09,0-.08,0a5,5,0,0,0-4.3-.1c1.46-1,3.44-.79,5.12-.55h.07l0-.06A4.38,4.38,0,0,0,206,291h.58a9.3,9.3,0,0,1-1.63-.91c.27-.18.93,0,.92-.57a.35.35,0,0,0-.34-.26,3.86,3.86,0,0,0-.68,0l2.64-.76.13,0a9.59,9.59,0,0,0-5.59,0,.1.1,0,0,0,0-.08.18.18,0,0,0-.18-.12,2.07,2.07,0,0,0-1,.47,2.64,2.64,0,0,0-.78,1.09,2.14,2.14,0,0,0-.7-1.48,2.25,2.25,0,0,0-.47,1.37c-.52-.26-1.62-.9-2.1-1.08a.33.33,0,0,0-.39.11.28.28,0,0,0,0,.27l-1.38-.48h0a4.06,4.06,0,0,0,1.65,2.05c-1.7.18-4.26-.5-5,1.56a3.79,3.79,0,0,1,4.71,1.82A3.52,3.52,0,0,0,194.44,292.14Z"/><path class="cls-1" d="M201.58,298.1l.39-.1-.36.08Z"/><path class="cls-1" d="M201.38,298.15l.16,0a0,0,0,0,0,0,0Z"/><path class="cls-1" d="M193.45,295.83h0l-1.3-1.74.66-.17h0a.46.46,0,0,0-.21-.28c1.18-1,2.55.32,3.8.44,0,0,0,0,0,0-1.25-.12-2.64-1.41-3.82-.41h0a.39.39,0,0,1,.2.25l-.66.17h0v0s1.31,1.79,1.32,1.73a2.8,2.8,0,0,0-2.9,2A2.8,2.8,0,0,1,193.45,295.83Z"/><path class="cls-1" d="M190.5,298h0a6.09,6.09,0,0,1,4.73-.89A6.09,6.09,0,0,0,190.5,298Z"/><path class="cls-1" d="M196.37,294l0,.07h0S196.38,294,196.37,294Z"/><path class="cls-1" d="M199.45,296.93c-1-.76-2-1.53-3-2.28,1,.84,2.1,1.65,3.15,2.47a16.56,16.56,0,0,0-2.4-6.2A18.69,18.69,0,0,1,199.45,296.93Z"/><path class="cls-1" d="M202,295.48l.25-.43c.07-.14.21-.3.13-.46.07.16-.07.32-.15.45l-.26.43c-.38.61-.93,1.52-1.3,2.13-.07.12-.16.2-.23.3a19.26,19.26,0,0,0-.86-7.11,21.57,21.57,0,0,1,.77,7.37,2.53,2.53,0,0,1,.21-.32c.15-.1.32-.49.42-.63l.51-.86Z"/><path class="cls-1" d="M407.86,297.49h0l.19,0-.23-.07a1.09,1.09,0,0,0-.38-.21,1.29,1.29,0,0,1,.32.18l-.93-.31.28,0a1.26,1.26,0,0,0-.28,0h0l0,0,1,.33h.05Z"/><path class="cls-1" d="M419.43,297.39h0a2.92,2.92,0,0,0-3.09-2.28c0,.06,1.37-1.83,1.38-1.82h0l-.69-.18a.44.44,0,0,1,.23-.27,2,2,0,0,0-2-.23,11.56,11.56,0,0,1-2,.67,3.9,3.9,0,0,1,4.91-2h0a2,2,0,0,0-.95-1.15c-1.3-.77-2.86-.3-4.28-.48a4.22,4.22,0,0,0,1.72-2.14l-.05,0-1.44.49a.31.31,0,0,0,0-.28c-.32-.37-.83.12-1.16.25l-1.44.76a2.41,2.41,0,0,0-.5-1.43,2.3,2.3,0,0,0-.73,1.56,2.69,2.69,0,0,0-.81-1.15c-.2-.16-1.06-.74-1.22-.37a.27.27,0,0,0,0,.09,10,10,0,0,0-5.83,0l.14,0,2.76.8a4.33,4.33,0,0,0-.72,0c-.13,0-.32.09-.35.27,0,.56.68.41,1,.6a9.13,9.13,0,0,1-1.7,1h.6a4.61,4.61,0,0,0-2.23,2.81V293H401c1.77-.26,3.85-.51,5.37.58a5.21,5.21,0,0,0-4.51.09l-.08,0,.09,0a37.29,37.29,0,0,1,4.57,1c-2-.39-4.16-.4-5.78,1a3.78,3.78,0,0,0-1.3,2h0a15.85,15.85,0,0,1,8-.29,14.84,14.84,0,0,0-8,.28,4.36,4.36,0,0,1,3.4-3,10.21,10.21,0,0,1,4.72.33v0a37.67,37.67,0,0,0-5.55-1.33,5.12,5.12,0,0,1,4.71.14l.28.16c-.08-.08-.17-.14-.25-.21h0l-.06,0a4.5,4.5,0,0,0-2.7-1,13.1,13.1,0,0,0-2.93.2,4.55,4.55,0,0,1,2.48-2.87H403a9.26,9.26,0,0,0,1.46-.85c-.23-.27-.61-.17-.84-.31s-.21-.17-.19-.28.15-.18.28-.19a4.16,4.16,0,0,1,1.64.19h0l0-.09h0l-3.55-1a9.92,9.92,0,0,1,5.61.08h0l.3,0-.3-.09h0c-.09,0-.05-.18.07-.17a2.55,2.55,0,0,1,1.84,1.69l.07.21V289a2.23,2.23,0,0,1,.67-1.57,2.43,2.43,0,0,1,.44,1.38s0,.06.05,0c.5-.25,1.72-1,2.22-1.15.12,0,.28,0,.34.09s.05.28-.07.3l-.22.07.23,0h0l1.53-.52a4.24,4.24,0,0,1-1.77,2.08c1.79.25,4.46-.57,5.32,1.57a3.54,3.54,0,0,0-2.85,0,3.61,3.61,0,0,0-2.06,2c1.31-.11,2.74-1.47,4-.45a.45.45,0,0,0-.21.29h0l.68.17-1.36,1.82a3,3,0,0,1,3.09,2.27,6.37,6.37,0,0,0-4.93-.91A6.36,6.36,0,0,1,419.43,297.39Z"/><path class="cls-1" d="M407.89,297.51l.16.05-.18-.07h0Z"/><path class="cls-1" d="M408.22,297.93a1.7,1.7,0,0,0-.33-.42h-.05A1.7,1.7,0,0,1,408.22,297.93Z"/><path class="cls-1" d="M408.68,300a4.19,4.19,0,0,0-.22-1.59A5.7,5.7,0,0,1,408.68,300Z"/><path class="cls-1" d="M408.67,300.19a.17.17,0,0,0,0-.07V300A1,1,0,0,1,408.67,300.19Z"/><path class="cls-1" d="M407.82,297.48l-.38-.08.4.1Z"/><path class="cls-1" d="M413.25,293.89l-3.18,2.4a19.47,19.47,0,0,1,2.4-6.29,17.26,17.26,0,0,0-2.51,6.47C411.06,295.62,412.17,294.77,413.25,293.89Z"/><path class="cls-1" d="M409,297.23a2.13,2.13,0,0,1,.23.33,22.22,22.22,0,0,1,.8-7.7,20.14,20.14,0,0,0-.89,7.44,3.92,3.92,0,0,1-.25-.32c-.39-.64-1-1.59-1.36-2.23l-.27-.45c-.08-.14-.23-.3-.15-.47-.09.17.06.34.13.48l.26.45.53.91.54.9A3,3,0,0,0,409,297.23Z"/><path class="cls-1" d="M372,298.51a2.13,2.13,0,0,0-.33-.4h0A1.79,1.79,0,0,1,372,298.51Z"/><path class="cls-1" d="M371.78,298.15l-.18-.06,0,0Z"/><path class="cls-1" d="M372.37,300.68a.22.22,0,0,0,0-.08v-.09A1,1,0,0,1,372.37,300.68Z"/><path class="cls-1" d="M371.56,298.08l-.37-.08.39.1Z"/><path class="cls-1" d="M376.75,294h0a.25.25,0,0,1,0-.07S376.76,294,376.75,294Z"/><path class="cls-1" d="M372.38,300.51a4,4,0,0,0-.22-1.54A5.41,5.41,0,0,1,372.38,300.51Z"/><path class="cls-1" d="M371.6,298.09h0l.19,0-.22-.07a1.33,1.33,0,0,0-.37-.2,1.12,1.12,0,0,1,.31.18l-.89-.3h0l.94.32h.05Z"/><path class="cls-1" d="M381.5,292.14c-.75-2.06-3.3-1.38-5-1.56a4,4,0,0,0,1.64-2.05h-.05l-1.37.48a.32.32,0,0,0,0-.27.33.33,0,0,0-.39-.11c-.5.18-1.58.82-2.1,1.08a2.32,2.32,0,0,0-.48-1.37,2.14,2.14,0,0,0-.7,1.48,2.62,2.62,0,0,0-.77-1.09c-.2-.15-1-.71-1.17-.35a.11.11,0,0,0,0,.08,9.59,9.59,0,0,0-5.59,0l.14,0,2.54.74c-.44,0-.85,0-.93.27,0,.53.66.39.93.57a9.3,9.3,0,0,1-1.63.91h.57a4.36,4.36,0,0,0-2.12,2.69l0,.06H365c1.69-.24,3.67-.48,5.13.55a5,5,0,0,0-4.3.1l-.09,0,.1,0a34.17,34.17,0,0,1,4.35,1c-1.91-.37-4-.38-5.51.92a3.6,3.6,0,0,0-1.25,1.92h0a15.31,15.31,0,0,1,7.69-.28,14.24,14.24,0,0,0-7.67.27,4.19,4.19,0,0,1,3.25-2.85,9.9,9.9,0,0,1,4.52.32v-.05h0a36,36,0,0,0-5.31-1.27,4.92,4.92,0,0,1,4.51.13l.27.16a2.41,2.41,0,0,0-.24-.21h0l0,0c-1.46-1.25-3.59-1.07-5.39-.8a4.31,4.31,0,0,1,2.19-2.66l.18-.08H367a9.68,9.68,0,0,0,1.39-.81c-.22-.26-.6-.17-.81-.3a.28.28,0,0,1-.18-.27c0-.11.14-.16.26-.18a3.86,3.86,0,0,1,1.58.19h0l0-.09h0l-3.39-1a9.49,9.49,0,0,1,5.36.07h0l.3,0-.3-.1h0c-.08,0,0-.17.07-.16A2.44,2.44,0,0,1,373,290l.07.2V290a2.11,2.11,0,0,1,.63-1.5,2.23,2.23,0,0,1,.43,1.31c0,.06,0,.07.05,0,.48-.24,1.65-.92,2.12-1.1a.29.29,0,0,1,.33.09c.06.1.05.27-.07.28l-.21.08.22,0h0l1.46-.5a4,4,0,0,1-1.69,2c1.71.24,4.27-.55,5.09,1.5a3.41,3.41,0,0,0-2.73,0,3.55,3.55,0,0,0-1.93,1.82A3.79,3.79,0,0,1,381.5,292.14Z"/><path class="cls-1" d="M382.67,298h0a2.77,2.77,0,0,0-3-2.17l1.32-1.75v0h0l-.65-.17a.39.39,0,0,1,.2-.25h0c-1.18-1-2.56.29-3.81.41l0,0c1.26-.12,2.62-1.42,3.8-.44a.41.41,0,0,0-.2.28h0l.65.17-1.3,1.74h0a2.81,2.81,0,0,1,3,2.16,6.13,6.13,0,0,0-4.73-.88A6.07,6.07,0,0,1,382.67,298Z"/><path class="cls-1" d="M376.76,294.65c-1,.75-2,1.52-3,2.28a18.91,18.91,0,0,1,2.28-6,16.73,16.73,0,0,0-2.4,6.2C374.66,296.3,375.72,295.49,376.76,294.65Z"/><path class="cls-1" d="M372.65,297.84c.07.08.15.22.22.32a21.57,21.57,0,0,1,.76-7.37,19,19,0,0,0-.85,7.11,1.7,1.7,0,0,1-.23-.3l-1.31-2.13L371,295c-.08-.13-.22-.29-.14-.45-.08.16.06.32.13.46l.25.43.5.87.51.86C372.33,297.35,372.51,297.75,372.65,297.84Z"/><path class="cls-1" d="M306.66,298.1l.39-.1-.37.08Z"/><path class="cls-1" d="M305.86,300.51v.09a.22.22,0,0,0,0,.08A1,1,0,0,1,305.86,300.51Z"/><path class="cls-1" d="M295.57,298a2.77,2.77,0,0,1,2.95-2.17h0l-1.3-1.74.65-.17h0a.4.4,0,0,0-.21-.28c1.18-1,2.55.32,3.81.44l0,0c-1.25-.12-2.63-1.41-3.81-.41h0a.39.39,0,0,1,.2.25l-.65.17h0v0s1.32,1.79,1.32,1.73a2.78,2.78,0,0,0-2.95,2.19,6.06,6.06,0,0,1,4.72-.89A6,6,0,0,0,295.57,298Z"/><path class="cls-1" d="M306.46,298.15l.16,0,0,0Z"/><path class="cls-1" d="M299.52,292.14a3.41,3.41,0,0,0-2.73,0c.82-2.05,3.38-1.26,5.09-1.5a4,4,0,0,1-1.69-2l1.46.5h0l.22,0-.22-.08c-.11,0-.12-.19-.06-.28a.29.29,0,0,1,.33-.09c.48.19,1.64.87,2.12,1.1l0,0v-.06a2.29,2.29,0,0,1,.42-1.31,2.19,2.19,0,0,1,.64,1.71,2.58,2.58,0,0,1,1.49-1.73c.14,0,.36-.17.44,0s0,.1,0,.09h0l-.31.1a3.11,3.11,0,0,0,.32,0h0a9.49,9.49,0,0,1,5.36-.07l-3.39,1h0l0,.09h0a3.86,3.86,0,0,1,1.58-.19c.12,0,.25.07.26.18,0,.48-.65.24-.95.53l0,0a9.68,9.68,0,0,0,1.39.81h-.52a4.34,4.34,0,0,1,2.37,2.74,12.4,12.4,0,0,0-2.79-.18,4.29,4.29,0,0,0-2.59,1l-.05,0h0a2.41,2.41,0,0,0-.24.21l.27-.16a4.92,4.92,0,0,1,4.51-.13,36,36,0,0,0-5.31,1.27h0v.05a9.87,9.87,0,0,1,4.51-.32,4.19,4.19,0,0,1,3.26,2.85,14.24,14.24,0,0,0-7.67-.27,15.31,15.31,0,0,1,7.69.28h0a3.6,3.6,0,0,0-1.25-1.92c-1.54-1.3-3.6-1.29-5.51-.92a34.17,34.17,0,0,1,4.35-1l.1,0-.09,0a5,5,0,0,0-4.3-.1c1.46-1,3.44-.79,5.13-.55h.06l0-.06a4.36,4.36,0,0,0-2.12-2.69h.57a9.3,9.3,0,0,1-1.63-.91c.27-.18.93,0,.93-.57a.37.37,0,0,0-.35-.26,3.75,3.75,0,0,0-.67,0l2.63-.76.14,0a9.63,9.63,0,0,0-5.6,0,.1.1,0,0,0,0-.08.18.18,0,0,0-.17-.12,2.1,2.1,0,0,0-1,.47,2.62,2.62,0,0,0-.77,1.09,2.14,2.14,0,0,0-.7-1.48,2.32,2.32,0,0,0-.48,1.37c-.52-.26-1.61-.9-2.1-1.08a.33.33,0,0,0-.39.11.32.32,0,0,0,0,.27l-1.37-.48h0a4,4,0,0,0,1.64,2.05c-1.7.18-4.25-.5-5,1.56a3.79,3.79,0,0,1,4.71,1.82A3.55,3.55,0,0,0,299.52,292.14Z"/><path class="cls-1" d="M306.68,298.08h0l.94-.32h0a1.37,1.37,0,0,0-.95.32l-.22.07.19,0h0Zm.85-.31-.8.27A1.35,1.35,0,0,1,307.53,297.77Z"/><path class="cls-1" d="M306.3,298.51a1.54,1.54,0,0,1,.36-.41h0A1.76,1.76,0,0,0,306.3,298.51Z"/><path class="cls-1" d="M305.86,300.51a5.65,5.65,0,0,1,.21-1.53A3.88,3.88,0,0,0,305.86,300.51Z"/><path class="cls-1" d="M301.45,294a.25.25,0,0,1,0,.07h0S301.46,294,301.45,294Z"/><path class="cls-1" d="M304.52,296.93c-1-.76-2-1.53-3-2.28,1,.84,2.1,1.65,3.16,2.47a16.73,16.73,0,0,0-2.4-6.2A18.91,18.91,0,0,1,304.52,296.93Z"/><path class="cls-1" d="M307,295.48l.25-.43c.07-.14.21-.3.13-.46.08.16-.06.32-.14.45l-.27.43c-.37.61-.92,1.52-1.3,2.13a1.7,1.7,0,0,1-.23.3,19,19,0,0,0-.85-7.11,21.57,21.57,0,0,1,.76,7.37c.07-.1.15-.24.22-.32a3.46,3.46,0,0,0,.42-.63l.51-.86Z"/><path class="cls-1" d="M276.07,292.14c-.74-2.06-3.3-1.38-5-1.56a4.06,4.06,0,0,0,1.65-2.05h-.06l-1.37.48a.32.32,0,0,0,0-.27.33.33,0,0,0-.39-.11c-.5.18-1.58.82-2.1,1.08a2.38,2.38,0,0,0-.47-1.37,2.14,2.14,0,0,0-.7,1.48,2.74,2.74,0,0,0-.78-1.09c-.2-.15-1-.71-1.17-.35,0,0,0,.05,0,.08a9.59,9.59,0,0,0-5.59,0l.14,0,2.54.74c-.43,0-.85,0-.92.27,0,.53.65.39.92.57a9.3,9.3,0,0,1-1.63.91h.57a4.4,4.4,0,0,0-2.12,2.69l0,.06h.06c1.69-.24,3.67-.48,5.13.55a5,5,0,0,0-4.3.1l-.09,0,.1,0a34.17,34.17,0,0,1,4.35,1c-1.9-.37-4-.38-5.51.92a3.6,3.6,0,0,0-1.25,1.92h0a15.31,15.31,0,0,1,7.69-.28,14.28,14.28,0,0,0-7.68.27,4.19,4.19,0,0,1,3.26-2.85,9.86,9.86,0,0,1,4.51.32v-.05h0a35.68,35.68,0,0,0-5.31-1.27,4.92,4.92,0,0,1,4.51.13l.27.16a2.41,2.41,0,0,0-.24-.21h0l0,0c-1.46-1.25-3.59-1.07-5.39-.8a4.31,4.31,0,0,1,2.19-2.66l.18-.08h-.52a9.68,9.68,0,0,0,1.39-.81c-.22-.26-.59-.17-.81-.3a.28.28,0,0,1-.18-.27c0-.11.14-.16.26-.18a3.86,3.86,0,0,1,1.58.19h0l0-.09h0l-3.4-1a9.49,9.49,0,0,1,5.36.07h0l.31,0-.31-.1h0c-.09,0,0-.17.07-.16A2.47,2.47,0,0,1,267.6,290l.06.2V290a2.12,2.12,0,0,1,.64-1.5,2.29,2.29,0,0,1,.42,1.31c0,.06,0,.07,0,0,.48-.24,1.65-.92,2.12-1.1a.29.29,0,0,1,.33.09c.06.1,0,.27-.06.28l-.22.08.22,0h0l1.46-.5a4,4,0,0,1-1.69,2c1.71.24,4.27-.55,5.09,1.5a3.41,3.41,0,0,0-2.73,0,3.55,3.55,0,0,0-1.93,1.82A3.79,3.79,0,0,1,276.07,292.14Z"/><path class="cls-1" d="M271.32,294h0s0,0,0-.07S271.33,294,271.32,294Z"/><path class="cls-1" d="M266.17,298.09h0l.19,0-.22-.07a1.33,1.33,0,0,0-.37-.2,1.12,1.12,0,0,1,.31.18l-.89-.3.26,0a1.15,1.15,0,0,0-.26,0h0l.94.32h.05Z"/><path class="cls-1" d="M266.13,298.08l-.36-.08.38.1Z"/><path class="cls-1" d="M267,300.51a4,4,0,0,0-.21-1.54A5.78,5.78,0,0,1,267,300.51Z"/><path class="cls-1" d="M266.35,298.15l-.18-.06,0,0Z"/><path class="cls-1" d="M267,300.68a.22.22,0,0,1,0-.08v.08Z"/><path class="cls-1" d="M266.52,298.51a1.8,1.8,0,0,0-.33-.4h0A1.79,1.79,0,0,1,266.52,298.51Z"/><path class="cls-1" d="M277.24,298h0a2.75,2.75,0,0,0-2.95-2.17l1.31-1.75v0h0l-.65-.17a.39.39,0,0,1,.2-.25h0c-1.17-1-2.56.29-3.81.41l0,0c1.26-.12,2.63-1.42,3.81-.44a.43.43,0,0,0-.21.28h0l.65.17-1.3,1.74h0a2.81,2.81,0,0,1,3,2.16,6.13,6.13,0,0,0-4.73-.88A6.06,6.06,0,0,1,277.24,298Z"/><path class="cls-1" d="M271.33,294.65c-1,.75-2,1.52-3,2.28a18.69,18.69,0,0,1,2.29-6,16.58,16.58,0,0,0-2.41,6.2C269.23,296.3,270.29,295.49,271.33,294.65Z"/><path class="cls-1" d="M267.22,297.84a2.57,2.57,0,0,1,.22.32,21.57,21.57,0,0,1,.76-7.37,19.46,19.46,0,0,0-.85,7.11,1.7,1.7,0,0,1-.23-.3c-.38-.61-.92-1.52-1.3-2.13l-.27-.43c-.07-.13-.21-.29-.14-.45-.08.16.06.32.13.46l.25.43.5.87.51.86C266.9,297.35,267.08,297.75,267.22,297.84Z"/><path class="cls-1" d="M220.45,55.57h0c0-6,0-18.17,0-24.21Z"/><path class="cls-1" d="M220.46,88.79v16.26h0C220.5,101,220.5,92.85,220.46,88.79Z"/><path class="cls-1" d="M353.43,95.34v2.23A12.77,12.77,0,0,0,353.43,95.34Z"/><path class="cls-1" d="M207.39,182.46h0c0-9.75,0-29.37,0-39.12Z"/><path class="cls-1" d="M220.45,160.45h0c0-4,0-12.2,0-16.25Z"/><path class="cls-1" d="M194,256.84v14.75h0C194,267.92,194,260.52,194,256.84Z"/><path class="cls-1" d="M194,273.7v3.55A32.32,32.32,0,0,0,194,273.7Z"/><path class="cls-1" d="M194,280.47v2.25A13,13,0,0,0,194,280.47Z"/><path class="cls-1" d="M220.46,257.7v7.5C220.53,262.72,220.51,260.2,220.46,257.7Z"/><path class="cls-1" d="M216.84,30.56c2.3.06,4.59.11,6.89.12C221.45,30.63,219.15,30.58,216.84,30.56Z"/><path class="cls-1" d="M229,30.56c-1.38.12-2.8.12-4.19.13h-1.1l1.1,0C226.23,30.69,227.63,30.7,229,30.56Z"/><path class="cls-1" d="M223.73,87.77l1.1,0c1.4,0,2.8,0,4.19-.14-1.38.12-2.8.12-4.19.13Z"/><path class="cls-1" d="M168.22,88.44c16-.24,32.58-.92,48.62-.79-1.53,0-3.06-.07-4.59-.08C198.19,87.55,182.66,88.2,168.22,88.44Z"/><path class="cls-1" d="M223.73,87.77c-2.29-.06-4.58-.1-6.89-.12C219.13,87.7,221.43,87.76,223.73,87.77Z"/><path class="cls-1" d="M216.84,143.05c-1.53,0-3.06-.07-4.59-.08-14.06,0-29.59.63-44,.87C184.22,143.6,200.8,142.92,216.84,143.05Z"/><path class="cls-1" d="M216.84,143.05c2.3.06,4.59.11,6.89.12Q220.31,143.08,216.84,143.05Z"/><path class="cls-1" d="M229,143.05c-1.38.12-2.8.12-4.19.13h-1.1l1.1,0C226.23,143.18,227.63,143.19,229,143.05Z"/><path class="cls-1" d="M229,201c-1.38.12-2.8.12-4.19.13h-1.1l1.1,0C226.23,201.11,227.63,201.12,229,201Z"/><path class="cls-1" d="M216.84,201c2.3.06,4.59.11,6.89.12C221.45,201.05,219.15,201,216.84,201Z"/><path class="cls-1" d="M216.84,201c-1.53,0-3.06-.07-4.59-.08-14.06,0-29.59.63-44,.87C184.22,201.53,200.8,200.85,216.84,201Z"/><path class="cls-1" d="M216.84,256.55c2.3.06,4.59.11,6.89.12C221.45,256.62,219.15,256.57,216.84,256.55Z"/><path class="cls-1" d="M216.84,256.55c-1.53,0-3.06-.07-4.59-.08-14.06,0-29.59.64-44,.87C184.22,257.1,200.8,256.42,216.84,256.55Z"/><path class="cls-1" d="M229,256.55c-1.38.12-2.8.12-4.19.13h-1.1l1.1,0C226.23,256.68,227.63,256.69,229,256.55Z"/><path class="cls-1" d="M152.18,32.83c.64-.22,1.3-.38,1.95-.55a19.47,19.47,0,0,0-1.95.54c-1.75.56-4.34,1.9-3.8,4,0,2.9,0,7,0,10v-10C147.9,34.67,150.47,33.42,152.18,32.83Z"/><path class="cls-1" d="M307.15,47.22a63.41,63.41,0,0,1-16.36-2.42,62.91,62.91,0,0,0,16.36,2.47c7.06-.25,14.19-2.13,21.24-.69h0C321.35,45.12,314.21,47,307.15,47.22Z"/><path class="cls-1" d="M283.53,76.32h0c-9.41-1.08-18.52-4-27.36-7.25C265,72.42,274.13,75.29,283.53,76.32Z"/><path class="cls-1" d="M339.45,72.23l-5.32,1.24a187.11,187.11,0,0,1-41.61,4,183.1,183.1,0,0,0,41.62-4l5.32-1.26,5.27-1.44,5.21-1.66c-1.17.35-4.07,1.29-5.22,1.64Z"/><path class="cls-1" d="M227.45,98.15a28.39,28.39,0,0,1,3.11-1.7,27.62,27.62,0,0,0-3.12,1.68,18.1,18.1,0,0,0-3.67,3,13.91,13.91,0,0,0-3.5,6.74A15.41,15.41,0,0,1,227.45,98.15Z"/><path class="cls-1" d="M260.19,152.08c5.67.45,13.66,1.28,19.41,1.8h0c-5.71-.54-13.76-1.39-19.4-1.85a79.32,79.32,0,0,0-9.75-.08,31.6,31.6,0,0,0-9.55,1.74,32.19,32.19,0,0,1,9.55-1.71A79.12,79.12,0,0,1,260.19,152.08Z"/><path class="cls-1" d="M143.37,54.4l.24-.1c-2.73-6.85-5.26-13.89-6.36-21.2A18.62,18.62,0,0,1,142,17.84c3.86-4,9.45-5.85,14.92-6.25a48.53,48.53,0,0,1,11,.55c7.31,1.15,14.57,2.63,21.86,4,10.92,2.05,21.91,3.83,33,4.88a216.82,216.82,0,0,0,44.41-.14c3.69-.44,7.37-.91,11-1.56,29.16-5.22,58.5-9.51,88-12,11.06-.82,22.18-1.56,33.26-.81,3.62.36,7.45.61,10.7,2.37a3.93,3.93,0,0,1,1.73,2,13.48,13.48,0,0,1,1.39,5.28c.19,1.8-.58,3.92.64,5.5,2.44,2.69,9.71,3.07,13.18,4.1a14.65,14.65,0,0,1,5,2.25c3.59,2.66,1.56,6.82-1.05,9.32l.18.2a12.14,12.14,0,0,0,1.86-2.12c1.94-2.65,2-5.77-.62-7.88-3.13-2.43-7.09-3-10.61-3.74a31.84,31.84,0,0,1-5.19-1.53c-1.68-.71-2.51-1.47-2.3-3.31a17.12,17.12,0,0,0-.29-5.83,12.15,12.15,0,0,0-1.86-4.28,9,9,0,0,0-4.15-2.38c-6.39-1.84-13.13-1.87-19.7-2-4.55,0-9.1.12-13.64.32a24.74,24.74,0,0,0-8.48.47c-2.63.17-5.26.38-7.89.6a22.11,22.11,0,0,0-5.52-2.2c-8.05-2.15-16.55-1.43-24.67,0L327,3.92l-2.55.55a91.3,91.3,0,0,1-24.94,2.32C278.19,6,257.13,1.05,235.81.11a51.82,51.82,0,0,0-17.06,1.54c-3.84,1.2-7.72,3.25-9.89,6.79a12.38,12.38,0,0,0-1.67,8.33c-13-1.87-26-4.46-38.94-6.41-11.13-1.69-25.19-.09-30.39,11.49-3.46,7.22-1,15.11,1.36,22.21Q141.08,49.33,143.37,54.4ZM209.61,9c5.24-7.42,17.82-7.44,26-6.85C257,3.67,278,8.74,299.43,9.28A91.37,91.37,0,0,0,319.9,7.54c5.85-1.33,11.59-3,17.57-3.6s12-.65,17.76,1.08c.81.26,1.63.55,2.42.89q-6.87.58-13.74,1.3c-18.46,2-36.85,4.52-55.15,7.6L277.81,16.7A212.33,212.33,0,0,1,223,18.61c-5.14-.42-10.3-1.05-15.45-1.78A12,12,0,0,1,209.61,9Z"/><path class="cls-1" d="M258.69,37.45c1.65.13,4,.34,5.6.54a95.21,95.21,0,0,1,13.36,2.59,97,97,0,0,0-13.35-2.65c-1.63-.2-3.95-.4-5.61-.52-5.63-.27-11.22,1-16.62,2.51C247.46,38.49,253.06,37.16,258.69,37.45Z"/><path class="cls-1" d="M424.22,31.78h-.76v31c-.9-.12-1.8-.22-2.7-.32-2.86-.33-5.73-.53-8.59-.62.23-5.83.1-13.89.13-19.45,0-5.78.12-14.35-.17-20.2a3.87,3.87,0,0,0,.65,1.3,9.38,9.38,0,0,0,4.35,2.68,38.45,38.45,0,0,0,4.95,1.33c3.39.74,14.34,3.61,8.07,8.09,6.28-4.42-4.44-7.41-8-8.22A39.37,39.37,0,0,1,417.19,26,9.12,9.12,0,0,1,413,23.36c-1.66-2.29.14-5-3-6.81-2.25-1.3-4.86-1.65-7.35-2.29-16.61-3.81-33.87-5.69-50.9-4-17,2-33.06,8.46-49.47,13.06-6.59,1.68-13.44,2.17-20.21,2.61a269.13,269.13,0,0,1-40.85-.79C220.88,22.77,200.46,20,179.94,21a87.69,87.69,0,0,0-10.21,1.07c-3.36.64-6.66,1.42-10.06,1.81s-6.79.66-10.18,1.1-7.29,1.2-8.79,4.58a11.11,11.11,0,0,0-.93,5.05,26.08,26.08,0,0,0,1,5c.89,3.29,1.86,6.57,2.76,9.86-.85-3.31-1.78-6.59-2.63-9.9a26.86,26.86,0,0,1-.89-5,11.22,11.22,0,0,1,1-4.92,6.39,6.39,0,0,1,3.65-3.25,21.18,21.18,0,0,1,4.94-1.1c2.24-.26,4.5-.45,6.75-.67-.3,6.09-.14,15.07-.17,21.16,0,5.49-.09,13.77.11,19.7a13.61,13.61,0,0,0-5.58,4,5.13,5.13,0,0,0-.87,4.18l.11.57a3,3,0,0,1,0,.52c-.21,2-2.19,3.67-4.55,5V32.28h-.76v48a40.61,40.61,0,0,1-6.37,2.59l.06.26a41.63,41.63,0,0,0,4.87-1.65c.45-.2.94-.42,1.44-.66V81h.76v-.6c2.42-1.22,4.94-2.94,5.3-5.53a4.85,4.85,0,0,0-.12-1.31c-.61-3.43,2.51-5.59,5.74-6.93,0,.19,0,.38,0,.56,0-.18,0-.38,0-.58a31.84,31.84,0,0,1,3.81-1.26l.66-.15v.13s0-.09,0-.14c6.41-1.55,13.08-1.46,19.64-1.76h.09v.43h0v-.43c2.39-.07,5.21-.11,7.58-.12,1.94,0,3.89,0,5.84.09v.46h0V63.4a212.21,212.21,0,0,1,32.31,3.34c6.61,1.23,13.47,2.87,19.91,4.71,8,2.42,16.42,5.29,24.44,7.65,34.94,10.54,46.22,7.94,79.91-3.73,22.55-7.46,46.17-13.93,70.13-11.77,6.76.58,13.64,1.34,20,3.84,2.29,1,4.71,2.21,6,4.43a3.39,3.39,0,0,1,.44,2.36l.25.08c.65-3.58-3.43-6.06-6.45-7.43a62.8,62.8,0,0,0-16.68-4Zm-138,7.79c0-3.77.12-9.34-.16-13.17,1.48-.12,3-.26,4.45-.42-.28,4.05-.13,9.89-.17,13.88s-.11,9.84.17,13.87c-1.47-.31-3-.64-4.45-1C286.33,48.89,286.19,43.35,286.22,39.57ZM207.39,62.13q-6.69-.52-13.41-.58c0-8.7,0-23.08,0-30.76q6.74-.15,13.43-.21ZM231.77,45.8c0,5.5-.09,13.79.12,19.73a204.11,204.11,0,0,0-24.48-3.4c0-8.7,0-23.76,0-31.55q4.74,0,9.44,0c-1.53,0-3.06-.07-4.59-.08l-4.85,0c-4.4,0-8.89.12-13.43.23v0c-8.62.21-17.37.49-25.75.62,8.48-.12,17.11-.37,25.75-.56V61.55q-4.2,0-8.42.09c-1.66,0-3.33.11-5,.19,0-8.55,0-23,0-30.47V61.84c-2.61.12-5.22.28-7.83.44-1.44.08-3.12.22-4.9.43,0-8.41,0-23.61,0-31.35V62.71A57,57,0,0,0,160.85,64c.23-5.75.1-13.63.13-19.08,0-5.87.13-14.67-.19-20.46-.32,5.82-.15,14.56-.19,20.46,0,5.44-.1,13.37.13,19.12a30.53,30.53,0,0,0-4.36,1.45c.2-5.94.09-14.15.11-19.64,0-6.07.13-15.11-.17-21.16,1.13-.11,2.27-.23,3.41-.37,3.39-.37,6.75-1.15,10.09-1.76a86.52,86.52,0,0,1,10.16-1c17.39-.7,34.71,1.19,52,3.23C231.65,30.81,231.81,39.74,231.77,45.8Zm4.5,1.16c0,5.42-.09,13.54.1,19.52-1.45-.33-2.89-.63-4.34-.92.21-6,.09-14.23.12-19.76,0-6,.12-15-.18-21.07l4.48.54C236.14,31.44,236.3,40.7,236.27,47ZM411.92,42.4c0,5.54-.1,13.64.13,19.44-1.46,0-2.92-.06-4.38-.05.24-5.82.1-13.85.13-19.39,0-5.93.13-14.82-.19-20.66-.14,2.65-.18,5.9-.19,9.22-15.85,0-47.37,0-63.2,0,0-1.85-.08-3.61-.18-5.13-.31,5.21-.15,13-.18,18.32s-.13,13.14.18,18.32c.32-5.21.16-13,.19-18.32,0-3.72,0-8.73,0-13.19h63.2c0,4,0,8.16,0,11.43,0,5.52-.1,13.59.14,19.39a126.2,126.2,0,0,0-13.59.89c0-8.49,0-23.55,0-31.25V62.68c-4.57.53-9.12,1.29-13.64,2.21,0-9.08,0-25.21,0-33.46V64.89q-5.42,1.11-10.74,2.5c-.84.21-1.67.44-2.51.66,0-10.13,0-27.62,0-36.62V68.06c-4.57,1.2-9.1,2.55-13.62,4,0-11,0-30.61,0-40.61V72c-9.31,2.94-18.54,6.12-27.93,8.6a90.57,90.57,0,0,1-9.79,1.93c-8.38,1.21-16.76.49-25-1.1.13-3.16,0-7,.06-9.79,0-.79,0-1.67,0-2.6q17.4.77,34.82,0-17.4-.76-34.82,0c0-3.08,0-6.68-.19-9.25-.32,3.37-.15,8.44-.19,11.86,0,2.75-.06,6.6.06,9.74-1.41-.27-2.82-.58-4.23-.9.12-3.12,0-6.87.05-9.58,0-3.42.13-8.52-.19-11.88-.26,2.81-.19,6.78-.18,10a262.66,262.66,0,0,0-28.34,0,260.11,260.11,0,0,0,28.34,0v1.86c0,2.68-.07,6.42,0,9.52-4.9-1.12-9.75-2.47-14.55-3.84-4.54-1.33-10.14-3.06-14.62-4.51-6.63-2.2-13.38-4.06-20.19-5.59.19-6,.08-14.11.1-19.56,0-6.23.13-15.56-.19-21.69l4.69.55a265.61,265.61,0,0,0,41,.85l3.9-.27c-.28,3.85-.13,9.38-.16,13.17V41a15.64,15.64,0,0,0-6.74,0l-1-.27c.71.2,1.41.41,2.11.63l-1-.34a15.63,15.63,0,0,0,6.67,0c0,.75,0,1.56,0,2.38l-.19-.07.19.07c0,3.17,0,6.66.17,9.33-2.82-.67-5.68-1.42-8.54-2.27a74.63,74.63,0,0,0-20.82-2.85,66.1,66.1,0,0,0-9.35.59l.12.74.17,0a67.54,67.54,0,0,1,9.06-.55,73.56,73.56,0,0,1,20.6,2.82C290.19,55,303,57.1,312.81,57.1a54.36,54.36,0,0,0,5.44-.25c3.73-.37,6.9-.68,9.19-.68a9.5,9.5,0,0,1,3,.34,1.52,1.52,0,0,1,.68.4.72.72,0,0,1,.18.51,1.81,1.81,0,0,1-.24.86,6.79,6.79,0,0,1-.82,1.27,3.87,3.87,0,0,0-.95,2.25,2.16,2.16,0,0,0,.39,1.22,4.78,4.78,0,0,0,2,1.46A32.22,32.22,0,0,0,336.32,66a32.58,32.58,0,0,1,4.74,1.54,36,36,0,0,0,4.39,1.73,6.14,6.14,0,0,0,1.7.34,1,1,0,0,0,.24,0l-.13-.46,0-.21V68.8h-.07a6,6,0,0,1-1.48-.31,34.39,34.39,0,0,1-4.3-1.7A64.36,64.36,0,0,0,334,64.51a12,12,0,0,1-2.88-1.21,2.72,2.72,0,0,1-.78-.71,1.35,1.35,0,0,1-.25-.79,3.08,3.08,0,0,1,.79-1.79,7.37,7.37,0,0,0,.9-1.4,2.73,2.73,0,0,0,.32-1.19,1.5,1.5,0,0,0-.38-1,2.94,2.94,0,0,0-1.64-.78,12.94,12.94,0,0,0-2.6-.21c-2.36,0-5.53.32-9.26.69-1.66.16-3.45.25-5.37.25a113.17,113.17,0,0,1-22.26-2.61c.26-3.69.16-8.84.17-12.75q17.4.76,34.82,0-17.4-.78-34.82,0V39.86c0-4,.12-9.85-.17-13.88,2.31-.25,4.61-.54,6.86-.9a111.64,111.64,0,0,0,14.86-4c14.57-4.63,29.26-9.7,44.63-10.63,16.17-.94,32.41,1,48.16,4.76a16.67,16.67,0,0,1,4.78,1.62c2.35,1.29,1.75,3.35,2.26,5.26C411.8,27.93,412,36.55,411.92,42.4Z"/><path class="cls-1" d="M339.55,25.83c-.32,5.39-.15,13.5-.19,19s-.12,13.61.19,19c.31-5.4.15-13.51.19-19S339.86,31.19,339.55,25.83Z"/><path class="cls-1" d="M339.55,140.4c-.32,3.09-.15,7.74-.19,10.89,0,1.42,0,3.16,0,4.92-7.37-.57-14.78-.19-22.16,0s-14.82.34-22.21,0c7.38.41,14.81.33,22.21.09s14.79-.64,22.16-.08c0,2.12,0,4.28.2,6,.31-3.1.15-7.75.19-10.89S339.87,143.47,339.55,140.4Z"/><path class="cls-1" d="M339.36,175.9v1.2c.06.41.11.81.19,1.21.07-.4.12-.8.19-1.21v-7.25c-.06-.4-.11-.8-.19-1.21-.08.41-.13.81-.19,1.21v6.05Z"/><path class="cls-1" d="M343.86,177.94v1.55c.06.51.11,1,.18,1.55.08-.52.13-1,.19-1.55v-9.3c-.07-.51-.12-1-.2-1.55-.07.52-.12,1-.19,1.55v7.75Z"/><path class="cls-1" d="M290.34,100.89c.07.62.11,1.23.19,1.85.08-.62.13-1.23.19-1.85v-3.3c15.71.73,31.52,1.49,47.25.59h0c-15.74.85-31.52.07-47.25-.59V91.31q17.4.78,34.82,0-17.4-.78-34.82,0V89.79c-.06-.62-.11-1.24-.19-1.85-.08.61-.13,1.23-.19,1.85v11.1Z"/><path class="cls-1" d="M236.45,256.49c-.31,3.49-.15,8.75-.18,12.3s-.13,8.82.18,12.29c.32-3.49.16-8.75.19-12.29S236.77,260,236.45,256.49Z"/><path class="cls-1" d="M231.77,297.16c0,3.33-.13,8.32.19,11.59.31-3.29.15-8.25.19-11.59s.12-8.32-.19-11.59C231.64,288.86,231.81,293.82,231.77,297.16Z"/><path class="cls-1" d="M236.27,297.16c0,3.33-.13,8.32.18,11.59.32-3.29.16-8.25.19-11.59s.13-8.32-.19-11.59C236.14,288.86,236.3,293.82,236.27,297.16Z"/><path class="cls-1" d="M160.79,252.21c-.32,4.25-.15,10.64-.19,15s-.12,10.73.19,14.95c.32-4.25.15-10.64.19-14.95S161.11,256.44,160.79,252.21Z"/><path class="cls-1" d="M156.29,183.85c.32-6.17.16-15.44.19-21.7s.12-15.66-.19-21.7c-.3,6.07-.15,15.57-.18,21.7S156,177.71,156.29,183.85Z"/><path class="cls-1" d="M412.11,255.92c-.32,4-.15,9.91-.19,13.93s-.12,10,.19,13.93c.31-4,.15-9.91.19-13.93S412.43,259.86,412.11,255.92Z"/></g></g></svg>