<svg xmlns="http://www.w3.org/2000/svg" viewBox="0 0 764.85 557"><defs><style>.cls-1{fill:#4e4e50;}</style></defs><g id="Layer_2" data-name="Layer 2"><g id="Layer_1-2" data-name="Layer 1"><path class="cls-1" d="M172,521.76H163.6v.35c1.28.53,1.72,1.54,1.72,4.3v20.28c0,2.76-.44,3.77-1.72,4.3v.35h6.54V551c-1.27-.53-1.71-1.54-1.71-4.3V522.86h2.37c5.88,0,9.44,2.41,9.44,7.63,0,5-3.38,7.9-10.1,8.08v.35a11.15,11.15,0,0,0,2.46.22c6,0,11.19-2.85,11.19-8.95C183.79,524.92,179.67,521.76,172,521.76Z"/><path class="cls-1" d="M218.64,546.56l-10.4-25.28h-.4L198,544.58c-1.71,4.08-3.07,5.57-4.78,6.41v.35h7V551c-1.23-.75-2-2.24-.31-6.58l1-2.42h12.64l1.62,4c1.27,3.11.79,4.43-.31,5v.35H222V551C220.7,550.24,219.87,549.5,218.64,546.56Zm-17.34-5.62,5.8-14.66,6,14.66Z"/><path class="cls-1" d="M245,550.29h-3c-2.55,0-3.56-.88-3.56-2.94V526.41c0-2.76.44-3.77,1.71-4.3v-.35H233.6v.35c1.28.53,1.72,1.54,1.72,4.3v20.28c0,2.76-.44,3.77-1.72,4.3v.35h19.53v-7.59h-.44C251.64,548.88,250.15,550.29,245,550.29Z"/><path class="cls-1" d="M281.7,547.48l-12.2-25.72h-4.74v.35c1.67.75,2.64,2.24,2.59,7.07l-.13,14.57c0,4.43-1.23,6.54-2.68,7.24v.35h7V551c-1.53-.79-2.68-2.59-2.76-7.29l-.31-16.94,11.89,25h.57l11.28-26.11v21c0,2.76-.44,3.77-1.71,4.3v.35H297V551c-1.27-.53-1.71-1.54-1.71-4.3V526.41c0-2.76.44-3.77,1.71-4.3v-.35h-4.83Z"/><path class="cls-1" d="M333.45,522.11c1.27.53,1.71,1.54,1.71,4.3v18.52c0,5.88-.92,9.13-3.69,11.81l.13.26c5.45-2.63,6.67-4.61,6.67-11.15V526.41c0-2.76.44-3.77,1.72-4.3v-.35h-6.54Z"/><path class="cls-1" d="M372.77,522.11c1.53.79,2.85,2.37,2.89,7l.14,12.73c0,5.62-3,8.29-8,8.29-5.18,0-8.29-2.45-8.29-8.73v-15c0-2.76.43-3.77,1.71-4.3v-.35h-6.54v.35c1.27.53,1.71,1.54,1.71,4.3v15.45c0,7.07,4.69,9.88,11,9.88,5.66,0,9.44-3,9.57-9.84l.22-12.72c.08-4.52,1.58-6.36,3-7.07v-.35h-7.41Z"/><path class="cls-1" d="M409.68,547.48l-12.2-25.72h-4.74v.35c1.67.75,2.63,2.24,2.59,7.07l-.13,14.57c-.05,4.43-1.23,6.54-2.68,7.24v.35h7V551c-1.54-.79-2.68-2.59-2.77-7.29l-.31-16.94,11.9,25h.57l11.28-26.11v21c0,2.76-.44,3.77-1.72,4.3v.35H425V551c-1.27-.53-1.71-1.54-1.71-4.3V526.41c0-2.76.44-3.77,1.71-4.3v-.35h-4.82Z"/><path class="cls-1" d="M452.34,550.29h-3.6c-2.55,0-3.56-.88-3.56-2.94V536.68l5.18.18c2.72.09,3.95,1,4.61,3.73h.35v-8.82H455c-.62,2.76-1.76,3.86-4.48,4l-5.31.17v-13h6.23c4.79,0,6.67,1.18,7.95,4.78h.44v-5.88H440.35v.35c1.28.53,1.72,1.54,1.72,4.3v20.28c0,2.76-.44,3.77-1.72,4.3v.35h20.1v-6.71H460C459,549.06,457.47,550.29,452.34,550.29Z"/><path class="cls-1" d="M473.62,522.11c1.27.53,1.71,1.54,1.71,4.3v20.28c0,2.76-.44,3.77-1.71,4.3v.35h6.54V551c-1.27-.53-1.71-1.54-1.71-4.3V526.41c0-2.76.44-3.77,1.71-4.3v-.35h-6.54Z"/><path class="cls-1" d="M510.53,543,506,537.69c5.14-.61,9.31-3.25,9.31-8.25,0-4.74-3.95-7.68-11.32-7.68h-8.43v.35c1.27.53,1.71,1.54,1.71,4.3v20.28c0,2.76-.44,3.77-1.71,4.3v.35h6.54V551c-1.27-.53-1.71-1.54-1.71-4.3V522.86h2.37c5.61,0,9,2.28,9,6.89s-3.24,7.33-9.65,7.5v.35l6.32,7.68c4.25,5.23,5.66,6.54,8.12,6.54a3,3,0,0,0,2.45-.92v-.35C517.16,550.07,516.06,549.37,510.53,543Z"/><path class="cls-1" d="M552.26,546.56l-10.4-25.28h-.39l-9.83,23.3c-1.71,4.08-3.07,5.57-4.78,6.41v.35h7V551c-1.23-.75-2-2.24-.31-6.58l1-2.42h12.63l1.63,4c1.27,3.11.79,4.43-.31,5v.35h7.11V551C554.33,550.24,553.49,549.5,552.26,546.56Zm-17.33-5.62,5.79-14.66,6,14.66Z"/><path class="cls-1" d="M586.8,522.11c1.28.53,1.71,1.54,1.71,4.3v9.53H572.06v-9.53c0-2.76.44-3.77,1.71-4.3v-.35h-6.54v.35c1.27.53,1.71,1.54,1.71,4.3v20.28c0,2.76-.44,3.77-1.71,4.3v.35h6.54V551c-1.27-.53-1.71-1.54-1.71-4.3V537h16.45v9.7c0,2.76-.43,3.77-1.71,4.3v.35h6.54V551c-1.27-.53-1.71-1.54-1.71-4.3V526.41c0-2.76.44-3.77,1.71-4.3v-.35H586.8Z"/><path class="cls-1" d="M137.75,393.39l.17-.45-.17.45a6.47,6.47,0,0,1,2,1,4.69,4.69,0,0,1,1.37,1.91v57.16c-13.52-19.85-33.36-48.91-41.63-61.45l-.15-.22-.14-.22H96.81v71l0,.14a5,5,0,0,1-1.42,1.91,6.54,6.54,0,0,1-2,1l-5.27,1.85h20.62l-5.85-1.86a5.88,5.88,0,0,1-1.83-.9,5,5,0,0,1-1.5-2V405.56c21.86,32.37,24.35,36.15,41.73,61.44l.15.22.15.21h2.36V396.32a4.35,4.35,0,0,1,1.42-2,6.14,6.14,0,0,1,1.9-.91l5.85-1.86H132.49Z"/><path class="cls-1" d="M167.58,464.57a6.87,6.87,0,0,1-2,1l-5.26,1.85h41.6V456l-1.95,5.58a5.57,5.57,0,0,1-1,1.81,4.39,4.39,0,0,1-2.11,1.36H176.55V428.22h12.91a5,5,0,0,1,2,1.31,6.09,6.09,0,0,1,1,1.89l1.94,5V416.78l-1.95,5.58a5.57,5.57,0,0,1-1,1.81,4.44,4.44,0,0,1-2.11,1.36H176.55v-31.3h20.39a5.49,5.49,0,0,1,2.06,1.32,5.69,5.69,0,0,1,1,1.88l1.94,5v-10.9H160.21l5.34,1.85.17-.45-.17.45a7.62,7.62,0,0,1,2.24,1.13h0a5,5,0,0,1,1.19,1.83v66.26A5,5,0,0,1,167.58,464.57Z"/><path class="cls-1" d="M334.32,455.9V442.05h-2.53l-.11.31-.12.32c-.33.86-.76,1.61-1.23,2.59a37.28,37.28,0,0,1-33.11,19.47,30.4,30.4,0,0,1-23-10.25,37.24,37.24,0,0,1-9.09-24.93h0v0a37.38,37.38,0,0,1,9.09-25,30.38,30.38,0,0,1,23-10.32,37.25,37.25,0,0,1,32.31,18l.14.24.14.25h2.5V398.52l-1.95,5.58h0a4.85,4.85,0,0,1-1.5,2.38,40.13,40.13,0,0,0-31.63-14.94h0c-22,0-39.72,17-39.72,38h0a36.92,36.92,0,0,0,11.63,26.81,40.6,40.6,0,0,0,28.1,11.09,40.12,40.12,0,0,0,34.13-18.49,5.94,5.94,0,0,1,1,1.87Z"/><path class="cls-1" d="M40.72,392.17h0a38.56,38.56,0,0,0-28.07,10.44,40.19,40.19,0,0,0,4.94,62.5,6.11,6.11,0,0,1-2,.94l-5.33,1.72,14.25.61.08-1.82v-.35l0-.35-.32-.13-.32-.14c-.87-.36-1.62-.83-2.61-1.34A37.14,37.14,0,0,1,2.8,430.32,30.06,30.06,0,0,1,14.33,407.8a38.92,38.92,0,0,1,26-8h0A39.16,39.16,0,0,1,65.69,410a30,30,0,0,1,9.63,23.43A37.06,37.06,0,0,1,55.4,464.91l-.26.13-.26.13-.06,1.5,0,.5,0,.5,14.64.62-5.66-2.19a5.09,5.09,0,0,1-2.39-1.6,39.72,39.72,0,0,0,16.73-30.95h0C79,411.59,62.27,393.1,40.72,392.17Z"/><path class="cls-1" d="M394.19,464.38a.78.78,0,0,1,.48.15c.13.09,2.26,3.11,2.26,3.11v-9.85h-2.61l-.09.36-.09.36a8.15,8.15,0,0,1-5.27,5.93h-.06a2.81,2.81,0,0,1-1,.19,2.94,2.94,0,0,1-1.53-.46,8.72,8.72,0,0,1-2.73-3,30.27,30.27,0,0,1-2.8-6.25c-1.68-5.05-2.75-9.31-4.52-12.8a15,15,0,0,0-5.73-6.33c6.05-.78,11.52-2.39,15.73-5.39,5-3.53,8.06-9,8-16.79v0h0a19.85,19.85,0,0,0-2.73-10.56c-2.66-4.35-7.08-7.24-12.46-9a60,60,0,0,0-18.53-2.49H344.84l5.26,1.85a6.42,6.42,0,0,1,2,1,5,5,0,0,1,1.42,2v66.28a4.62,4.62,0,0,1-1.24,1.83,6.36,6.36,0,0,1-2.19,1.12l-5.6,1.85h25l-5.09-1.84a7,7,0,0,1-2.11-1.1,4.26,4.26,0,0,1-1.25-1.77V436.48h1.19c.53,0,1.15,0,1.76-.07,2.06,1.08,3.55,3.28,4.75,6.18,1.86,4.49,2.95,10.43,5.06,15.4a18.12,18.12,0,0,0,4.3,6.47,11.57,11.57,0,0,0,7.5,3h.79a10.34,10.34,0,0,0,7.15-2.82A.82.82,0,0,1,394.19,464.38Zm-29.52-30.67c-1.53.08-2.64.17-3.1.17h0l-.44,0v-39.6c5.45.08,11.72,1.16,16.6,3.93A17.43,17.43,0,0,1,384,404a16.9,16.9,0,0,1,2.47,9.22c0,7.78-2.87,12.54-7,15.63S369.89,433.24,364.67,433.71Z"/><path class="cls-1" d="M579.66,442.05h-2.52l-.12.31-.12.32c-.33.86-.76,1.61-1.23,2.59a37.26,37.26,0,0,1-33.1,19.47,30.42,30.42,0,0,1-23-10.25,37.19,37.19,0,0,1-9.09-24.88v-.11a37.43,37.43,0,0,1,9.09-24.95,30.38,30.38,0,0,1,23-10.32,37.24,37.24,0,0,1,32.3,18l.14.24.14.25h2.5V398.52l-1.95,5.58v0a1.72,1.72,0,0,1-1.66,1.13,1.83,1.83,0,0,1-1.38-.61,40.17,40.17,0,0,0-30.08-13.11h0c-22,0-39.73,17-39.73,38h0a36.92,36.92,0,0,0,11.63,26.81,41,41,0,0,0,61.17-5.76,1.21,1.21,0,0,1,1-.52,1.14,1.14,0,0,1,1.08.72v0h0l1.94,5.09Z"/><path class="cls-1" d="M691.14,393.39l.17-.45-.17.45a6.59,6.59,0,0,1,2,1,4.86,4.86,0,0,1,1.37,1.91v57.16C681,433.58,661.13,404.52,652.87,392l-.15-.22-.15-.22H650.2v71l0,.14a5.09,5.09,0,0,1-1.42,1.91,6.6,6.6,0,0,1-2,1l-5.26,1.85h20.62l-5.85-1.86a5.78,5.78,0,0,1-1.83-.9,4.93,4.93,0,0,1-1.5-2V405.56c21.86,32.37,24.35,36.15,41.73,61.44l.15.22.15.21h2.36V396.32a4.21,4.21,0,0,1,1.42-2,6,6,0,0,1,1.9-.91l5.84-1.86h-20.6Z"/><path class="cls-1" d="M715.55,391.54V403l2-5.58a5.78,5.78,0,0,1,1-1.82,4.35,4.35,0,0,1,2-1.35h15.76v68.41a4.23,4.23,0,0,1-1.31,1.93,6.65,6.65,0,0,1-2,1l-5.26,1.85h24.89l-5.27-1.85a7.4,7.4,0,0,1-2.07-1,3.93,3.93,0,0,1-1.28-1.87v-68.5h16a4,4,0,0,1,1.94,1.33,10.41,10.41,0,0,1,1.08,1.94l1.91,3.9v-9.86Z"/><path class="cls-1" d="M493.81,450.51a20.88,20.88,0,0,0-4.54-12.6c-4-5.47-9.95-10.06-14.78-15.22s-8.57-10.8-8.57-18.44a9.68,9.68,0,0,1,2.77-6.92,10.41,10.41,0,0,1,7.53-2.9,15.26,15.26,0,0,1,12.84,6.48h0l.15.21.15.21h2.44V390.45l-1.94,5v0a1.34,1.34,0,0,1-1.28.84,1.43,1.43,0,0,1-.74-.21,41.75,41.75,0,0,0-5.32-2.78,16.89,16.89,0,0,0-6.29-1.6h0a18.83,18.83,0,0,0-11.85,3.79c-3.25,2.62-5.36,6.7-5.36,12.22h0a23.19,23.19,0,0,0,4.62,13.51c4.12,5.9,10.19,10.8,15.14,15.95a40,40,0,0,1,6.24,8,18.38,18.38,0,0,1,2.52,9.13h0a8.69,8.69,0,0,1-3.88,7.35,15.55,15.55,0,0,1-8.87,2.55h0A17,17,0,0,1,461,457.8l-.15-.2-.15-.19h-2.51v10.88l1.94-5v0a1.28,1.28,0,0,1,1.2-.8,1.23,1.23,0,0,1,.76.26A19.76,19.76,0,0,0,474.73,467h0a22.21,22.21,0,0,0,12.77-3.78,14.92,14.92,0,0,0,6.28-12.65v0h0Z"/><path class="cls-1" d="M441.37,394.23a5.49,5.49,0,0,1,2.06,1.32,5.89,5.89,0,0,1,1.05,1.88l1.93,5v-10.9H404.64l5.34,1.85.17-.45-.17.45a7.62,7.62,0,0,1,2.24,1.13h0a5.16,5.16,0,0,1,1.2,1.83v66.26a5.06,5.06,0,0,1-1.42,2,6.87,6.87,0,0,1-2,1l-5.27,1.85h41.61V456l-1.95,5.59a5.57,5.57,0,0,1-1,1.81,4.41,4.41,0,0,1-2.1,1.36H421V428.22h12.91a5,5,0,0,1,2,1.31,6.09,6.09,0,0,1,1,1.89l1.94,5V416.78l-2,5.58a5.57,5.57,0,0,1-1,1.81,4.44,4.44,0,0,1-2.11,1.36H421v-31.3Z"/><path class="cls-1" d="M596.25,393.39l.17-.45-.17.45a7.69,7.69,0,0,1,2.25,1.13h0a4.91,4.91,0,0,1,1.2,1.83v66.26a5.06,5.06,0,0,1-1.42,2,6.75,6.75,0,0,1-2,1L591,467.43h41.61V456l-2,5.59a5.57,5.57,0,0,1-1,1.81,4.41,4.41,0,0,1-2.1,1.36H607.26V428.22h12.9a5.07,5.07,0,0,1,2,1.31,6.3,6.3,0,0,1,1,1.89l1.94,5V416.78l-2,5.58a5.57,5.57,0,0,1-1,1.81,4.39,4.39,0,0,1-2.11,1.36H607.26v-31.3h20.38a5.49,5.49,0,0,1,2.06,1.32,5.89,5.89,0,0,1,1,1.88l1.94,5v-10.9H590.91Z"/><path class="cls-1" d="M40.46,444.69c.54.08,1,.06,1.39.11a25.24,25.24,0,0,1,11.8,5A39.08,39.08,0,0,1,58,453.55a2.07,2.07,0,0,0,.94.57,1.4,1.4,0,0,0,1.22-.27l.19-.18a1.48,1.48,0,0,0,.47-1.11,1.77,1.77,0,0,0-.4-1l-.22-.25h0l-.23-.23h0a40.77,40.77,0,0,0-4.7-4c-4.3-3.08-9-5.27-14.43-5.54l-.48,0c0-.11,0-.25,0-.45h0v-.53l0,0,.29-.05a28.7,28.7,0,0,1,8.43.18,20.76,20.76,0,0,1,13.24,7.75l0,0h0c.09.12.21.3.36.49a1.82,1.82,0,0,0,.84.66,1.55,1.55,0,0,0,1.33-.21l.16-.11a1.35,1.35,0,0,0,.46-.63,1.62,1.62,0,0,0-.07-1.11,3.89,3.89,0,0,0-.61-1v0h0a24.21,24.21,0,0,0-15.75-9,29.44,29.44,0,0,0-8.69-.12h0a2.71,2.71,0,0,0,0-.7.62.62,0,0,1,0-.29l.06-.08a1.44,1.44,0,0,1,.39-.18,35.93,35.93,0,0,1,9.62-1.85,25.89,25.89,0,0,1,12.27,2.23,24.36,24.36,0,0,1,5.72,3.7,2.16,2.16,0,0,0,1,.51,1.46,1.46,0,0,0,1.18-.3,2.37,2.37,0,0,0,.28-.27,1.44,1.44,0,0,0,.37-1,1.56,1.56,0,0,0-.35-.88,2.87,2.87,0,0,0-.42-.43c-.6-.49-1.2-1-1.85-1.45-6.64-4.74-14-5.95-21.81-4.88a35.42,35.42,0,0,0-6.42,1.5l0-.23a.5.5,0,0,1,.18-.22,2.11,2.11,0,0,1,.39-.23,49.19,49.19,0,0,1,9.36-3.32c5.88-1.37,11.65-1.66,17.36.64a2,2,0,0,0,.8.16,1.43,1.43,0,0,0,.83-.3A1.74,1.74,0,0,0,70,428a1.43,1.43,0,0,0-.3-.7,2,2,0,0,0-.81-.6l-.72-.3A25.89,25.89,0,0,0,61,424.84a39.89,39.89,0,0,0-16.87,2.65c-1.3.48-2.53,1-3.76,1.55l0-.11a1.13,1.13,0,0,1,.34-.55l0,0a67.09,67.09,0,0,1,10.52-5.66c3.29-1.37,6.57-2.47,10.1-2.3a1.85,1.85,0,0,0,1.23-.34,1.56,1.56,0,0,0-.42-2.66,2,2,0,0,0-.7-.15,15.24,15.24,0,0,0-3.38.15,39.41,39.41,0,0,0-11.6,4c-2.1,1-4.13,2.22-6.11,3.44v-.12a.9.9,0,0,1,.26-.6,50.62,50.62,0,0,1,6-5.62,37.83,37.83,0,0,1,3.92-2.7c.83-.5,1.75-.94,2.67-1.45l.27-.18a1.48,1.48,0,0,0,.41-1.93l-.19-.3a1.47,1.47,0,0,0-.9-.56,1.68,1.68,0,0,0-1,.13c-.42.18-.83.38-1.22.59a40.71,40.71,0,0,0-5.88,3.84,51.28,51.28,0,0,0-4.28,3.79v-.35a3.37,3.37,0,0,1,.49-1.56,19.34,19.34,0,0,1,4.22-5.25,9.81,9.81,0,0,1,1.37-.9l.26-.17a1.45,1.45,0,0,0,.56-.92,1.7,1.7,0,0,0-.24-1.08l-.14-.2a1.48,1.48,0,0,0-.91-.57,1.79,1.79,0,0,0-1,.13,5.79,5.79,0,0,0-.57.3,12,12,0,0,0-1.31.89,17,17,0,0,0-2.74,2.83c0-1.37,0-2.75,0-4.14,0-.18,0-.42,0-.7a1.75,1.75,0,0,0-.34-.93,1.63,1.63,0,0,0-1.15-.58,1.4,1.4,0,0,0-1,.26,1.61,1.61,0,0,0-.52.83,4,4,0,0,0-.11,1c0,1.39,0,2.77,0,4.16l-.37-.5a14.17,14.17,0,0,0-4-3.59,2.17,2.17,0,0,0-.86-.32,1.42,1.42,0,0,0-1.05.27,1.79,1.79,0,0,0-.64,1.38,1.51,1.51,0,0,0,.34.85,2.3,2.3,0,0,0,.57.51,13.74,13.74,0,0,1,1.26.88,12.53,12.53,0,0,1,1.77,1.87,39.17,39.17,0,0,1,2.23,3.32,4.3,4.3,0,0,1,.63,2.2A44.42,44.42,0,0,0,26.26,411a2.73,2.73,0,0,0-.86-.3,1.35,1.35,0,0,0-1,.27,1.72,1.72,0,0,0-.63,1.43,1.52,1.52,0,0,0,.32.78,2.25,2.25,0,0,0,.77.62,44.39,44.39,0,0,1,12,9.93l.19.22a1.71,1.71,0,0,1,.31.54l.05.28a63.21,63.21,0,0,0-13.29-7.08,22.16,22.16,0,0,0-7.46-1.53,2.16,2.16,0,0,0-1.39.35,1.49,1.49,0,0,0-.54,1.18,1.64,1.64,0,0,0,.32,1,1.48,1.48,0,0,0,.83.52,3,3,0,0,0,.77.08A18.22,18.22,0,0,1,23,420.62a64.21,64.21,0,0,1,13.68,7.44,2.1,2.1,0,0,1,.45.4.86.86,0,0,1,.19.49c-1.2-.64-2.42-1.19-3.65-1.7a42.35,42.35,0,0,0-15.58-3.5,25.29,25.29,0,0,0-9,1.4,2.44,2.44,0,0,0-.73.38,1.38,1.38,0,0,0-.51.73,1.53,1.53,0,0,0,.09,1,2,2,0,0,0,.25.45,1.46,1.46,0,0,0,1.05.56,2.3,2.3,0,0,0,1-.16A23.37,23.37,0,0,1,20.13,427,41.65,41.65,0,0,1,34,430.82c1.06.47,2.1,1,3.17,1.58l0,0a1.14,1.14,0,0,1,.18.44l-.2-.09a37.89,37.89,0,0,0-8.69-2.11c-6.93-.83-13.52.28-19.41,4.21-.49.32-1,.67-1.41,1l-.64.52a1.53,1.53,0,0,0-.59,1,1.62,1.62,0,0,0,.36,1.15l0,.05h0a1.46,1.46,0,0,0,1.09.55,1.81,1.81,0,0,0,1-.29l.22-.15.24-.19h0a23.24,23.24,0,0,1,13.3-4.95,32.93,32.93,0,0,1,13.57,2.22l1,.35.07,0c0,.17,0,.53,0,1a30.63,30.63,0,0,0-9.65-.17,23,23,0,0,0-15.1,8.37,2.68,2.68,0,0,0-.54.93,1.47,1.47,0,0,0-.06.67,1.49,1.49,0,0,0,.31.69l.26.28a1.6,1.6,0,0,0,1,.42,1.47,1.47,0,0,0,.89-.34,4.4,4.4,0,0,0,.57-.58,18.9,18.9,0,0,1,3.15-3.17,6.41,6.41,0,0,1,.52-.39c5.25-3.76,11.15-4.58,17.53-3.68.44.07.75.12.93.17l.11,0a5.56,5.56,0,0,1,0,1h0a18.56,18.56,0,0,0-3.94.25A29.54,29.54,0,0,0,20,447.89h0c-1,.79-2,1.65-2.89,2.48a1.65,1.65,0,0,0-.56,1,1.58,1.58,0,0,0,.35,1.15l.06.07h0a1.52,1.52,0,0,0,1.16.56,1.88,1.88,0,0,0,1-.37l.1-.08c.22-.17.38-.33.51-.45.71-.65,1.44-1.26,2.18-1.85a29.37,29.37,0,0,1,7.09-4.17,20.61,20.61,0,0,1,8-1.62h.14v.13c-.06,1,0,2,0,2.89a9.17,9.17,0,0,1,0,1.09l0,.11h0a6.69,6.69,0,0,1-1.21,0,5.91,5.91,0,0,0-.87,0,1.6,1.6,0,0,0-.79.31,1.43,1.43,0,0,0-.51.87,5.28,5.28,0,0,0-.08,1c0,4.59-.06,9.12-.09,13.69v.65l.64.08,1.75.17.75.06V465c0-1,0-2,0-3,0-3.28,0-6.56,0-9.85v-.12h.07c1.29.09,2.57.1,3.85.1h0c0,4.34-.07,8.63-.1,12.95v.75l.75,0c.58,0,1.15-.05,1.73-.09l.64,0v-.65c0-4.73.06-9.42.1-14.16a2,2,0,0,0-.37-1.23,1.82,1.82,0,0,0-1.42-.63c-.51,0-1.08-.07-1.68,0h0v0c0-1.37.07-2.74,0-4.12v-.16Z"/><polygon class="cls-1" points="20.04 447.89 20.04 447.89 20.05 447.88 20.04 447.89"/><polygon class="cls-1" points="15.66 392.14 15.65 392.14 15.66 392.14 15.66 392.14"/><path class="cls-1" d="M437.47,166.54a25.05,25.05,0,0,0-7.45-1c-3.59,0-8.17.38-16.29.38-4.28,0-9.53-.11-16.13-.43-28.58-1.38-41.16-2.71-53.88-3.74-3-.24-5.69-.34-8.15-.34a75.81,75.81,0,0,0-13.36,1l.15.74h.05a76.25,76.25,0,0,1,13.16-1c2.44,0,5.16.09,8.09.33,12.71,1,25.31,2.36,53.9,3.75,6.61.32,11.88.42,16.17.42,8.14,0,12.75-.38,16.29-.38a23.86,23.86,0,0,1,7.24,1,5.84,5.84,0,0,1,2.55,1.32,2.14,2.14,0,0,1,.65,1.54,3.78,3.78,0,0,1-.5,1.73,10.7,10.7,0,0,1-1.76,2.33c-.3.3-.57.55-.76.72l-.23.2-.06,0h0l.47.59a14.19,14.19,0,0,0,1.79-1.76,9.64,9.64,0,0,0,1.24-1.79,4.66,4.66,0,0,0,.59-2.08,2.9,2.9,0,0,0-.87-2.07c-.11-.11-.25-.21-.38-.32.21-2.3.17-4.87-1.32-6.75a6.67,6.67,0,0,0-2-1.42,53.18,53.18,0,0,0-9.47-3.08,54,54,0,0,1,9.45,3.13,6.68,6.68,0,0,1,2,1.4c1.49,1.86,1.54,4.42,1.35,6.72A7.1,7.1,0,0,0,437.47,166.54Z"/><path class="cls-1" d="M82.42,311.46s92.85,0,205.53.05h1.87c173.43,0,392.65,0,392.6-.05l-75-.16-100.78-.08v-55h-.76v28.4c-23.26-1.68-46.7-2.08-70-2.2,0-7.2,0-19.62,0-26.2h13.63v22.69h0c0-5.64,0-16.88,0-22.69h13.25v24.47h0c.05-6.08.05-18.21,0-24.47h13.65v21.68h0c.05-5.39.05-16.12,0-21.68H490c-.19,3.71-.07,8.63-.1,12.08,0,3.83-.13,9.58.19,13.35.31-3.79.15-9.5.19-13.35s.13-9.58-.19-13.36c0,.4-.06.83-.08,1.27l-13.57,0v0H462.74v0H449.49v0H435.85v0l-9.24,0c0-1-.07-2-.13-2.83,26.06-1.26,52.12-2.2,78.21-.95a44.92,44.92,0,0,1,8.12.85c.4.13.9.37.72.68a2.75,2.75,0,0,1-.93.86c-.85.58-1.82,1-2.69,1.57h0c-.09.06-.19.11-.28.18a.65.65,0,0,0-.25.37c0,.2.21.32.37.34h.46v0l0,0c2.15,0,4.24-.53,6.38-.7a12.11,12.11,0,0,1,4,0,.75.75,0,0,1,.45.32.58.58,0,0,1-.07.53c-1.56,2.72-6.94,2.79-10,2.72v.26a26.15,26.15,0,0,0,5.52-.13c1.85-.3,4-.8,5-2.58a1.15,1.15,0,0,0,.1-1.07,1,1,0,0,0-.39-.45,4,4,0,0,0-1.93-.45,23.71,23.71,0,0,0-2.81.09c-1.52.12-3,.31-4.51.45a8.74,8.74,0,0,0,1.13-.64,3.31,3.31,0,0,0,1.33-1.28,1.32,1.32,0,0,0-.2-1.41,2.53,2.53,0,0,0-1.13-.69,15.31,15.31,0,0,0-2.88-.58c-1.22-.16-2.42-.27-3.63-.37V201.6h-.76V247a7.56,7.56,0,0,0-3.44-3.12,11,11,0,0,1,2.44,1.74,6.3,6.3,0,0,1,1,1.39v4.23l-1.13-.09q-7.33-.47-14.66-.82c.09-2.84.13-6.17.14-9.59,1.39.16,2.76.36,4.13.61,0,2.73.08,5.32.17,7.5.1-2.17.15-4.73.18-7.42a45.12,45.12,0,0,1,4.94,1.23c.46.17.91.34,1.35.53-.46-.2-.92-.38-1.34-.54a47.75,47.75,0,0,0-5-1.24c.05-5.88,0-12.45,0-17.22,0-7.08.13-17.68-.19-24.66-.31,7-.15,17.55-.18,24.66,0,4.74,0,11.29,0,17.15-1.37-.26-2.74-.45-4.13-.61,0-5.17,0-10.51,0-14.6,0-7.34.13-18.32-.19-25.56,0,.33,0,.66,0,1l-13.61,0v0H462.74v0H449.49v0H435.85v0l-9.31,0c0-.67,0-1.32-.07-1.94l.77,0c13.95-.89,28.53-2.39,42.51-3.07,14.19-.53,28.41-.29,42.6.39,5.31.27,10.64.56,15.93,1.16.88.11,1.76.22,2.63.38a5,5,0,0,1,1.68.49v0a1.47,1.47,0,0,1-.55.26,26.54,26.54,0,0,1-5.28.35c-3.87.15-13-.41-15,3.5,2-3.9,11.26-3.24,15-3.36.89,0,1.78,0,2.67,0,1.08-.09,2.36.05,3.31-.6a.25.25,0,0,0,0-.13c0-.14-.12-.21-.21-.26a19.37,19.37,0,0,0-4.27-.86c-1.77-.22-3.54-.39-5.31-.55-10.62-.91-21.28-1.31-31.94-1.5-28.41-.79-56.79,3.41-85.14,4.21-14.19.47-28.41.66-42.6.18-21.29-.77-42.6-3.22-63.91-1.5a240.8,240.8,0,0,1-42.54-.26c-3.53-.33-7.06-.76-10.59-1.16a86,86,0,0,0-10.64-.7,8.55,8.55,0,0,0-2,.23,1.55,1.55,0,0,0-.62.3.69.69,0,0,0-.23.67,5.29,5.29,0,0,0,1,1.76l.38.55a1,1,0,0,1,.26.56c-.37,1.94-12.62-.22-14.18-.45a83.63,83.63,0,0,0,10.57,1.32,12.58,12.58,0,0,0,2.67-.12,1.68,1.68,0,0,0,.93-.41c.3-.29,0-.73-.14-1l-.38-.55a11.71,11.71,0,0,1-.72-1.11c-.2-.34-.38-.83,0-1.12a5,5,0,0,1,2.53-.47,85.78,85.78,0,0,1,10.61.79,239.28,239.28,0,0,0,42.54,2.29c8.53-.38,17-1,25.56-1.1-.27,3.17-.12,7.72-.16,10.84,0,1.46,0,3.24,0,5.06a50.57,50.57,0,0,0-10.44,3.11c-.27.12-.55.26-.83.41,0-5.62,0-12.15,0-16v16.06a6.32,6.32,0,0,0-1.17.75l-.72,6.31.73-6.31a7.69,7.69,0,0,1,1.16-.74v6.86a29.89,29.89,0,0,0-3.91,1.43l.33.68h0c.37-.18,5.22-2.42,15-3.7-.29,8.4-.15,21.2-.18,29.64-3.77-.15-7.53-.33-11.3-.55,0-2.44,0-5.41,0-8.48l3.76.2-3.76-.22c0-5.38,0-11.06,0-14.66v14.66q-6.44-.37-13-.79c0-13.74,0-31.84,0-42v42c-4.44-.28-8.92-.55-13.4-.8,0-13.5,0-31.23,0-41.19v41.19q-6.72-.37-13.4-.66c0-13.06,0-30.08,0-39.67V241.8c-4.28-.18-8.53-.31-12.72-.39,0-13,0-30,0-39.63v39.63q-3.44-.06-6.81-.06c0-5.54,0-11.51,0-15.94,0-7.11.13-17.75-.18-24.75-.32,7-.15,17.61-.19,24.75,0,4.41,0,10.4,0,15.94-1.38,0-2.76,0-4.12,0,0-5.56,0-11.41,0-15.82,0-7.47.13-18.64-.19-26-.32,7.39-.15,18.49-.19,26,0,4.39,0,10.26,0,15.82h-1c-3.26.05-6.52.18-9.78.34V202.12H227v3a17.19,17.19,0,0,0-3.62-3.24,12.69,12.69,0,0,0-3.42-1.64c-2.52-.63-3.32-1.54-1-2.8a20.31,20.31,0,0,1,8.73-1.66,7,7,0,0,0,2.27-1.11,2.72,2.72,0,0,0,1.11-3.36l-.06-.15a.75.75,0,0,1,.13-.83,4.61,4.61,0,0,1,2-1.1,32.86,32.86,0,0,1,4.75-1c8-1.12,16.18-1.39,24.3-1.72l.76,0v.13h0v-.13c5.36-.19,11-.33,16.3-.13,7.31.22,14.59.94,21.86,1.83,25.79,3.42,51.59,6.84,77.52,9.21a175.09,175.09,0,0,0,48.62-2.82c6.19-1.14,12.93-2.76,19.1-4q8.14-1.56,16.38-2.68v.65h0v-.65a285.7,285.7,0,0,1,51.54-2.45c3.49.27,17.48.58,17.51,5.17v0h0V196h.26l.17-5.37v.08a2,2,0,0,0-.26-1.42l-.19-.29a4.27,4.27,0,0,0-.68-.73c-2-1.61-4.56-2.17-7-2.66-3.25-.59-6.5-.87-9.76-1.14q-3.84-.28-7.69-.43V137.12h-.76V184c-3.71-.14-7.42-.21-11.14-.19h-.16c.25-6.29.11-15.08.14-21.13,0-6.28.12-16.07-.19-22.27-.3,6.23-.15,16-.18,22.27,0,6-.11,14.86.13,21.13-1.46,0-2.92,0-4.38.07.23-6.33.09-15,.13-21.08,0-6.33.11-16.2-.19-22.44-.05,1-.09,2.11-.12,3.27l-13.53,0v0H462.74v0H449.49v0H435.85v0l-9.19,0v-.76c-.06-.84-.11-1.68-.19-2.51-.08.83-.13,1.67-.19,2.51V158c.06.83.11,1.67.19,2.51.08-.84.12-1.68.19-2.51V143.67h9.19V159h0c0-3.8,0-11.34,0-15.31h13.63v44.19q-9,1.5-17.9,3.49c-6.2,1.24-12.8,2.3-19.09,3-3.11.32-6.46.62-9.59.79a190.72,190.72,0,0,1-29.83-.9c.15-3.41,0-7.7.07-10.76,0-1.93,0-4.36,0-6.76q18.36.76,36.73,0-18.36-.76-36.73,0c0-2.1,0-4.16-.19-5.82-.32,3.58-.16,9-.19,12.59,0,3-.08,7.33.07,10.74-1.42-.13-2.83-.28-4.25-.42.12-3.34,0-7.39.06-10.32,0-3.62.13-9-.19-12.59-.15,1.65-.19,3.7-.2,5.77a266.57,266.57,0,0,0-28.69,0,269.18,269.18,0,0,0,28.69,0c0,2.41,0,4.86,0,6.81,0,2.91-.07,7,.06,10.29-2.95-.31-5.89-.64-8.82-1-13-1.4-27-3.1-40.57-4.76.22-6.62.1-16,.13-22.19,0-6.71.12-16.7-.18-23.41.94.11,1.89.23,2.83.32a304.23,304.23,0,0,0,46.66,1.38c0,.28-.07.56-.11.84v8.35c.06.46.11.92.19,1.39.07-.47.12-.93.19-1.39V145l-.12-.84,4.31-.25a1.8,1.8,0,0,1-.08.21v3.08a3.63,3.63,0,0,0,.19.52,5.34,5.34,0,0,0,.18-.52v-3.08l-.09-.23a254.24,254.24,0,0,0,27.76-3.35c30.58-5.09,61.82-8.1,92.82-5.87,5.91.62,12,1.24,17.48,3.65-.09.07-.18.16-.28.23a4.37,4.37,0,0,0-1.52,1.41.38.38,0,0,0,.1.45.68.68,0,0,0,.4.13v-.26a.52.52,0,0,1-.23-.08s0-.06,0-.15a1.4,1.4,0,0,1,.38-.45,7.62,7.62,0,0,1,1.07-.76l.51-.35.22.1-.22-.1a6.89,6.89,0,0,0,2.62-4.13,8.46,8.46,0,0,0-.14-4.27c-.68-1.39-2.16-2.07-3.45-2.64a26.82,26.82,0,0,0-3.94-1.24v-46h-.76V126l-.58-.13a95.38,95.38,0,0,0-10.72-1.53c.25-6,.11-14.49.14-20.31,0-6.09.13-15.21-.19-21.21-.31,6-.15,15.1-.18,21.21,0,5.8-.11,14.32.14,20.31-1.46-.13-2.93-.21-4.4-.3.24-5.85.1-13.95.14-19.53,0-6,.12-14.88-.19-20.75-.08,1.36-.12,2.88-.15,4.48l-13.5,0v0H462.74v0H449.49v0l-13.62,0a2.44,2.44,0,0,1,0-.27v.27l-9.38,0h9.38v3a28,28,0,0,0,0-3h13.62v36.19c-3,.19-6,.4-8.93.63-1.56.13-3.12.29-4.69.43,0-6,0-15.85,0-21v21c-9.19.86-18.41,2.07-27.49,3.63l-6.66,1.23-6.64,1.4c-4,1-9,2.19-13.05,3.13-3,.65-6,1.17-8.92,1.58.13-3.37,0-7.45.06-10.4,0-1.1,0-2.37,0-3.7a219.47,219.47,0,0,0,26,0,221.62,221.62,0,0,0-26,0c0-3.07,0-6.47-.19-9-.32,3.6-.16,9-.19,12.68,0,3-.07,7.07.06,10.44-1.42.19-2.83.36-4.24.51.12-3.44,0-7.59.06-10.59,0-3.75.13-9.36-.19-13-.22,2.5-.21,5.85-.19,8.92q-18.84-.77-37.7,0,18.84.78,37.7,0c0,1.48,0,2.89,0,4.11,0,3-.06,7.17.06,10.62-16.81,1.72-32.81,0-49.32-3.2.12-3.37,0-7.46.06-10.41,0-3.64.13-9.1-.19-12.69-.32,3.6-.15,9-.19,12.69,0,2.93-.06,7,.06,10.36-1.41-.27-2.83-.56-4.24-.85.13-3.24,0-7.22.06-10.08,0-3.48.13-8.7-.19-12.12-.32,3.44-.15,8.62-.19,12.12,0,2.83-.06,6.8.07,10-3.69-.76-7.4-1.58-11.16-2.44q-6.59-1.44-13.27-2.63c0-10.65,0-30.07,0-39.92v39.92q-6.69-1.2-13.42-2.11c0-10.39,0-28.52,0-37.81v37.81c-1.77-.23-3.54-.46-5.31-.66q-4.05-.45-8.11-.8c0-9.74,0-26.77,0-35.5v35.5q-6.36-.54-12.74-.74c0-9.55,0-26.46,0-35.1v35.1q-3.48-.1-6.94-.08c.22-6,.1-14.6.12-20.27,0-6.23.13-15.56-.18-21.7-.32,6.17-.15,15.44-.19,21.7,0,5.66-.1,14.23.13,20.27-1.46,0-2.92,0-4.38.08.23-5.55.09-13.08.13-18.31,0-5.67.13-14.14-.19-19.72-.32,5.61-.15,14-.19,19.72,0,5.2-.1,12.78.12,18.31h0a89.54,89.54,0,0,0-10.84.81V93c.37.3.74.61,1.11.89L227.77,93V84.75H227v7.64a27.42,27.42,0,0,1-4.72-4.85,7.44,7.44,0,0,1-.69-1.23.79.79,0,0,1-.07-.65,1,1,0,0,1,.43-.5,5.93,5.93,0,0,1,2-.72c3.71-.72,7.51-.66,11.27-1A9.74,9.74,0,0,0,238,83a.45.45,0,0,0,.28-.35.53.53,0,0,0-.2-.39,9.14,9.14,0,0,0-1.87-1.07c-.88-.5-4.69-1.94-3.38-3.34a5.41,5.41,0,0,1,2.4-1.27,42.36,42.36,0,0,1,5.52-1.06c7.48-1,15-1.45,22.55-1.75,13.17-.4,26.42-.49,39.5,1.28,3.85.62,7.69,1.28,11.54,1.94-.28,3.77-.13,9.2-.17,12.91,0,3.46-.09,8.45.12,12.15a30,30,0,0,0-4.72,2,21.28,21.28,0,0,0-7.13,5.77.48.48,0,0,0,0-.12v.13a12.91,12.91,0,0,0-2.49,5.29l.26,0a12.74,12.74,0,0,1,2.65-4.64c2.76-3.22,6.69-5.22,10.67-6.5l.43-.15c1-.25,2.06-.54,3.07-.78,1.19-.2,2.38-.43,3.57-.6l3.61-.36c19.47-1.18,38.56,4,57.92,4.9,8.56.26,20.42-.42,29.12-.56v-.26c-8.27-.64-17.17-.76-25.45-1-3.54-.13-7.18-.55-10.7-1-2.12-.26-4.29-.56-6.48-.87l0-.16V89.47c-.06-.77-.11-1.53-.19-2.29-.08.76-.13,1.52-.19,2.29V91.3q-17.4-.76-34.82,0,17.4.76,34.82,0V97a47.47,47.47,0,0,1-6-1c-4.09-.88-8.14-2-12.3-2.58a75.89,75.89,0,0,0-30.88,1.88c0-2,0-4,0-5.61,0-3.4.12-8.44-.18-11.85,22.54,4,45.08,8.1,68,9.2a163.35,163.35,0,0,0,22.67-.12c1.65-.1,4-.46,5.64-.66s3.78-.64,5.58-1.08l1.12-.27-.09.27v3.69c.06.21.12.41.19.62.08-.21.13-.41.19-.62V85.14c0-.11-.06-.21-.1-.32,1.41-.34,2.81-.7,4.22-1.1v2.1c.06.11.11.23.19.35l.19-.35V83.68l0-.06c5.32-1.51,10.64-3.33,15.91-4.68a214,214,0,0,1,33.4-5.67c14.93-1.27,30.29-2.15,45,1.33a24.55,24.55,0,0,1,5.27,2,4.68,4.68,0,0,1,2,1.78.88.88,0,0,1-.36,1.11c-.37.26-.79.51-1.17.78-1.57,1.07-3.08,2.19-4.6,3.32-4.53,3.38-9,6.86-13.46,10.35,4.49-3.46,9-6.89,13.54-10.24,1.53-1.12,3-2.23,4.62-3.28.77-.56,2-.94,1.62-2.12a4.79,4.79,0,0,0-2.13-1.9,24.73,24.73,0,0,0-5.31-2c-14.72-3.63-30.13-2.79-45.11-1.59a208.79,208.79,0,0,0-33.52,5.56c-7.19,1.83-14.53,4.55-21.77,6.16-1.8.43-3.71.74-5.53,1.06-1.66.2-3.92.55-5.6.65a163.46,163.46,0,0,1-22.57.09c-26.39-1.36-52.4-6.47-78.39-11-3.73-.61-7.47-1.21-11.24-1.53A295,295,0,0,0,252,74c-3.76.3-7.53.66-11.27,1.19-1.94.38-8,.93-8.43,3.22,0,.81.72,1.34,1.31,1.73,1.2.78,2.54,1.27,3.78,1.95a2.76,2.76,0,0,1,.56.38.35.35,0,0,1,.13.21s-.07.11-.16.16a5.08,5.08,0,0,1-1.33.32c-1.4.18-2.81.24-4.22.33-1.89.12-3.77.22-5.65.42a12.35,12.35,0,0,0-4.8,1.19,1.13,1.13,0,0,0-.46.55c-.15.5.19.94.4,1.35a17.38,17.38,0,0,0,2.72,3.26c.79.76,1.61,1.47,2.45,2.17v32.06c-6.86,1.1-17.06,4.89-13.73,13.51a18.34,18.34,0,0,0,3.16,4.58c3.36,4.05,6.94,7.9,10.57,11.71v40.59c-3.1.17-7.83.8-9.78,3a1.45,1.45,0,0,0-.3,1.1,1.55,1.55,0,0,0,.6.93,11.06,11.06,0,0,0,3,1.08,15.41,15.41,0,0,1,6.51,4.57v36.18l-1.74.08c-2,.12-4.09.16-6.13.39a12.8,12.8,0,0,0-4.44,1.12c-.41.24-.94.62-.86,1.16l-1.6,6.73a7.66,7.66,0,0,0-1,.23,1.39,1.39,0,0,0-.93.77c-.24.51.16,1.09.14,1.54a1.38,1.38,0,0,1,0,.2,1.8,1.8,0,0,0-.1.48,2,2,0,0,0,1,1.58,14.67,14.67,0,0,0,3.88,1.79,87.37,87.37,0,0,0,10.7,2.61l0-.26a87.51,87.51,0,0,1-10.54-2.92,14.71,14.71,0,0,1-3.65-1.78c-.33-.26-.68-.61-.67-1,0-.15.14-.42.15-.66a2.48,2.48,0,0,0-.09-.73,1,1,0,0,1-.07-.58c0-.14.25-.23.44-.29a13.36,13.36,0,0,1,2.68-.33c3.49-.14,8.26-.13,12.82-.1v.37h.75v-.36l8.36.07,2.57,0c-.29,4.46-.13,10.93-.17,15.34s-.12,11.27.19,15.71c.31-4.47.15-11.18.19-15.71s.11-10.9-.17-15.34c25,.12,50.29,2.3,75.46,3.54,0,8.32-.09,19.91.17,27.68-8.13-.14-16.34-.2-24.54-.21,0-7.37,0-19.69,0-26.08v26.08c-9,0-18,0-26.85.14,0-6.89,0-19.4,0-25.76v25.76l-8.41.1-4.33.07c0-6.64,0-19.32,0-25.88h0v0c-2,0-3.94.06-5.88.07,1.93,0,3.89,0,5.88-.07v25.88c-4.54.09-9.22.2-13.6.32-2.29.09-5.62.16-8.84.26v-27H227v27c-2.33.08-4.54.18-6.18.33-1,.15-3.14.33-2.85,1.85.49,1.76,6.73,2.91,8.55,3.36l.07-.25c-1.43-.42-2.85-.89-4.24-1.41-5.49-2.09-3.93-2.58.77-2.56l3.88.06v26C177.38,311.28,128.75,311.35,82.42,311.46Zm344.24-42.9c0-3.49.06-8.32-.05-12.34h9.24v26.2l-4,0-5.28,0C426.75,278.16,426.63,272.51,426.66,268.56Zm0,28.54c0-3.4.07-8.18-.07-12,29.5-.06,59.71-.24,79.29-.17v26.32h-14q.09-6.1,0-12.21a.59.59,0,0,1,.41,0c.26.14.58.47.85.17s.56-.78.89-1.13a6.26,6.26,0,0,1,2.92-1.59,6.33,6.33,0,0,0-2.92,1.58c-.33.35-.55.79-.9,1.13a.35.35,0,0,1-.43.08c-.14-.07-.26-.18-.41-.25a.59.59,0,0,0-.41,0c0-.19,0-.37,0-.55V299a1.33,1.33,0,0,0-.73,1.13v.07c0-.43.29-1.06.73-1.19q-.07,6.11,0,12.21H490.5q.08-6.39,0-12.77-.09,6.39,0,12.77l-35,0c.06-3.88.05-7.77,0-11.66a.62.62,0,0,1,.4,0c.25.14.55.46.81.17s.54-.75.86-1.09a6.12,6.12,0,0,1,2.79-1.52,6.2,6.2,0,0,0-2.8,1.52c-.31.33-.52.76-.85,1.08s-.56,0-.8-.17a.65.65,0,0,0-.41,0v0a1.32,1.32,0,0,0-.7,1.08v.08a1.32,1.32,0,0,1,.7-1.15q-.08,5.84,0,11.66h-1.29q.09-6.09,0-12.19-.08,6.09,0,12.19H426.49C426.77,307.1,426.62,301.15,426.66,297.1ZM477.28,250h-.88c0-2.79,0-6.07,0-9.64a107.23,107.23,0,0,1,13.42.43c0,3.43.05,6.79.15,9.63C485.75,250.17,481.52,250,477.28,250ZM490,201.61c-.26,7.24-.11,17.51-.15,24.55,0,4.06,0,9.4,0,14.56a107.23,107.23,0,0,0-13.42-.44c0-12.84,0-29.22,0-38.68Zm-13.61,48.33c-4.4-.05-9.06,0-13.64.08,0-2.67,0-5.79,0-9.16,2.68-.19,5.37-.35,8.07-.43,1.84-.05,3.69-.1,5.55-.13Zm0-48.34v38.68c-1.86,0-3.71.08-5.55.12-2.7.08-5.39.24-8.07.43,0-13,0-29.63,0-39.23ZM462.74,250c-2.54,0-5,.1-7.46.15-1.93,0-3.86.1-5.79.16,0-2.45,0-5.26,0-8.3,4.41-.42,8.81-.85,13.23-1.17Zm0-48.42v39.23c-4.42.32-8.82.74-13.23,1.16,0-13.18,0-30.51,0-40.39Zm-13.26,48.73q-6.8.19-13.62.43c0-2.15,0-4.84,0-7.62l1.18,0c4.15-.27,8.28-.66,12.42-1.06ZM435.85,201.6v6c.08-2,.06-4,0-6h13.63V242c-4.14.39-8.27.77-12.42,1.05l-1.18,0c0-4.51,0-9.23,0-12.23V243.1a14,14,0,0,1-3.3-.13c-.09,0-.2-.09-.15-.11l.11-.06-.14,0c-1.9-.17-3.81-.33-5.71-.48,0-5.73,0-11.83,0-16.39,0-6.91.1-16.94-.12-24.31Zm-9.19,40.75q2.85.22,5.7.48c-.07.1.11.16.17.19a14.17,14.17,0,0,0,3.32.12v7.62l-9.33.35C426.6,248.51,426.64,245.49,426.66,242.35Zm63.26-98.68c-.14,6.08-.05,13.84-.07,19.17,0,6-.11,14.78.13,21.08q-6.8.17-13.58.67c0-10.94,0-30.67,0-40.92Zm-13.53,0v40.92q-6.84.51-13.64,1.34c0-11.75,0-31.74,0-42.26Zm-13.65,0v42.26q-6.64.81-13.25,1.93c0-11.88,0-33.14,0-44.19ZM319.08,95.26A76.72,76.72,0,0,1,350,93.42c4.16.56,8.21,1.68,12.31,2.56a45.42,45.42,0,0,0,6,1v6.31c-11.47-1.63-23.72-3.67-34.91-3.66-2.91,0-6.35.15-9.28.41l-3.73.51-1.42.28C319.05,99.17,319.08,97.21,319.08,95.26Zm-.22-17.46c-.29,3.43-.13,8.44-.17,11.85,0,3.19-.1,7.84.13,11.22a41.13,41.13,0,0,0-4.36,1.15c.2-3.71.08-8.65.11-12.1,0-3.69.11-9.15-.16-12.9Zm-.17,88.07c0,6.19-.09,15.57.13,22.17l-4.36-.53c.2-6.67.08-15.83.11-22,0-6.76.12-16.81-.17-23.61,1.5.19,3,.35,4.47.52C318.57,149.2,318.73,159.13,318.69,165.87Zm171.2-77.6c-.1,5.36,0,11.66,0,16.27,0,5.56-.1,13.69.13,19.52q-6.78-.42-13.58-.46c0-9.47,0-26.46,0-35.33Zm-27.15,0v32.36h0c.05-8,.05-24.14,0-32.36h13.65V123.6c-9-.07-17.94.28-26.9.86,0-10,0-27.16,0-36.19Zm-242.3,58c-1.16-1.37-2.29-2.76-3.41-4.16-1.66-2-3.43-4.26-3.45-7,.12-6.23,8-8.38,13.44-9.22v.22h.75v-.33l.14,0a75.23,75.23,0,0,1,8-.55c18.83-.48,37.63,1.84,56.1,5.41,14.07,2.78,28,6.58,42.23,8.4a138,138,0,0,0,53.5-2.84c2.54-.61,5.28-1.32,7.83-1.94,1.89-.41,4.7-1,6.57-1.44l6.6-1.27a406.56,406.56,0,0,1,40.7-5.12v.27h0v-.27c4.23-.32,8.48-.6,12.72-.81,9.27-.44,18.56-.7,27.83-.32h0c1.48.06,2.95.13,4.43.23,5.33.43,10.77.83,15.83,2.64a5.77,5.77,0,0,1,3.14,2.22,7.67,7.67,0,0,1-.74,6.34,6.24,6.24,0,0,1-1.56,1.6,24.42,24.42,0,0,0-2.6-1.06,49.74,49.74,0,0,0-5.65-1.44c-21.5-3.63-43.52-2.32-65.17-.71-24.82,1.74-49.12,8.13-74.06,8.53-26.41.94-52.82-2-78.74-7-10.65-2.24-21.45-4.16-32.38-3.93a104,104,0,0,0-23.1,3,69.06,69.06,0,0,0-13.18,4.66,72,72,0,0,1,15.48-5,108,108,0,0,1,39.35-.83c7.59,1.32,15.3,3.1,22.9,4.39,6.67,1.19,13.56,2.22,20.37,3.07-.29,6.83-.13,16.82-.17,23.61,0,6.11-.08,15.29.12,21.94l-12.92-1.59a221.48,221.48,0,0,0-25-1.59c0-11.1,0-30.88,0-41v41q-6.72,0-13.42.37c0-11.05,0-30.52,0-40.48v40.48l-.82,0c-4,.24-7.94.45-11.92.76,0-11.11,0-31.36,0-41.64v41.64c-2.33.18-4.65.4-7,.67.3-6.56.14-16.14.17-22.66s.12-16.67-.18-23.1c-.31,6.45-.16,16.57-.19,23.1s-.12,16.13.17,22.67q-2.76.32-5.5.76a24.74,24.74,0,0,0-6.17,1.7c-1,.47-2,1.45-1.65,2.72a3.07,3.07,0,0,1,.32,1.13,2,2,0,0,1-.87,1.39,6.21,6.21,0,0,1-1.56.87V141.51H227v12.34Q223.68,150.1,220.44,146.26ZM227,250.63l-1.85,0c-3.67.08-7.32.12-11,.37-.65.06-1.28.1-1.91.2l1.61-6.73c-.08-.53.44-.92.86-1.15a13,13,0,0,1,4.44-1.12c2-.22,4.08-.25,6.12-.37l1.74-.08Zm.75,0v-8.85c3.26-.16,6.52-.28,9.78-.33h1c0,3.24.06,6.36.15,9C235,250.47,231.4,250.52,227.77,250.61Zm22.44-.13q-5.73-.06-11.45,0c.09-2.68.13-5.8.15-9l4.12,0c0,3.2.08,6.24.19,8.76.11-2.52.16-5.57.18-8.76q3.38,0,6.81.07Zm12.75.25q-6.37-.18-12.74-.25c0-2.61,0-5.68,0-9,4.2.08,8.44.22,12.72.39Zm13.43.47q-6.7-.28-13.42-.47c0-2.59,0-5.61,0-8.88,4.45.18,8.92.41,13.4.65Zm13.43.63q-6.7-.35-13.42-.63c0-2.56,0-5.51,0-8.69,4.48.24,8.95.51,13.4.78Zm13.06.71-.88,0q-6.06-.36-12.17-.67c0-2.53,0-5.42,0-8.54,4.38.26,8.74.53,13,.77Zm86,58.63q.08-6.07,0-12.17-.09,6.09,0,12.17h-1.28q.07-5.82,0-11.64a1.34,1.34,0,0,1,.7,1.15v-.08a1.31,1.31,0,0,0-.7-1.08V299c0,.17,0,.35,0,.52a.62.62,0,0,0-.4,0c-.24.14-.54.46-.8.17s-.54-.75-.85-1.08a6.2,6.2,0,0,0-2.8-1.52,6.17,6.17,0,0,1,2.79,1.52c.32.34.52.76.86,1.09s.56,0,.81-.17a.59.59,0,0,1,.39,0q-.07,5.82,0,11.64H373c.29-7.4.16-18.8.18-26.26,14.17.16,31.2.19,48.72.17-.15,3.85-.05,8.65-.08,12.08,0,4-.11,10,.18,14Zm33.12,0c.29-4.05.14-10,.17-14,0-3.42.08-8.24-.07-12.09h4.26c-.14,3.86,0,8.62-.07,12,0,4-.11,10,.17,14.08Zm4.48-111.52c-.32,7.5-.15,18.69-.19,26.25,0,4.54,0,10.63,0,16.36l-4.12-.31c0-5.73,0-11.85,0-16.41,0-7.34.12-18.25-.17-25.61ZM422.16,242l4.12.31c0,3.16.06,6.19.15,8.8l-4.45.18C422.09,248.6,422.14,245.38,422.16,242Zm4.3,11.38c-.3,4.35-.14,10.8-.18,15.17,0,3.93-.09,9.61.11,13.86l-4.34,0c.2-4.23.08-9.88.11-13.83,0-4.31.12-10.73-.18-15Zm-4.66,4.33q-24.41-.77-48.84,0,24.41.78,48.84,0c-.06,3.68,0,7.8,0,10.89,0,3.93-.09,9.61.12,13.83-16.24.12-32.53.43-48.76,1.24,0-7.62.12-18.36-.18-25.56-.31,7.24-.17,17.94-.19,25.58l-4.13.21c0-.77,0-1.52,0-2.23,0-7.39.13-18.44-.19-25.73,17.84-.49,35.67-1.46,53.5-2.35C421.88,254.84,421.83,256.24,421.8,257.72ZM319.06,230.85q24.6.77,49.21,0c0,3.37,0,7,0,9.74,0,.54,0,1.12,0,1.73l-1.49.23c-15.81,2-31.8,2.2-47.72,2C319.09,240,319.07,235.1,319.06,230.85Zm47.72,11.73,1.49-.23c0,3.36,0,7.47.06,10.92-16.5.42-33,.53-49.4,0,.08-2.61.11-5.6.13-8.71C335,244.78,351,244.61,366.78,242.58Zm1.49-11.74q-24.6-.76-49.21,0c0-1.53,0-3,0-4.32,0-1.11,0-2.31,0-3.56,2.95-.25,6.24-.4,9.88-.4,1.27,0,2.58,0,3.94.06,15.52.44,26.53,1.08,39.89,1.6v3.39c0,3.93,0,9,0,14-.83.11-1.65.23-2.47.36l-1.65.26c0-.58,0-1.14,0-1.67,0-4.41.13-11-.19-15.34C368.34,226.89,368.29,228.82,368.27,230.84Zm.37,11.45,1.66-.26c.81-.13,1.64-.25,2.46-.35,0,4.06,0,8.1.14,11.46l-4.32.13C368.7,249.79,368.64,245.67,368.64,242.29ZM373,253.14c.1-3.39.14-7.43.14-11.51a142.2,142.2,0,0,1,16.63-.88c10.68,0,21.35.46,32,1.23,0,3.39.07,6.62.17,9.32C405.68,252,389.34,252.67,373,253.14Zm42.67-28.73a.35.35,0,0,0-.14-.14.39.39,0,0,0-.14-.05,2,2,0,0,0-.35-.07l-.2,0v.18c-.51,0-1.53.05-3.4.05-2.95,0-8-.06-16.61-.23-8.29-.17-15.26-.39-21.69-.65,0-2.31,0-4.79,0-7.31.91,0,1.82,0,2.73-.08q11.55-.14,23.08-1c5.75-.44,11.5-1.09,17.28-1a26.27,26.27,0,0,1,5.53.55c0,3.92,0,7.75,0,10.93,0,1.61,0,3.42,0,5.34q-24.31-.76-48.64,0v-6.65c6.42.25,13.39.48,21.68.65,8.58.17,13.66.23,16.62.23,1.6,0,2.58,0,3.17,0l.64-.05.18,0a.45.45,0,0,0,.13-.06.65.65,0,0,0,.1-.09.4.4,0,0,0,.08-.24A.36.36,0,0,0,415.68,224.41Zm-42.54,6.49q24.32.76,48.64,0c0,3.49,0,7.35,0,11-10.66-.78-21.33-1.26-32-1.23a142.21,142.21,0,0,0-16.63.9C373.16,237.9,373.14,234.18,373.14,230.9Zm48.82-31c-.17,4.2-.19,9.51-.19,14.68a25.5,25.5,0,0,0-5.53-.56c-5.78-.1-11.53.55-17.29,1-7.67.57-15.37.92-23.07,1-.91,0-1.82.07-2.73.08,0-5.27,0-10.68-.17-15C389.31,201.42,405.65,200.93,422,199.94Zm-49,1.22c-.16,4.31-.18,9.71-.17,15-1.37,0-2.74-.06-4.1-.18,0-1.64,0-3.25,0-4.58,0-2.94.1-7.26-.15-10.31ZM368.66,216c1.36.12,2.73.17,4.1.18,0,2.51,0,5,0,7.29-13.34-.53-24.35-1.16-39.87-1.61-1.36,0-2.68-.05-4-.05-3.64,0-6.92.15-9.88.39,0-2.65,0-5.52,0-8.42l.6-.1a113.42,113.42,0,0,1,42.15,1.24,46.31,46.31,0,0,0,6.43,1c0,2.21,0,4.48.2,6.23C368.64,220.44,368.66,218.19,368.66,216Zm-47.94-17.21c14.21.26,28.37,1.67,42.57,2.14l5.13.13c-.26,3.06-.11,7.35-.15,10.31,0,1.32,0,2.91,0,4.54a46.42,46.42,0,0,1-6.42-1,113.26,113.26,0,0,0-42.16-1.21l-.6.1c0-5.32,0-10.71-.19-15Zm-1.85,0c-.17,4.32-.19,9.73-.19,15.06-1.37.23-2.74.47-4.1.74,0-1.78,0-3.54,0-5,0-3.1.11-7.68-.16-10.84C315.89,198.74,317.38,198.74,318.87,198.77Zm-4.48,24.68c1.35-.17,2.78-.33,4.31-.46,0,1.23,0,2.42,0,3.53,0,7.48-.1,18.91.14,26.75l-4.26-.15C314.54,244.7,314.68,231.82,314.39,223.45Zm-11.51,1.61c0-1.85,0-4.26,0-6.87.29-.15.57-.3.84-.42a49.67,49.67,0,0,1,10.43-3.1c0,2.18,0,4.39.2,6.12.17-1.76.2-4,.2-6.2,1.36-.27,2.73-.51,4.1-.74,0,2.89,0,5.74,0,8.38A77.89,77.89,0,0,0,302.88,225.06Zm-75.11,60.16c19.75.31,40,.36,60.18.26,0,.65,0,1.3,0,1.95,0-.65,0-1.3,0-1.95h.84c0,.65,0,1.3,0,1.95,0-.65,0-1.3,0-1.95,21.59-.1,43.19-.35,64.27-.57v-.27c-6-.45-12-.7-17.94-1-6.84-.25-13.82-.43-20.87-.55.26-7.8.16-19.33.17-27.67,10.42.51,20.82.86,31.16.82,7.58,0,15.15-.11,22.73-.32,0,.55,0,1.13-.07,1.71q-24.24-.76-48.51,0,24.25.78,48.51,0c-.22,7.25-.09,17.15-.12,24v2.25q-5.44.31-10.88.7c3.32.08,7,.15,10.88.21,0,7.1-.07,16.4.19,22.61.26-6.23.19-15.5.18-22.61l4.13,0c0,7.44-.11,18.89.18,26.27H350.08q.09-5.82,0-11.64a.59.59,0,0,1,.39,0c.25.14.56.46.81.17s.54-.75.86-1.09a6.17,6.17,0,0,1,2.79-1.52,6.2,6.2,0,0,0-2.8,1.52c-.31.33-.52.76-.85,1.08s-.56,0-.8-.17a.62.62,0,0,0-.4,0c0-.17,0-.35,0-.52v.52a1.32,1.32,0,0,0-.7,1.08v.08a1.34,1.34,0,0,1,.7-1.15q-.07,5.82,0,11.64H348.8q.07-6.07,0-12.17-.07,6.09,0,12.17l-59,0c-.18-3.95-.61-8.16-.89-12.19.26,4.07.56,8.13.85,12.19H288c.11-4,0-8.58,0-12.75,0,4.25,0,8.5,0,12.75h-4.16q.09-6.09,0-12.19-.09,6.09,0,12.19H282.5q.09-5.82,0-11.66a1.33,1.33,0,0,1,.69,1.15v-.08a1.3,1.3,0,0,0-.69-1.08c0-.17,0-.35,0-.52v.52a.62.62,0,0,0-.4,0c-.25.14-.55.46-.8.17s-.54-.75-.86-1.08a6.15,6.15,0,0,0-2.8-1.52,6.15,6.15,0,0,1,2.8,1.52c.31.34.52.76.85,1.09s.57,0,.81-.17a.62.62,0,0,1,.4,0q-.08,5.84,0,11.66l-35,0q.07-6.39,0-12.78-.09,6.39,0,12.78h-1.35c.06-4.08.05-8.15,0-12.22a1.36,1.36,0,0,1,.73,1.19v-.07a1.32,1.32,0,0,0-.73-1.13v0a.61.61,0,0,0-.42,0c-.26.14-.57.47-.84.17s-.56-.78-.89-1.13a6.37,6.37,0,0,0-2.93-1.58,6.26,6.26,0,0,1,2.92,1.59c.33.35.55.79.89,1.13s.6,0,.85-.17a.61.61,0,0,1,.42,0q-.07,6.11,0,12.22h-18.4Z"/><path class="cls-1" d="M246.91,300a5.76,5.76,0,0,1,.22-1.59A4,4,0,0,0,246.91,300Z"/><path class="cls-1" d="M247.37,297.92a2.07,2.07,0,0,1,.37-.42h0A1.86,1.86,0,0,0,247.37,297.92Z"/><path class="cls-1" d="M246.91,300v.1a.17.17,0,0,1,0,.07Z"/><path class="cls-1" d="M247.72,297.49h.06l1-.33,0,0h-.05l-.17,0h.11l-.87.29a1.43,1.43,0,0,1,.59-.26,1.33,1.33,0,0,0-.65.29l-.23.07.19,0Z"/><path class="cls-1" d="M240.28,291.27a3.54,3.54,0,0,0-2.85,0c.85-2.14,3.53-1.32,5.32-1.57a4.24,4.24,0,0,1-1.77-2.08l1.53.52h0l.22,0-.22-.08c-.11,0-.13-.19-.06-.29s.22-.12.34-.09c.51.19,1.72.9,2.22,1.15l.05,0a2.42,2.42,0,0,1,.44-1.43,2.23,2.23,0,0,1,.67,1.57v.22l.06-.21a2.58,2.58,0,0,1,1.85-1.69c.12,0,.15.15.07.17h0l-.3.09a1.63,1.63,0,0,0,.31,0h0a9.92,9.92,0,0,1,5.61-.08l-3.55,1h0l0,.09h0a4.13,4.13,0,0,1,1.64-.19c.13,0,.26.07.28.19,0,.49-.68.25-1,.55l0,0a9.26,9.26,0,0,0,1.46.85h-.55l.18.08a4.51,4.51,0,0,1,2.29,2.78c-1.88-.28-4.11-.47-5.63.83l0,0h0a2.32,2.32,0,0,0-.25.21l.28-.16a5.12,5.12,0,0,1,4.71-.14A37.67,37.67,0,0,0,248,295v0a10.21,10.21,0,0,1,4.72-.33,4.36,4.36,0,0,1,3.4,3,14.84,14.84,0,0,0-8-.28,15.85,15.85,0,0,1,8,.29h0v0c-.64-2.47-3.51-3.44-5.82-3.13-.42,0-.84.11-1.26.19a37.72,37.72,0,0,1,4.57-1l.1,0-.09,0a5.18,5.18,0,0,0-4.5-.09c1.52-1.09,3.6-.84,5.37-.58h.06l0-.07a4.56,4.56,0,0,0-2.22-2.81h.6a9.13,9.13,0,0,1-1.7-1c.27-.19,1,0,1-.6,0-.18-.22-.25-.36-.27a4.21,4.21,0,0,0-.71,0l2.76-.8.14,0a9.94,9.94,0,0,0-5.84,0,.13.13,0,0,0,0-.09.18.18,0,0,0-.18-.12,2.18,2.18,0,0,0-1,.49,2.71,2.71,0,0,0-.82,1.15,2.25,2.25,0,0,0-.73-1.56,2.47,2.47,0,0,0-.49,1.43c-.54-.27-1.69-.94-2.2-1.13a.35.35,0,0,0-.4.12.31.31,0,0,0,0,.28l-1.44-.49-.05,0a4.22,4.22,0,0,0,1.72,2.14c-1.78.19-4.44-.52-5.23,1.63a4,4,0,0,1,4.92,1.91A3.68,3.68,0,0,0,240.28,291.27Z"/><path class="cls-1" d="M242.3,293.18l0,.07h0Z"/><path class="cls-1" d="M247.74,297.5l.41-.1-.38.08Z"/><path class="cls-1" d="M236.16,297.38a2.9,2.9,0,0,1,3.1-2.25v0l-1.36-1.82.68-.17h0a.45.45,0,0,0-.21-.29c1.23-1,2.66.34,4,.45v0c-1.31-.13-2.76-1.48-4-.43h0a.39.39,0,0,1,.21.26l-.68.18h0l1.37,1.83a2.88,2.88,0,0,0-3.08,2.27h0a6.39,6.39,0,0,1,4.94-.92A6.37,6.37,0,0,0,236.16,297.38Z"/><path class="cls-1" d="M247.72,297.49l-.19.07.17-.05,0,0Z"/><path class="cls-1" d="M245.51,296.29q-1.57-1.21-3.18-2.4c1.09.88,2.2,1.73,3.3,2.58a17.43,17.43,0,0,0-2.51-6.47A19.22,19.22,0,0,1,245.51,296.29Z"/><path class="cls-1" d="M248.12,294.76l.27-.45c.07-.14.22-.31.13-.48.08.17-.07.33-.15.47l-.27.45c-.4.64-1,1.59-1.36,2.23a3.92,3.92,0,0,1-.25.32,20.14,20.14,0,0,0-.89-7.44,24,24,0,0,1,.73,3.74,22.78,22.78,0,0,1,.07,4,3.15,3.15,0,0,1,.22-.33c.16-.1.34-.51.44-.66l.54-.9Z"/><path class="cls-1" d="M283.21,300.51v.09a.22.22,0,0,1,0,.08Z"/><path class="cls-1" d="M272.91,298h0c0-.07,0-.13.05-.19Z"/><path class="cls-1" d="M283.21,300.51a5.78,5.78,0,0,1,.21-1.54A4,4,0,0,0,283.21,300.51Z"/><path class="cls-1" d="M284,298.08h0l.94-.32h0a1.37,1.37,0,0,0-1,.32l-.22.07.19,0h0Zm.85-.31-.8.27A1.35,1.35,0,0,1,284.88,297.77Z"/><path class="cls-1" d="M283.64,298.51a1.79,1.79,0,0,1,.37-.41h0A2.13,2.13,0,0,0,283.64,298.51Z"/><path class="cls-1" d="M276.87,292.14a3.41,3.41,0,0,0-2.73,0c.81-2.05,3.38-1.26,5.09-1.5a4,4,0,0,1-1.69-2l1.46.5h0l.22,0-.22-.08c-.11,0-.12-.19-.06-.28a.29.29,0,0,1,.33-.09c.48.19,1.64.87,2.12,1.1l.05,0v-.06a2.29,2.29,0,0,1,.42-1.31,2.19,2.19,0,0,1,.64,1.71,2.58,2.58,0,0,1,1.49-1.73c.13,0,.36-.17.44,0s0,.1,0,.09h0l-.31.1c.1,0,.22,0,.32,0h0a9.49,9.49,0,0,1,5.36-.07l-3.39,1h0l0,.09h0a3.86,3.86,0,0,1,1.58-.19c.12,0,.25.07.26.18,0,.48-.65.24-.95.53l0,0a9.68,9.68,0,0,0,1.39.81h-.52a4.34,4.34,0,0,1,2.37,2.74,12.43,12.43,0,0,0-2.79-.18,4.29,4.29,0,0,0-2.59,1l-.05,0h0a2.41,2.41,0,0,0-.24.21l.27-.16a4.92,4.92,0,0,1,4.51-.13,35.68,35.68,0,0,0-5.31,1.27h0v.05a9.87,9.87,0,0,1,4.51-.32,4.19,4.19,0,0,1,3.26,2.85,14.28,14.28,0,0,0-7.68-.27,15.31,15.31,0,0,1,7.69.28h0a3.6,3.6,0,0,0-1.25-1.92c-1.54-1.3-3.61-1.29-5.51-.92a34.17,34.17,0,0,1,4.35-1l.1,0-.09,0a5,5,0,0,0-4.3-.1c1.46-1,3.44-.79,5.13-.55h.06l0-.06a4.4,4.4,0,0,0-2.12-2.69H289a9.3,9.3,0,0,1-1.63-.91c.27-.18.93,0,.92-.57a.35.35,0,0,0-.34-.26,3.74,3.74,0,0,0-.67,0l2.63-.76.14,0a9.63,9.63,0,0,0-5.6,0,.1.1,0,0,0,0-.08.18.18,0,0,0-.17-.12,2.1,2.1,0,0,0-1,.47,2.74,2.74,0,0,0-.78,1.09,2.17,2.17,0,0,0-.69-1.48,2.32,2.32,0,0,0-.48,1.37c-.52-.26-1.61-.9-2.1-1.08a.33.33,0,0,0-.39.11.32.32,0,0,0,0,.27l-1.37-.48h-.06a4.06,4.06,0,0,0,1.65,2.05c-1.7.18-4.25-.5-5,1.56A3.79,3.79,0,0,1,278.8,294,3.55,3.55,0,0,0,276.87,292.14Z"/><path class="cls-1" d="M284,298.1l.38-.1-.36.08Z"/><path class="cls-1" d="M283.81,298.15l.16,0,0,0Z"/><path class="cls-1" d="M275.87,295.83h0l-1.3-1.74.65-.17h0a.43.43,0,0,0-.21-.28c1.18-1,2.55.32,3.81.44l0,0c-1.25-.12-2.63-1.41-3.81-.41h0a.39.39,0,0,1,.2.25l-.65.17h0v0s1.32,1.79,1.32,1.73a2.8,2.8,0,0,0-2.9,2A2.8,2.8,0,0,1,275.87,295.83Z"/><path class="cls-1" d="M272.92,298h0a6.06,6.06,0,0,1,4.72-.89A6.11,6.11,0,0,0,272.92,298Z"/><path class="cls-1" d="M278.8,294s0,.05,0,.07h0Z"/><path class="cls-1" d="M281.87,296.93c-1-.76-2-1.53-3-2.28,1,.84,2.1,1.65,3.16,2.47a16.73,16.73,0,0,0-2.4-6.2A18.91,18.91,0,0,1,281.87,296.93Z"/><path class="cls-1" d="M284.37,295.48l.25-.43c.07-.14.21-.3.13-.46.08.16-.07.32-.14.45l-.27.43c-.37.61-.92,1.52-1.3,2.13a1.7,1.7,0,0,1-.23.3,19,19,0,0,0-.85-7.11,21.57,21.57,0,0,1,.76,7.37,2.57,2.57,0,0,1,.22-.32,3.46,3.46,0,0,0,.42-.63l.51-.86Z"/><path class="cls-1" d="M490.29,297.49h0l.19,0-.23-.07a1.19,1.19,0,0,0-.38-.21,1.24,1.24,0,0,1,.31.18l-.93-.31.29,0a1.35,1.35,0,0,0-.29,0h-.05l.05,0,1,.33h.05Z"/><path class="cls-1" d="M501.86,297.39h0a2.93,2.93,0,0,0-3.1-2.28c0,.06,1.37-1.83,1.38-1.82h0l-.68-.18a.4.4,0,0,1,.22-.27,2,2,0,0,0-2-.23,12.17,12.17,0,0,1-2,.67,3.88,3.88,0,0,1,4.9-2h0a1.94,1.94,0,0,0-.95-1.15c-1.3-.77-2.86-.3-4.27-.48a4.27,4.27,0,0,0,1.72-2.14l-.06,0-1.44.49a.31.31,0,0,0,0-.28c-.33-.37-.83.12-1.17.25l-1.44.76a2.47,2.47,0,0,0-.49-1.43,2.25,2.25,0,0,0-.73,1.56,2.71,2.71,0,0,0-.82-1.15c-.2-.16-1.06-.74-1.22-.37a.28.28,0,0,0,0,.09,10,10,0,0,0-5.84,0l.14,0,2.76.8a4.18,4.18,0,0,0-.71,0c-.14,0-.33.09-.36.27,0,.56.69.41,1,.6a9.46,9.46,0,0,1-1.7,1h.59a4.56,4.56,0,0,0-2.22,2.81l0,.07h.07c1.76-.26,3.84-.51,5.37.58a5.21,5.21,0,0,0-4.51.09l-.09,0,.1,0a37.72,37.72,0,0,1,4.57,1c-2-.39-4.17-.4-5.78,1a3.67,3.67,0,0,0-1.3,2h0a15.85,15.85,0,0,1,8-.29,14.84,14.84,0,0,0-8,.28,4.36,4.36,0,0,1,3.41-3A10.18,10.18,0,0,1,490,295l0,0a38.11,38.11,0,0,0-5.56-1.33,5.14,5.14,0,0,1,4.72.14l.27.16a1.73,1.73,0,0,0-.25-.21h0l-.05,0a4.53,4.53,0,0,0-2.71-1,13,13,0,0,0-2.92.2A4.5,4.5,0,0,1,486,290h-.54a8.74,8.74,0,0,0,1.45-.85c-.22-.27-.61-.17-.84-.31s-.21-.17-.19-.28.15-.18.28-.19a4.21,4.21,0,0,1,1.65.19h0l0-.09h0l-3.55-1a9.92,9.92,0,0,1,5.61.08h0l.3,0-.3-.09h0c-.08,0,0-.18.08-.17a2.55,2.55,0,0,1,1.84,1.69l.07.21V289a2.23,2.23,0,0,1,.67-1.57,2.37,2.37,0,0,1,.45,1.38s0,.06,0,0c.51-.25,1.72-1,2.22-1.15a.32.32,0,0,1,.35.09c.06.1.05.28-.07.3l-.22.07.22,0h0l1.52-.52a4.17,4.17,0,0,1-1.76,2.08c1.78.25,4.46-.57,5.31,1.57a3.54,3.54,0,0,0-2.85,0,3.64,3.64,0,0,0-2.06,2c1.31-.11,2.74-1.47,4-.45a.46.46,0,0,0-.22.29h0l.68.17-1.35,1.82a2.94,2.94,0,0,1,3.08,2.27,6.35,6.35,0,0,0-4.93-.91A6.39,6.39,0,0,1,501.86,297.39Z"/><path class="cls-1" d="M490.31,297.51l.17.05-.18-.07h0Z"/><path class="cls-1" d="M490.65,297.93a2,2,0,0,0-.34-.42h0A1.92,1.92,0,0,1,490.65,297.93Z"/><path class="cls-1" d="M491.1,300a4,4,0,0,0-.22-1.59A5.7,5.7,0,0,1,491.1,300Z"/><path class="cls-1" d="M491.1,300.19s0-.05,0-.07v.07Z"/><path class="cls-1" d="M490.25,297.48l-.39-.08.41.1Z"/><path class="cls-1" d="M495.68,293.89c-1.07.79-2.12,1.59-3.18,2.4a19.45,19.45,0,0,1,2.39-6.29,17.43,17.43,0,0,0-2.51,6.47C493.48,295.62,494.59,294.77,495.68,293.89Z"/><path class="cls-1" d="M491.39,297.23a3.15,3.15,0,0,1,.22.33,22.22,22.22,0,0,1,.8-7.7,20.14,20.14,0,0,0-.89,7.44,3.81,3.81,0,0,1-.24-.32l-1.36-2.23-.28-.45c-.08-.14-.22-.3-.15-.47-.08.17.06.34.14.48l.26.45.53.91.53.9C491.06,296.72,491.24,297.13,491.39,297.23Z"/><path class="cls-1" d="M454.37,298.51a2.08,2.08,0,0,0-.32-.4H454A1.79,1.79,0,0,1,454.37,298.51Z"/><path class="cls-1" d="M454.21,298.15l-.18-.06a0,0,0,0,0,0,0Z"/><path class="cls-1" d="M454.8,300.68s0-.05,0-.08v.08Z"/><path class="cls-1" d="M454,298.08l-.36-.08.38.1Z"/><path class="cls-1" d="M459.17,294h0l0-.07A.35.35,0,0,1,459.17,294Z"/><path class="cls-1" d="M454.8,300.51a4,4,0,0,0-.21-1.54A5.07,5.07,0,0,1,454.8,300.51Z"/><path class="cls-1" d="M454,298.09h0l.18,0-.22-.07a1.2,1.2,0,0,0-.37-.2,1.12,1.12,0,0,1,.31.18l-.89-.3h0l.93.32H454Z"/><path class="cls-1" d="M463.92,292.14c-.74-2.06-3.3-1.38-5-1.56a4.06,4.06,0,0,0,1.65-2.05h-.05l-1.38.48a.29.29,0,0,0,0-.27.33.33,0,0,0-.39-.11c-.49.18-1.58.82-2.1,1.08a2.31,2.31,0,0,0-.47-1.37,2.14,2.14,0,0,0-.7,1.48,2.64,2.64,0,0,0-.78-1.09c-.2-.15-1-.71-1.17-.35,0,0,0,.05,0,.08a9.56,9.56,0,0,0-5.58,0l.13,0,2.55.74c-.44,0-.86,0-.93.27,0,.53.65.39.92.57A9.3,9.3,0,0,1,449,291h.57a4.4,4.4,0,0,0-2.12,2.69l0,.06h.07c1.68-.24,3.66-.48,5.12.55a5,5,0,0,0-4.3.1l-.09,0,.1,0a34.17,34.17,0,0,1,4.35,1c-1.9-.37-4-.38-5.51.92a3.53,3.53,0,0,0-1.24,1.92h0a15.31,15.31,0,0,1,7.69-.28,14.28,14.28,0,0,0-7.68.27,4.19,4.19,0,0,1,3.26-2.85,9.85,9.85,0,0,1,4.51.32v-.05h0a35.68,35.68,0,0,0-5.31-1.27,4.92,4.92,0,0,1,4.51.13l.28.16c-.08-.08-.17-.14-.25-.21h0l0,0c-1.46-1.25-3.59-1.07-5.39-.8a4.32,4.32,0,0,1,2.2-2.66l.17-.08h-.52a9.17,9.17,0,0,0,1.39-.81c-.22-.26-.59-.17-.81-.3s-.2-.16-.18-.27.14-.16.27-.18a3.82,3.82,0,0,1,1.57.19h0l0-.09h0l-3.4-1a9.53,9.53,0,0,1,5.37.07h0l.3,0-.3-.1h0c-.08,0-.05-.17.07-.16a2.46,2.46,0,0,1,1.76,1.62l.07.2V290a2.12,2.12,0,0,1,.64-1.5,2.3,2.3,0,0,1,.43,1.31c0,.06,0,.07,0,0,.48-.24,1.65-.92,2.13-1.1a.27.27,0,0,1,.32.09c.06.1.05.27-.06.28l-.22.08.22,0h0l1.45-.5a4,4,0,0,1-1.69,2c1.72.24,4.28-.55,5.1,1.5a3.41,3.41,0,0,0-2.73,0,3.49,3.49,0,0,0-1.93,1.82A3.78,3.78,0,0,1,463.92,292.14Z"/><path class="cls-1" d="M465.1,298h0a2.75,2.75,0,0,0-3-2.17l1.31-1.75v0h0l-.66-.17a.39.39,0,0,1,.2-.25h0c-1.17-1-2.56.29-3.81.41,0,0,0,0,0,0,1.25-.12,2.62-1.42,3.8-.44a.46.46,0,0,0-.21.28h0l.66.17-1.3,1.74h0a2.8,2.8,0,0,1,3,2.16,6.13,6.13,0,0,0-4.73-.88A6.09,6.09,0,0,1,465.1,298Z"/><path class="cls-1" d="M459.18,294.65c-1,.75-2,1.52-3,2.28a18.69,18.69,0,0,1,2.29-6,16.39,16.39,0,0,0-2.4,6.2C457.08,296.3,458.14,295.49,459.18,294.65Z"/><path class="cls-1" d="M455.08,297.84c.07.08.14.22.21.32a21.57,21.57,0,0,1,.77-7.37,19.26,19.26,0,0,0-.86,7.11c-.07-.1-.16-.18-.23-.3-.37-.61-.92-1.52-1.3-2.13l-.26-.43c-.08-.13-.22-.29-.15-.45-.08.16.06.32.13.46l.25.43.51.87.51.86C454.76,297.35,454.93,297.75,455.08,297.84Z"/><path class="cls-1" d="M389.08,298.1l.39-.1-.36.08Z"/><path class="cls-1" d="M388.28,300.51v.09s0,0,0,.08S388.29,300.57,388.28,300.51Z"/><path class="cls-1" d="M378,298a2.78,2.78,0,0,1,2.95-2.17h0l-1.3-1.74.66-.17h0a.46.46,0,0,0-.21-.28c1.18-1,2.55.32,3.8.44,0,0,0,0,0,0-1.25-.12-2.64-1.41-3.82-.41h0a.42.42,0,0,1,.2.25l-.66.17h0v0s1.31,1.79,1.32,1.73a2.79,2.79,0,0,0-3,2.19,6.09,6.09,0,0,1,4.73-.89A6.07,6.07,0,0,0,378,298Z"/><path class="cls-1" d="M388.88,298.15l.16,0a0,0,0,0,0,0,0Z"/><path class="cls-1" d="M381.94,292.14a3.41,3.41,0,0,0-2.73,0c.82-2.05,3.38-1.26,5.09-1.5a4,4,0,0,1-1.68-2l1.45.5h0l.22,0-.23-.08c-.1,0-.12-.19-.06-.28a.29.29,0,0,1,.33-.09c.49.19,1.64.87,2.13,1.1l0,0v-.06a2.3,2.3,0,0,1,.43-1.31,2.15,2.15,0,0,1,.63,1.71,2.62,2.62,0,0,1,1.5-1.73c.13,0,.35-.17.44,0s0,.1,0,.09h0l-.3.1c.09,0,.22,0,.31,0h0a9.49,9.49,0,0,1,5.36-.07l-3.39,1h0l0,.09h0a3.82,3.82,0,0,1,1.57-.19c.13,0,.25.07.27.18,0,.48-.65.24-.95.53l0,0a9.17,9.17,0,0,0,1.39.81h-.52a4.3,4.3,0,0,1,2.36,2.74,12.4,12.4,0,0,0-2.79-.18,4.29,4.29,0,0,0-2.59,1l-.05,0h0c-.08.07-.17.13-.25.21l.28-.16a4.92,4.92,0,0,1,4.51-.13,35.68,35.68,0,0,0-5.31,1.27h0l0,.05a9.85,9.85,0,0,1,4.51-.32,4.19,4.19,0,0,1,3.26,2.85,14.28,14.28,0,0,0-7.68-.27,15.31,15.31,0,0,1,7.69.28h0a3.53,3.53,0,0,0-1.24-1.92c-1.54-1.3-3.61-1.29-5.51-.92a34.17,34.17,0,0,1,4.35-1l.09,0-.08,0a5,5,0,0,0-4.3-.1c1.46-1,3.44-.79,5.12-.55h.06v-.06a4.38,4.38,0,0,0-2.13-2.69h.58a9.3,9.3,0,0,1-1.63-.91c.27-.18.92,0,.92-.57a.35.35,0,0,0-.35-.26,3.76,3.76,0,0,0-.67,0l2.64-.76.13,0a9.59,9.59,0,0,0-5.59,0s0,0,0-.08a.18.18,0,0,0-.18-.12,2.07,2.07,0,0,0-1,.47,2.64,2.64,0,0,0-.78,1.09,2.14,2.14,0,0,0-.7-1.48,2.25,2.25,0,0,0-.47,1.37c-.52-.26-1.62-.9-2.1-1.08a.33.33,0,0,0-.39.11.28.28,0,0,0,0,.27l-1.38-.48h-.05a4.06,4.06,0,0,0,1.65,2.05c-1.71.18-4.26-.5-5,1.56a3.79,3.79,0,0,1,4.71,1.82A3.52,3.52,0,0,0,381.94,292.14Z"/><path class="cls-1" d="M389.11,298.08h0l.93-.32h0a1.36,1.36,0,0,0-.94.32l-.22.07.18,0h.05Zm.84-.31-.79.27A1.35,1.35,0,0,1,390,297.77Z"/><path class="cls-1" d="M388.72,298.51a2,2,0,0,1,.36-.41h0A2.08,2.08,0,0,0,388.72,298.51Z"/><path class="cls-1" d="M388.28,300.51a5.29,5.29,0,0,1,.22-1.53A4.09,4.09,0,0,0,388.28,300.51Z"/><path class="cls-1" d="M383.87,294l0,.07h0S383.88,294,383.87,294Z"/><path class="cls-1" d="M387,296.93c-1-.76-2-1.53-3-2.28,1,.84,2.1,1.65,3.15,2.47a16.56,16.56,0,0,0-2.4-6.2A18.93,18.93,0,0,1,387,296.93Z"/><path class="cls-1" d="M389.45,295.48l.25-.43c.07-.14.21-.3.12-.46.08.16-.06.32-.14.45l-.26.43c-.38.61-.93,1.52-1.3,2.13-.07.12-.16.2-.23.3a19.26,19.26,0,0,0-.86-7.11,21.57,21.57,0,0,1,.77,7.37,2.53,2.53,0,0,1,.21-.32c.15-.1.32-.49.42-.63l.51-.86Z"/><path class="cls-1" d="M358.5,292.14c-.75-2.06-3.3-1.38-5-1.56a4.06,4.06,0,0,0,1.65-2.05h-.05l-1.38.48a.29.29,0,0,0,0-.27.33.33,0,0,0-.39-.11c-.49.18-1.58.82-2.1,1.08a2.25,2.25,0,0,0-.47-1.37,2.14,2.14,0,0,0-.7,1.48,2.64,2.64,0,0,0-.78-1.09c-.19-.15-1-.71-1.17-.35a.12.12,0,0,0,0,.08,9.59,9.59,0,0,0-5.59,0l.13,0,2.55.74c-.44,0-.86,0-.93.27,0,.53.65.39.92.57a9.3,9.3,0,0,1-1.63.91h.58a4.38,4.38,0,0,0-2.13,2.69v.06H342c1.68-.24,3.66-.48,5.12.55a5,5,0,0,0-4.3.1l-.08,0,.09,0a34.17,34.17,0,0,1,4.35,1c-1.9-.37-4-.38-5.51.92a3.53,3.53,0,0,0-1.24,1.92h0a15.31,15.31,0,0,1,7.69-.28,14.28,14.28,0,0,0-7.68.27,4.19,4.19,0,0,1,3.26-2.85,9.85,9.85,0,0,1,4.51.32l0-.05h0a35.68,35.68,0,0,0-5.31-1.27,4.92,4.92,0,0,1,4.51.13l.28.16c-.08-.08-.17-.14-.25-.21h0l0,0c-1.47-1.25-3.6-1.07-5.4-.8a4.35,4.35,0,0,1,2.2-2.66l.17-.08h-.52a8.7,8.7,0,0,0,1.39-.81c-.22-.26-.59-.17-.81-.3s-.2-.16-.18-.27.14-.16.27-.18a3.82,3.82,0,0,1,1.57.19h0l0-.09h0l-3.39-1a9.49,9.49,0,0,1,5.36.07h0l.3,0-.3-.1h0c-.08,0,0-.17.07-.16A2.46,2.46,0,0,1,350,290l.07.2V290a2.07,2.07,0,0,1,.63-1.5,2.3,2.3,0,0,1,.43,1.31c0,.06,0,.07,0,0,.48-.24,1.65-.92,2.13-1.1a.29.29,0,0,1,.33.09c.06.1,0,.27-.07.28l-.22.08.22,0h0l1.45-.5a4,4,0,0,1-1.68,2c1.71.24,4.27-.55,5.09,1.5a3.41,3.41,0,0,0-2.73,0,3.52,3.52,0,0,0-1.93,1.82A3.79,3.79,0,0,1,358.5,292.14Z"/><path class="cls-1" d="M353.75,294h0l0-.07S353.76,294,353.75,294Z"/><path class="cls-1" d="M348.6,298.09h0l.18,0-.22-.07a1.2,1.2,0,0,0-.37-.2,1.12,1.12,0,0,1,.31.18l-.88-.3.25,0a1,1,0,0,0-.25,0h0l.93.32h.06Z"/><path class="cls-1" d="M348.55,298.08l-.36-.08.39.1Z"/><path class="cls-1" d="M349.38,300.51a4.17,4.17,0,0,0-.22-1.54A5.41,5.41,0,0,1,349.38,300.51Z"/><path class="cls-1" d="M348.78,298.15l-.18-.06a0,0,0,0,0,0,0Z"/><path class="cls-1" d="M349.37,300.68s0-.05,0-.08v-.09C349.37,300.56,349.38,300.62,349.37,300.68Z"/><path class="cls-1" d="M348.94,298.51a2.08,2.08,0,0,0-.32-.4h0A1.74,1.74,0,0,1,348.94,298.51Z"/><path class="cls-1" d="M359.67,298h0a2.75,2.75,0,0,0-2.95-2.17l1.31-1.75v0h0l-.66-.17a.42.42,0,0,1,.2-.25h0c-1.18-1-2.57.29-3.82.41,0,0,0,0,0,0,1.25-.12,2.62-1.42,3.8-.44a.46.46,0,0,0-.21.28h0l.66.17-1.3,1.74h0a2.79,2.79,0,0,1,2.95,2.16,6.12,6.12,0,0,0-4.73-.88A6.09,6.09,0,0,1,359.67,298Z"/><path class="cls-1" d="M353.75,294.65c-1,.75-2,1.52-3,2.28a18.93,18.93,0,0,1,2.29-6,16.56,16.56,0,0,0-2.4,6.2C351.65,296.3,352.71,295.49,353.75,294.65Z"/><path class="cls-1" d="M349.65,297.84a2.53,2.53,0,0,1,.21.32,21.57,21.57,0,0,1,.77-7.37,19.26,19.26,0,0,0-.86,7.11c-.07-.1-.16-.18-.23-.3-.37-.61-.92-1.52-1.3-2.13L348,295c-.08-.13-.22-.29-.14-.45-.09.16.05.32.12.46l.25.43.51.87.51.86C349.33,297.35,349.5,297.75,349.65,297.84Z"/><path class="cls-1" d="M302.88,55.57h0c.05-6,.05-18.17,0-24.21Z"/><path class="cls-1" d="M302.88,88.79v16.26h0C302.93,101,302.93,92.85,302.88,88.79Z"/><path class="cls-1" d="M435.85,95.34v2.23A12.77,12.77,0,0,0,435.85,95.34Z"/><path class="cls-1" d="M289.82,182.46h0c.05-9.75.05-29.37,0-39.12Z"/><path class="cls-1" d="M302.88,160.45h0c.05-4,.05-12.2,0-16.25Z"/><path class="cls-1" d="M276.39,256.84v14.75h0C276.44,267.92,276.44,260.52,276.39,256.84Z"/><path class="cls-1" d="M276.39,273.7v3.55A32.34,32.34,0,0,0,276.39,273.7Z"/><path class="cls-1" d="M276.39,280.47v2.25A13,13,0,0,0,276.39,280.47Z"/><path class="cls-1" d="M302.88,257.7v7.5C303,262.72,302.94,260.2,302.88,257.7Z"/><path class="cls-1" d="M299.27,30.56c2.29.06,4.59.11,6.89.12C303.87,30.63,301.58,30.58,299.27,30.56Z"/><path class="cls-1" d="M311.45,30.56c-1.38.12-2.8.12-4.2.13h-1.09l1.09,0C308.65,30.69,310.05,30.7,311.45,30.56Z"/><path class="cls-1" d="M306.15,87.77l1.1,0c1.4,0,2.8,0,4.2-.14-1.38.12-2.8.12-4.2.13Z"/><path class="cls-1" d="M250.64,88.44c16-.24,32.59-.92,48.62-.79-1.53,0-3.06-.07-4.59-.08C280.61,87.55,265.08,88.2,250.64,88.44Z"/><path class="cls-1" d="M306.15,87.77q-3.42-.09-6.89-.12C301.56,87.7,303.85,87.76,306.15,87.77Z"/><path class="cls-1" d="M299.26,143.05c-1.53,0-3.06-.07-4.59-.08-14.06,0-29.59.63-44,.87C266.64,143.6,283.23,142.92,299.26,143.05Z"/><path class="cls-1" d="M299.26,143.05c2.3.06,4.6.11,6.9.12Q302.73,143.08,299.26,143.05Z"/><path class="cls-1" d="M311.45,143.05c-1.38.12-2.8.12-4.2.13h-1.09l1.09,0C308.65,143.18,310.05,143.19,311.45,143.05Z"/><path class="cls-1" d="M311.45,201c-1.38.12-2.8.12-4.2.13h-1.09l1.09,0C308.65,201.11,310.05,201.12,311.45,201Z"/><path class="cls-1" d="M299.26,201c2.3.06,4.6.11,6.9.12C303.87,201.05,301.57,201,299.26,201Z"/><path class="cls-1" d="M299.26,201c-1.53,0-3.06-.07-4.59-.08-14.06,0-29.59.63-44,.87C266.64,201.53,283.23,200.85,299.26,201Z"/><path class="cls-1" d="M299.26,256.55c2.3.06,4.6.11,6.9.12C303.87,256.62,301.57,256.57,299.26,256.55Z"/><path class="cls-1" d="M299.26,256.55c-1.53,0-3.06-.07-4.59-.08-14.06,0-29.59.64-44,.87C266.64,257.1,283.23,256.42,299.26,256.55Z"/><path class="cls-1" d="M311.45,256.55c-1.38.12-2.8.12-4.2.13h-1.09l1.09,0C308.65,256.68,310.05,256.69,311.45,256.55Z"/><path class="cls-1" d="M234.61,32.83c.63-.22,1.29-.38,1.95-.55a19.66,19.66,0,0,0-2,.54c-1.74.56-4.33,1.9-3.79,4,0,2.9,0,7,0,10v-10C230.33,34.67,232.9,33.42,234.61,32.83Z"/><path class="cls-1" d="M389.57,47.22a63.41,63.41,0,0,1-16.36-2.42,63,63,0,0,0,16.36,2.47c7.07-.25,14.2-2.13,21.24-.69h0C403.77,45.12,396.63,47,389.57,47.22Z"/><path class="cls-1" d="M366,76.32h0c-9.4-1.08-18.52-4-27.36-7.25C347.41,72.42,356.55,75.29,366,76.32Z"/><path class="cls-1" d="M421.88,72.23l-5.33,1.24a187,187,0,0,1-41.61,4,183.1,183.1,0,0,0,41.62-4l5.32-1.26,5.27-1.44,5.21-1.66c-1.16.35-4.07,1.29-5.21,1.64Z"/><path class="cls-1" d="M309.87,98.15a29.34,29.34,0,0,1,3.11-1.7,27.62,27.62,0,0,0-3.12,1.68,18.1,18.1,0,0,0-3.67,3,14.08,14.08,0,0,0-3.5,6.74A15.45,15.45,0,0,1,309.87,98.15Z"/><path class="cls-1" d="M342.62,152.08c5.67.45,13.65,1.28,19.41,1.8h0c-5.72-.54-13.77-1.39-19.41-1.85a79.29,79.29,0,0,0-9.75-.08,31.65,31.65,0,0,0-9.55,1.74,32.2,32.2,0,0,1,9.56-1.71A79.16,79.16,0,0,1,342.62,152.08Z"/><path class="cls-1" d="M225.79,54.4l.24-.1c-2.73-6.85-5.26-13.89-6.36-21.2a18.63,18.63,0,0,1,4.79-15.26c3.85-4,9.44-5.85,14.91-6.25a48.5,48.5,0,0,1,11,.55c7.32,1.15,14.58,2.63,21.86,4,10.92,2.05,21.91,3.83,33,4.88a216.92,216.92,0,0,0,44.42-.14c3.68-.44,7.36-.91,11-1.56,29.16-5.22,58.51-9.51,88-12,11.06-.82,22.19-1.56,33.27-.81,3.62.36,7.44.61,10.69,2.37a3.93,3.93,0,0,1,1.73,2,13.31,13.31,0,0,1,1.39,5.28c.19,1.8-.57,3.92.64,5.5,2.44,2.69,9.72,3.07,13.19,4.1a14.69,14.69,0,0,1,5,2.25c3.59,2.66,1.56,6.82-1,9.32l.18.2a12.14,12.14,0,0,0,1.86-2.12c1.94-2.65,2-5.77-.62-7.88-3.13-2.43-7.1-3-10.62-3.74a31.43,31.43,0,0,1-5.18-1.53c-1.69-.71-2.51-1.47-2.3-3.31a17.64,17.64,0,0,0-.29-5.83,12.34,12.34,0,0,0-1.86-4.28,9.07,9.07,0,0,0-4.15-2.38c-6.4-1.84-13.13-1.87-19.71-2-4.55,0-9.09.12-13.63.32a24.79,24.79,0,0,0-8.49.47c-2.63.17-5.26.38-7.89.6a22.19,22.19,0,0,0-5.51-2.2c-8.06-2.15-16.56-1.43-24.68,0l-1.27.27-2.55.55A91.34,91.34,0,0,1,381.9,6.79C360.61,6,339.56,1.05,318.23.11a51.79,51.79,0,0,0-17.05,1.54c-3.85,1.2-7.72,3.25-9.89,6.79a12.33,12.33,0,0,0-1.68,8.33c-13-1.87-26-4.46-38.93-6.41-11.14-1.69-25.19-.09-30.39,11.49-3.47,7.22-1,15.11,1.36,22.21C222.88,47.57,224.27,51,225.79,54.4ZM292,9c5.25-7.42,17.82-7.44,26.05-6.85,21.35,1.56,42.33,6.63,63.77,7.17a91.32,91.32,0,0,0,20.47-1.74c5.85-1.33,11.59-3,17.58-3.6s12-.65,17.75,1.08c.82.26,1.64.55,2.43.89q-6.88.58-13.75,1.3c-18.46,2-36.84,4.52-55.15,7.6L360.23,16.7a212.27,212.27,0,0,1-54.76,1.91c-5.15-.42-10.3-1.05-15.45-1.78A12,12,0,0,1,292,9Z"/><path class="cls-1" d="M341.11,37.45c1.65.13,4,.34,5.6.54a95.21,95.21,0,0,1,13.36,2.59,96.41,96.41,0,0,0-13.35-2.65c-1.62-.2-4-.4-5.6-.52-5.64-.27-11.22,1-16.62,2.51C329.89,38.49,335.49,37.16,341.11,37.45Z"/><path class="cls-1" d="M506.64,31.78h-.76v31c-.9-.12-1.8-.22-2.7-.32-2.86-.33-5.72-.53-8.59-.62.24-5.83.1-13.89.13-19.45,0-5.78.12-14.35-.16-20.2a4,4,0,0,0,.64,1.3,9.43,9.43,0,0,0,4.35,2.68,39.34,39.34,0,0,0,4.95,1.33c3.39.74,14.35,3.61,8.08,8.09,6.27-4.42-4.44-7.41-8.05-8.22A39.85,39.85,0,0,1,499.61,26a9.12,9.12,0,0,1-4.23-2.65c-1.66-2.29.14-5-3-6.81-2.25-1.3-4.87-1.65-7.35-2.29-16.62-3.81-33.88-5.69-50.9-4-17.05,2-33.07,8.46-49.48,13.06-6.58,1.68-13.43,2.17-20.2,2.61a269.29,269.29,0,0,1-40.86-.79C303.31,22.77,282.88,20,262.37,21a87.46,87.46,0,0,0-10.21,1.07c-3.37.64-6.66,1.42-10.07,1.81s-6.79.66-10.18,1.1-7.28,1.2-8.79,4.58a11.38,11.38,0,0,0-.93,5.05,26.08,26.08,0,0,0,1,5c.89,3.29,1.87,6.57,2.76,9.86-.85-3.31-1.78-6.59-2.62-9.9a26.07,26.07,0,0,1-.89-5,11.08,11.08,0,0,1,1-4.92A6.34,6.34,0,0,1,227,26.41a21.26,21.26,0,0,1,5-1.1c2.24-.26,4.49-.45,6.75-.67-.3,6.09-.14,15.07-.18,21.16,0,5.49-.09,13.77.12,19.7a13.65,13.65,0,0,0-5.59,4,5.09,5.09,0,0,0-.86,4.18l.11.57a4.43,4.43,0,0,1,0,.52c-.21,2-2.19,3.67-4.56,5V32.28H227v48a41.06,41.06,0,0,1-6.38,2.59l.07.26a40.86,40.86,0,0,0,4.86-1.65l1.45-.66V81h.75v-.6c2.43-1.22,4.94-2.94,5.3-5.53a4.84,4.84,0,0,0-.11-1.31c-.61-3.43,2.5-5.59,5.73-6.93l0,.56c0-.18,0-.38,0-.58a31.73,31.73,0,0,1,3.8-1.26l.66-.15a.57.57,0,0,0,0,.13v-.14c6.42-1.55,13.08-1.46,19.64-1.76h.1v.43h0v-.43c2.39-.07,5.22-.11,7.58-.12,1.95,0,3.9,0,5.85.09v.46h0V63.4a212.34,212.34,0,0,1,32.32,3.34c6.6,1.23,13.46,2.87,19.9,4.71,8,2.42,16.42,5.29,24.44,7.65C388,89.64,399.27,87,433,75.37c22.55-7.46,46.16-13.93,70.12-11.77,6.76.58,13.65,1.34,20,3.84,2.29,1,4.71,2.21,6,4.43a3.5,3.5,0,0,1,.44,2.36l.25.08c.65-3.58-3.44-6.06-6.45-7.43a62.87,62.87,0,0,0-16.69-4Zm-138,7.79c0-3.77.11-9.34-.17-13.17,1.48-.12,3-.26,4.45-.42-.28,4.05-.13,9.89-.16,13.88s-.11,9.84.16,13.87c-1.47-.31-2.95-.64-4.45-1C368.76,48.89,368.61,43.35,368.65,39.57ZM289.82,62.13q-6.7-.52-13.42-.58c0-8.7,0-23.08,0-30.76q6.74-.15,13.43-.21ZM314.19,45.8c0,5.5-.09,13.79.12,19.73a203.83,203.83,0,0,0-24.48-3.4c0-8.7,0-23.76,0-31.55,3.16,0,6.32,0,9.45,0-1.54,0-3.07-.07-4.6-.08l-4.85,0c-4.39,0-8.88.12-13.43.23v0c-8.62.21-17.36.49-25.75.62,8.48-.12,17.11-.37,25.75-.56V61.55q-4.22,0-8.43.09c-1.66,0-3.32.11-5,.19,0-8.55,0-23,0-30.47V61.84c-2.61.12-5.23.28-7.83.44-1.44.08-3.12.22-4.91.43,0-8.41,0-23.61,0-31.35V62.71A56.8,56.8,0,0,0,243.28,64c.23-5.75.09-13.63.12-19.08,0-5.87.13-14.67-.18-20.46-.32,5.82-.15,14.56-.19,20.46,0,5.44-.1,13.37.12,19.12a31,31,0,0,0-4.36,1.45c.21-5.94.09-14.15.12-19.64,0-6.07.12-15.11-.18-21.16,1.14-.11,2.28-.23,3.41-.37,3.4-.37,6.76-1.15,10.1-1.76a86.14,86.14,0,0,1,10.15-1c17.39-.7,34.72,1.19,52,3.23C314.07,30.81,314.23,39.74,314.19,45.8Zm4.5,1.16c0,5.42-.08,13.54.1,19.52-1.44-.33-2.89-.63-4.34-.92.21-6,.09-14.23.12-19.76,0-6,.12-15-.17-21.07l4.48.54C318.56,31.44,318.73,40.7,318.69,47ZM494.35,42.4c0,5.54-.11,13.64.13,19.44-1.46,0-2.92-.06-4.38-.05.23-5.82.09-13.85.13-19.39,0-5.93.12-14.82-.19-20.66-.15,2.65-.19,5.9-.2,9.22-15.85,0-47.36,0-63.2,0,0-1.85-.08-3.61-.17-5.13-.32,5.21-.15,13-.19,18.32s-.12,13.14.19,18.32c.31-5.21.15-13,.19-18.32,0-3.72,0-8.73,0-13.19h63.2c0,4,0,8.16,0,11.43,0,5.52-.1,13.59.13,19.39a125.85,125.85,0,0,0-13.58.89c0-8.49,0-23.55,0-31.25V62.68c-4.58.53-9.13,1.29-13.64,2.21,0-9.08,0-25.21,0-33.46V64.89c-3.6.74-7.19,1.58-10.74,2.5-.84.21-1.67.44-2.51.66,0-10.13,0-27.62,0-36.62V68.06c-4.57,1.2-9.11,2.55-13.62,4,0-11,0-30.61,0-40.61V72c-9.3,2.94-18.54,6.12-27.93,8.6a90.39,90.39,0,0,1-9.78,1.93c-8.39,1.21-16.77.49-25.05-1.1.13-3.16,0-7,.06-9.79v-2.6q17.4.77,34.82,0-17.4-.76-34.82,0c0-3.08.06-6.68-.18-9.25-.32,3.37-.16,8.44-.19,11.86,0,2.75-.07,6.6.06,9.74-1.42-.27-2.83-.58-4.24-.9.12-3.12,0-6.87.06-9.58,0-3.42.13-8.52-.19-11.88-.27,2.81-.2,6.78-.19,10a262.66,262.66,0,0,0-28.34,0,260.11,260.11,0,0,0,28.34,0c0,.65,0,1.28,0,1.86,0,2.68-.06,6.42.05,9.52-4.9-1.12-9.75-2.47-14.54-3.84-4.55-1.33-10.14-3.06-14.62-4.51q-10-3.3-20.2-5.59c.19-6,.08-14.11.11-19.56,0-6.23.13-15.56-.19-21.69l4.68.55a265.63,265.63,0,0,0,41,.85c1.29-.08,2.6-.17,3.9-.27-.28,3.85-.12,9.38-.16,13.17V41a15.59,15.59,0,0,0-6.73,0c-.34-.1-.69-.18-1-.27.71.2,1.42.41,2.12.63l-1-.34a15.63,15.63,0,0,0,6.67,0v2.38l-.2-.07.2.07c0,3.17,0,6.66.16,9.33-2.82-.67-5.67-1.42-8.54-2.27a74.56,74.56,0,0,0-20.81-2.85,65.75,65.75,0,0,0-9.35.59l.12.74.16,0a67.91,67.91,0,0,1,9.07-.55,73.61,73.61,0,0,1,20.6,2.82c12.94,3.81,25.75,5.92,35.56,5.92,1.93,0,3.75-.08,5.44-.25,3.73-.37,6.89-.68,9.18-.68a9.57,9.57,0,0,1,3,.34,1.54,1.54,0,0,1,.67.4.69.69,0,0,1,.19.51,2.08,2.08,0,0,1-.24.86,6.79,6.79,0,0,1-.82,1.27,3.81,3.81,0,0,0-.95,2.25,2.09,2.09,0,0,0,.39,1.22,4.72,4.72,0,0,0,2,1.46A32.47,32.47,0,0,0,418.74,66a33.13,33.13,0,0,1,4.75,1.54,35.4,35.4,0,0,0,4.39,1.73,6.08,6.08,0,0,0,1.7.34,1,1,0,0,0,.23,0l-.12-.46,0-.21V68.8h-.06a5.87,5.87,0,0,1-1.48-.31,34.39,34.39,0,0,1-4.3-1.7,65,65,0,0,0-7.41-2.29,11.64,11.64,0,0,1-2.88-1.21,2.6,2.6,0,0,1-.78-.71,1.36,1.36,0,0,1-.26-.79,3.11,3.11,0,0,1,.8-1.79,7.9,7.9,0,0,0,.9-1.4,2.85,2.85,0,0,0,.31-1.19,1.45,1.45,0,0,0-.38-1,2.88,2.88,0,0,0-1.64-.78,12.94,12.94,0,0,0-2.6-.21c-2.35,0-5.53.32-9.26.69-1.65.16-3.45.25-5.36.25A113,113,0,0,1,373,53.74c.25-3.69.15-8.84.16-12.75q17.4.76,34.82,0-17.4-.78-34.82,0V39.86c0-4,.12-9.85-.16-13.88,2.3-.25,4.6-.54,6.86-.9a112.47,112.47,0,0,0,14.86-4c14.56-4.63,29.26-9.7,44.62-10.63,16.17-.94,32.42,1,48.16,4.76a16.73,16.73,0,0,1,4.79,1.62c2.35,1.29,1.74,3.35,2.25,5.26C494.22,27.93,494.38,36.55,494.35,42.4Z"/><path class="cls-1" d="M422,25.83c-.32,5.39-.15,13.5-.19,19s-.12,13.61.19,19c.32-5.4.16-13.51.19-19S422.29,31.19,422,25.83Z"/><path class="cls-1" d="M422,140.4c-.32,3.09-.15,7.74-.19,10.89,0,1.42,0,3.16,0,4.92-7.37-.57-14.78-.19-22.16,0s-14.81.34-22.21,0c7.38.41,14.82.33,22.22.09s14.78-.64,22.15-.08c0,2.12,0,4.28.2,6,.32-3.1.16-7.75.19-10.89S422.29,143.47,422,140.4Z"/><path class="cls-1" d="M421.78,175.9v1.2c.07.41.12.81.19,1.21.08-.4.13-.8.19-1.21v-7.25c-.06-.4-.11-.8-.19-1.21-.08.41-.13.81-.19,1.21v6.05Z"/><path class="cls-1" d="M426.28,177.94v1.55c.06.51.11,1,.19,1.55.08-.52.12-1,.19-1.55v-9.3c-.06-.51-.11-1-.19-1.55-.08.52-.13,1-.19,1.55v7.75Z"/><path class="cls-1" d="M372.77,100.89c.06.62.11,1.23.19,1.85.07-.62.12-1.23.18-1.85v-3.3c15.72.73,31.52,1.49,47.25.59h0c-15.73.85-31.52.07-47.25-.59V91.31q17.4.78,34.82,0-17.4-.78-34.82,0V89.79c-.07-.62-.12-1.24-.19-1.85-.08.61-.13,1.23-.19,1.85v11.1Z"/><path class="cls-1" d="M318.88,256.49c-.32,3.49-.15,8.75-.19,12.3s-.12,8.82.19,12.29c.31-3.49.15-8.75.19-12.29S319.2,260,318.88,256.49Z"/><path class="cls-1" d="M314.19,297.16c0,3.33-.12,8.32.19,11.59.31-3.29.16-8.25.19-11.59s.13-8.32-.19-11.59C314.06,288.86,314.23,293.82,314.19,297.16Z"/><path class="cls-1" d="M318.69,297.16c0,3.33-.12,8.32.19,11.59.31-3.29.15-8.25.19-11.59s.13-8.32-.19-11.59C318.56,288.86,318.73,293.82,318.69,297.16Z"/><path class="cls-1" d="M243.22,252.21c-.32,4.25-.15,10.64-.19,15s-.13,10.73.19,14.95c.31-4.25.15-10.64.18-14.95S243.53,256.44,243.22,252.21Z"/><path class="cls-1" d="M238.72,183.85c.32-6.17.15-15.44.19-21.7s.11-15.66-.19-21.7c-.3,6.07-.16,15.57-.19,21.7S238.4,177.71,238.72,183.85Z"/><path class="cls-1" d="M494.53,255.92c-.31,4-.15,9.91-.18,13.93s-.13,10,.18,13.93c.32-4,.16-9.91.19-13.93S494.85,259.86,494.53,255.92Z"/></g></g></svg>