<svg xmlns="http://www.w3.org/2000/svg" viewBox="0 0 764.85 166.55"><defs><style>.cls-1{fill:#4e4e50;}</style></defs><g id="Layer_2" data-name="Layer 2"><g id="Layer_1-2" data-name="Layer 1"><path class="cls-1" d="M172,131.31H163.6v.35c1.28.53,1.72,1.54,1.72,4.3v20.28c0,2.76-.44,3.77-1.72,4.3v.35h6.54v-.35c-1.27-.53-1.71-1.54-1.71-4.3V132.41h2.37c5.88,0,9.44,2.41,9.44,7.63,0,5-3.38,7.9-10.1,8.08v.35a11.79,11.79,0,0,0,2.46.22c6,0,11.19-2.86,11.19-9C183.79,134.47,179.67,131.31,172,131.31Z"/><path class="cls-1" d="M218.64,156.1l-10.4-25.27h-.4L198,154.13c-1.71,4.08-3.07,5.57-4.78,6.41v.35h7v-.35c-1.23-.75-2-2.24-.31-6.59l1-2.41h12.64l1.62,4c1.27,3.12.79,4.44-.31,5v.35H222v-.35C220.7,159.79,219.87,159,218.64,156.1Zm-17.34-5.61,5.8-14.66,6,14.66Z"/><path class="cls-1" d="M245,159.83h-3c-2.55,0-3.56-.87-3.56-2.94V136c0-2.76.44-3.77,1.71-4.3v-.35H233.6v.35c1.28.53,1.72,1.54,1.72,4.3v20.28c0,2.76-.44,3.77-1.72,4.3v.35h19.53V153.3h-.44C251.64,158.43,250.15,159.83,245,159.83Z"/><path class="cls-1" d="M281.7,157l-12.2-25.72h-4.74v.35c1.67.75,2.64,2.24,2.59,7.07l-.13,14.57c0,4.43-1.23,6.53-2.68,7.24v.35h7v-.35c-1.53-.79-2.68-2.59-2.76-7.29l-.31-16.94,11.89,25h.57l11.28-26.12v21c0,2.76-.44,3.77-1.71,4.3v.35H297v-.35c-1.27-.53-1.71-1.54-1.71-4.3V136c0-2.76.44-3.77,1.71-4.3v-.35h-4.83Z"/><path class="cls-1" d="M333.45,131.66c1.27.53,1.71,1.54,1.71,4.3v18.52c0,5.88-.92,9.13-3.69,11.8l.13.27c5.45-2.64,6.67-4.61,6.67-11.15V136c0-2.76.44-3.77,1.72-4.3v-.35h-6.54Z"/><path class="cls-1" d="M372.77,131.66c1.53.79,2.85,2.37,2.89,7l.14,12.73c0,5.62-3,8.29-8,8.29-5.18,0-8.29-2.46-8.29-8.73V136c0-2.76.43-3.77,1.71-4.3v-.35h-6.54v.35c1.27.53,1.71,1.54,1.71,4.3v15.45c0,7.06,4.69,9.87,11,9.87,5.66,0,9.44-3,9.57-9.83l.22-12.72c.08-4.52,1.58-6.37,3-7.07v-.35h-7.41Z"/><path class="cls-1" d="M409.68,157l-12.2-25.72h-4.74v.35c1.67.75,2.63,2.24,2.59,7.07l-.13,14.57c-.05,4.43-1.23,6.53-2.68,7.24v.35h7v-.35c-1.54-.79-2.68-2.59-2.77-7.29l-.31-16.94,11.9,25h.57l11.28-26.12v21c0,2.76-.44,3.77-1.72,4.3v.35H425v-.35c-1.27-.53-1.71-1.54-1.71-4.3V136c0-2.76.44-3.77,1.71-4.3v-.35h-4.82Z"/><path class="cls-1" d="M452.34,159.83h-3.6c-2.55,0-3.56-.87-3.56-2.94V146.23l5.18.17c2.72.09,3.95,1,4.61,3.74h.35v-8.83H455c-.62,2.77-1.76,3.87-4.48,3.95l-5.31.18v-13h6.23c4.79,0,6.67,1.18,7.95,4.78h.44v-5.88H440.35v.35c1.28.53,1.72,1.54,1.72,4.3v20.28c0,2.76-.44,3.77-1.72,4.3v.35h20.1v-6.72H460C459,158.6,457.47,159.83,452.34,159.83Z"/><path class="cls-1" d="M473.62,131.66c1.27.53,1.71,1.54,1.71,4.3v20.28c0,2.76-.44,3.77-1.71,4.3v.35h6.54v-.35c-1.27-.53-1.71-1.54-1.71-4.3V136c0-2.76.44-3.77,1.71-4.3v-.35h-6.54Z"/><path class="cls-1" d="M510.53,152.51,506,147.24c5.14-.62,9.31-3.25,9.31-8.25,0-4.74-3.95-7.68-11.32-7.68h-8.43v.35c1.27.53,1.71,1.54,1.71,4.3v20.28c0,2.76-.44,3.77-1.71,4.3v.35h6.54v-.35c-1.27-.53-1.71-1.54-1.71-4.3V132.41h2.37c5.61,0,9,2.28,9,6.89s-3.24,7.32-9.65,7.5v.35l6.32,7.68c4.25,5.22,5.66,6.54,8.12,6.54a3,3,0,0,0,2.45-.92v-.35C517.16,159.61,516.06,158.91,510.53,152.51Z"/><path class="cls-1" d="M552.26,156.1l-10.4-25.27h-.39l-9.83,23.3c-1.71,4.08-3.07,5.57-4.78,6.41v.35h7v-.35c-1.23-.75-2-2.24-.31-6.59l1-2.41h12.63l1.63,4c1.27,3.12.79,4.44-.31,5v.35h7.11v-.35C554.33,159.79,553.49,159,552.26,156.1Zm-17.33-5.61,5.79-14.66,6,14.66Z"/><path class="cls-1" d="M586.8,131.66c1.28.53,1.71,1.54,1.71,4.3v9.52H572.06V136c0-2.76.44-3.77,1.71-4.3v-.35h-6.54v.35c1.27.53,1.71,1.54,1.71,4.3v20.28c0,2.76-.44,3.77-1.71,4.3v.35h6.54v-.35c-1.27-.53-1.71-1.54-1.71-4.3v-9.7h16.45v9.7c0,2.76-.43,3.77-1.71,4.3v.35h6.54v-.35c-1.27-.53-1.71-1.54-1.71-4.3V136c0-2.76.44-3.77,1.71-4.3v-.35H586.8Z"/><path class="cls-1" d="M137.75,2.93l.17-.44-.17.44a7,7,0,0,1,2,1,4.84,4.84,0,0,1,1.37,1.91V63C127.59,43.13,107.75,14.06,99.48,1.53l-.15-.22-.14-.23H96.81v71l0,.14a5.07,5.07,0,0,1-1.42,1.91,6.77,6.77,0,0,1-2,1L88.1,77h20.62l-5.85-1.86a5.88,5.88,0,0,1-1.83-.9,5.18,5.18,0,0,1-1.5-2V15.1c21.86,32.37,24.35,36.15,41.73,61.45l.15.21.15.22h2.36V5.87a4.25,4.25,0,0,1,1.42-2,6.4,6.4,0,0,1,1.9-.92l5.85-1.86H132.49Z"/><path class="cls-1" d="M167.58,74.12a6.87,6.87,0,0,1-2,1L160.29,77h41.6V65.54l-1.95,5.57a5.62,5.62,0,0,1-1,1.82,4.39,4.39,0,0,1-2.11,1.36H176.55V37.77h12.91a5.05,5.05,0,0,1,2,1.3,6,6,0,0,1,1,1.9l1.94,5V26.33l-1.95,5.57a5.62,5.62,0,0,1-1,1.82,4.44,4.44,0,0,1-2.11,1.36H176.55V3.77h20.39A5.49,5.49,0,0,1,199,5.1,5.5,5.5,0,0,1,200,7L202,12V1.08H160.21l5.34,1.85.17-.44-.17.44a7.38,7.38,0,0,1,2.24,1.14h0A5,5,0,0,1,169,5.89V72.16A5,5,0,0,1,167.58,74.12Z"/><path class="cls-1" d="M334.32,65.45V51.6h-2.53l-.11.31-.12.31c-.33.86-.76,1.62-1.23,2.6a37.28,37.28,0,0,1-33.11,19.47,30.44,30.44,0,0,1-23-10.25,37.24,37.24,0,0,1-9.09-24.93h0v0a37.34,37.34,0,0,1,9.09-25,30.38,30.38,0,0,1,23-10.33,37.25,37.25,0,0,1,32.31,18l.14.25.14.24h2.5V8.06l-1.95,5.59h0a4.93,4.93,0,0,1-1.5,2.38A40.11,40.11,0,0,0,297.23,1.08h0c-22,0-39.72,17-39.72,38h0a36.94,36.94,0,0,0,11.63,26.81A40.6,40.6,0,0,0,297.22,77a40.12,40.12,0,0,0,34.13-18.49,5.79,5.79,0,0,1,1,1.86Z"/><path class="cls-1" d="M40.72,1.72h0A38.56,38.56,0,0,0,12.65,12.16a40.18,40.18,0,0,0,4.94,62.49,5.93,5.93,0,0,1-2,.95L10.3,77.31l14.25.61.08-1.81v-.35l0-.35-.32-.14L24,75.14c-.87-.36-1.62-.83-2.61-1.34A37.14,37.14,0,0,1,2.8,39.87,30.08,30.08,0,0,1,14.33,17.34a39,39,0,0,1,26-8h0A39.22,39.22,0,0,1,65.69,19.55,30,30,0,0,1,75.32,43,37,37,0,0,1,55.4,74.45l-.26.14-.26.13-.06,1.49,0,.5,0,.5,14.64.63-5.66-2.19A5.11,5.11,0,0,1,61.36,74,39.68,39.68,0,0,0,78.09,43.1h0C79,21.14,62.27,2.65,40.72,1.72Z"/><path class="cls-1" d="M394.19,73.93a.85.85,0,0,1,.48.14c.13.1,2.26,3.12,2.26,3.12V67.33h-2.61l-.09.36-.09.36A8.17,8.17,0,0,1,388.87,74h-.06a2.81,2.81,0,0,1-1,.19,2.94,2.94,0,0,1-1.53-.46,8.81,8.81,0,0,1-2.73-3,30.77,30.77,0,0,1-2.8-6.25c-1.68-5-2.75-9.31-4.52-12.8a15,15,0,0,0-5.73-6.33C376.55,44.61,382,43,386.23,40c5-3.53,8.06-9,8-16.8v0h0a19.83,19.83,0,0,0-2.73-10.55c-2.66-4.35-7.08-7.24-12.46-9a60.27,60.27,0,0,0-18.53-2.5H344.84l5.26,1.85a6.87,6.87,0,0,1,2,1,5,5,0,0,1,1.42,2V72.18A4.62,4.62,0,0,1,352.31,74a6.19,6.19,0,0,1-2.19,1.11L344.52,77h25l-5.09-1.85A7,7,0,0,1,362.36,74a4.23,4.23,0,0,1-1.25-1.78V46h1.19c.53,0,1.15,0,1.76-.07,2.06,1.08,3.55,3.28,4.75,6.18,1.86,4.49,2.95,10.43,5.06,15.4a18.12,18.12,0,0,0,4.3,6.47,11.62,11.62,0,0,0,7.5,3h.79a10.3,10.3,0,0,0,7.15-2.83A.86.86,0,0,1,394.19,73.93ZM364.67,43.25c-1.53.09-2.64.17-3.1.17h0l-.44,0V3.79c5.45.09,11.72,1.16,16.6,3.94A17.25,17.25,0,0,1,384,13.51a16.9,16.9,0,0,1,2.47,9.22c0,7.78-2.87,12.54-7,15.63S369.89,42.79,364.67,43.25Z"/><path class="cls-1" d="M579.66,51.6h-2.52l-.12.31-.12.31c-.33.86-.76,1.62-1.23,2.6a37.26,37.26,0,0,1-33.1,19.47,30.46,30.46,0,0,1-23-10.25,37.23,37.23,0,0,1-9.09-24.88v-.11a37.43,37.43,0,0,1,9.09-24.95,30.39,30.39,0,0,1,23-10.33,37.24,37.24,0,0,1,32.3,18l.14.25.14.24h2.5V8.06l-1.95,5.59v0A1.71,1.71,0,0,1,574,14.8a1.86,1.86,0,0,1-1.38-.6A40.18,40.18,0,0,0,542.57,1.08h0c-22,0-39.73,17-39.73,38h0a36.94,36.94,0,0,0,11.63,26.81A40.61,40.61,0,0,0,542.57,77a40.24,40.24,0,0,0,33.06-16.86,1.2,1.2,0,0,1,1-.51,1.14,1.14,0,0,1,1.08.72v0h0l1.94,5.1Z"/><path class="cls-1" d="M691.14,2.93l.17-.44-.17.44a7.1,7.1,0,0,1,2,1,4.94,4.94,0,0,1,1.37,1.91V63C681,43.13,661.13,14.06,652.87,1.53l-.15-.22-.15-.23H650.2v71l0,.14a5.17,5.17,0,0,1-1.42,1.91,6.84,6.84,0,0,1-2,1L641.49,77h20.62l-5.85-1.86a5.78,5.78,0,0,1-1.83-.9,5,5,0,0,1-1.5-2V15.1c21.86,32.37,24.35,36.15,41.73,61.45l.15.21L695,77h2.36V5.87a4.17,4.17,0,0,1,1.42-2,6.29,6.29,0,0,1,1.9-.92l5.84-1.86h-20.6Z"/><path class="cls-1" d="M715.55,1.08V12.53l2-5.58a5.78,5.78,0,0,1,1-1.82,4.36,4.36,0,0,1,2-1.36h15.76V72.19a4.35,4.35,0,0,1-1.31,1.93,6.88,6.88,0,0,1-2,1L727.62,77h24.89l-5.27-1.85a7.4,7.4,0,0,1-2.07-1,4,4,0,0,1-1.28-1.87V3.77h16a4,4,0,0,1,1.94,1.34,10.1,10.1,0,0,1,1.08,1.94l1.91,3.9V1.08Z"/><path class="cls-1" d="M493.81,60.06a20.86,20.86,0,0,0-4.54-12.6c-4-5.47-9.95-10.06-14.78-15.22s-8.57-10.81-8.57-18.44a9.72,9.72,0,0,1,2.77-6.93A10.41,10.41,0,0,1,476.22,4a15.21,15.21,0,0,1,12.84,6.48h0l.15.21.15.2h2.44V0l-1.94,5v0a1.35,1.35,0,0,1-1.28.85,1.43,1.43,0,0,1-.74-.21,41.66,41.66,0,0,0-5.32-2.79,16.87,16.87,0,0,0-6.29-1.59h0A18.77,18.77,0,0,0,464.35,5.1C461.1,7.72,459,11.8,459,17.31v0h0a23.19,23.19,0,0,0,4.62,13.51c4.12,5.9,10.19,10.8,15.14,16a39.44,39.44,0,0,1,6.24,8,18.38,18.38,0,0,1,2.52,9.13h0a8.66,8.66,0,0,1-3.88,7.35,15.63,15.63,0,0,1-8.87,2.56h0A17,17,0,0,1,461,67.34l-.15-.19-.15-.19h-2.51V77.84l1.94-5v0a1.26,1.26,0,0,1,1.2-.8,1.23,1.23,0,0,1,.76.26,19.7,19.7,0,0,0,12.65,4.28h0a22.2,22.2,0,0,0,12.77-3.77,15,15,0,0,0,6.28-12.66v0h0Z"/><path class="cls-1" d="M441.37,3.77a5.49,5.49,0,0,1,2.06,1.33A5.68,5.68,0,0,1,444.48,7l1.93,5V1.08H404.64L410,2.93l.17-.44-.17.44a7.38,7.38,0,0,1,2.24,1.14h0a5.11,5.11,0,0,1,1.2,1.82V72.16a5.14,5.14,0,0,1-1.42,2,6.87,6.87,0,0,1-2,1L404.71,77h41.61V65.53l-1.95,5.58a5.62,5.62,0,0,1-1,1.82,4.41,4.41,0,0,1-2.1,1.36H421V37.77h12.91a5.05,5.05,0,0,1,2,1.3,6,6,0,0,1,1,1.9l1.94,5V26.33l-2,5.57a5.62,5.62,0,0,1-1,1.82,4.44,4.44,0,0,1-2.11,1.36H421V3.77Z"/><path class="cls-1" d="M596.25,2.93l.17-.44-.17.44a7.44,7.44,0,0,1,2.25,1.14h0a4.85,4.85,0,0,1,1.2,1.82V72.16a5.14,5.14,0,0,1-1.42,2,6.75,6.75,0,0,1-2,1L591,77h41.61V65.53l-2,5.58a5.62,5.62,0,0,1-1,1.82,4.41,4.41,0,0,1-2.1,1.36H607.26V37.77h12.9a5.18,5.18,0,0,1,2,1.3,6.25,6.25,0,0,1,1,1.9l1.94,5V26.33l-2,5.57a5.62,5.62,0,0,1-1,1.82,4.39,4.39,0,0,1-2.11,1.36H607.26V3.77h20.38A5.49,5.49,0,0,1,629.7,5.1a5.68,5.68,0,0,1,1,1.88l1.94,5V1.08H590.91Z"/><path class="cls-1" d="M40.46,54.24c.54.07,1,.06,1.39.11a25.24,25.24,0,0,1,11.8,5A38.08,38.08,0,0,1,58,63.1a2.16,2.16,0,0,0,.94.57,1.4,1.4,0,0,0,1.22-.28l.19-.17a1.48,1.48,0,0,0,.47-1.11,1.77,1.77,0,0,0-.4-1l-.22-.25h0L60,60.62h0a41.87,41.87,0,0,0-4.7-4c-4.3-3.07-9-5.26-14.43-5.53l-.48,0c0-.11,0-.25,0-.45h0v-.52l0,0,.29-.05a28.36,28.36,0,0,1,8.43.18,20.72,20.72,0,0,1,13.24,7.75l0,0h0l.36.5a1.88,1.88,0,0,0,.84.65,1.55,1.55,0,0,0,1.33-.2l.16-.11a1.35,1.35,0,0,0,.46-.63,1.65,1.65,0,0,0-.07-1.12,4.06,4.06,0,0,0-.61-1h0a24.22,24.22,0,0,0-15.75-9,29.78,29.78,0,0,0-8.69-.11h0a2.71,2.71,0,0,0,0-.7.62.62,0,0,1,0-.29l.06-.08a1.44,1.44,0,0,1,.39-.18,35.55,35.55,0,0,1,9.62-1.85A25.77,25.77,0,0,1,62.73,46a24.36,24.36,0,0,1,5.72,3.7,2.24,2.24,0,0,0,1,.5,1.42,1.42,0,0,0,1.18-.29,2.37,2.37,0,0,0,.28-.27,1.46,1.46,0,0,0,.37-1,1.54,1.54,0,0,0-.35-.88,2.87,2.87,0,0,0-.42-.43c-.6-.5-1.2-1-1.85-1.45-6.64-4.74-14-6-21.81-4.88a33.82,33.82,0,0,0-6.42,1.5l0-.24a.64.64,0,0,1,.18-.22A2.16,2.16,0,0,1,41,41.8a49.19,49.19,0,0,1,9.36-3.32c5.88-1.37,11.65-1.66,17.36.64a2,2,0,0,0,.8.15,1.42,1.42,0,0,0,.83-.29,1.62,1.62,0,0,0,.49-.69,1.59,1.59,0,0,0,.12-.78,1.42,1.42,0,0,0-.3-.71,2.06,2.06,0,0,0-.81-.59l-.72-.3A25.91,25.91,0,0,0,61,34.38,39.9,39.9,0,0,0,44.17,37c-1.3.48-2.53,1-3.76,1.55l0-.11a1.13,1.13,0,0,1,.34-.55l0,0a67.14,67.14,0,0,1,10.52-5.67c3.29-1.37,6.57-2.46,10.1-2.3a1.79,1.79,0,0,0,1.23-.33,1.64,1.64,0,0,0,.22-2.19,1.62,1.62,0,0,0-.64-.48,2.59,2.59,0,0,0-.7-.15,15.24,15.24,0,0,0-3.38.16,39.41,39.41,0,0,0-11.6,4c-2.1,1-4.13,2.22-6.11,3.44v-.12a.88.88,0,0,1,.26-.6,51.54,51.54,0,0,1,6-5.63,39.45,39.45,0,0,1,3.92-2.7c.83-.5,1.75-.93,2.67-1.45l.27-.17a1.57,1.57,0,0,0,.56-.84A1.49,1.49,0,0,0,54,21.79l-.19-.3a1.53,1.53,0,0,0-.9-.57,1.77,1.77,0,0,0-1,.14c-.42.18-.83.38-1.22.58a40.76,40.76,0,0,0-5.88,3.85,49.54,49.54,0,0,0-4.28,3.79v-.35A3.37,3.37,0,0,1,41,27.37a19.54,19.54,0,0,1,4.22-5.26,9.75,9.75,0,0,1,1.37-.89l.26-.17a1.5,1.5,0,0,0,.56-.92A1.73,1.73,0,0,0,47.2,19l-.14-.19a1.48,1.48,0,0,0-.91-.57,1.63,1.63,0,0,0-1,.13,5.79,5.79,0,0,0-.57.3,13.6,13.6,0,0,0-1.31.88,16.72,16.72,0,0,0-2.74,2.84c0-1.38,0-2.76,0-4.14,0-.19,0-.43,0-.7a1.75,1.75,0,0,0-.34-.93,1.59,1.59,0,0,0-1.15-.58,1.36,1.36,0,0,0-1,.26,1.57,1.57,0,0,0-.52.83,3.91,3.91,0,0,0-.11,1c0,1.38,0,2.77,0,4.15L37,21.84a14.21,14.21,0,0,0-4-3.6,2.52,2.52,0,0,0-.86-.32,1.39,1.39,0,0,0-1.05.28,1.79,1.79,0,0,0-.64,1.38,1.48,1.48,0,0,0,.34.84,2,2,0,0,0,.57.51,13.74,13.74,0,0,1,1.26.89,12.53,12.53,0,0,1,1.77,1.87A39.17,39.17,0,0,1,36.69,27a4.26,4.26,0,0,1,.63,2.19,44.61,44.61,0,0,0-11.06-8.67,2.31,2.31,0,0,0-.86-.3,1.35,1.35,0,0,0-1,.27,1.72,1.72,0,0,0-.63,1.43,1.52,1.52,0,0,0,.32.78,2.34,2.34,0,0,0,.77.61,44.39,44.39,0,0,1,12,9.93l.19.23a1.79,1.79,0,0,1,.31.53l.05.29a62.3,62.3,0,0,0-13.29-7.08,22.16,22.16,0,0,0-7.46-1.53A2.16,2.16,0,0,0,15.2,26a1.47,1.47,0,0,0-.54,1.18,1.64,1.64,0,0,0,.32,1,1.48,1.48,0,0,0,.83.52,3,3,0,0,0,.77.08A18.22,18.22,0,0,1,23,30.17a63.77,63.77,0,0,1,13.68,7.44,1.86,1.86,0,0,1,.45.4.86.86,0,0,1,.19.49c-1.2-.64-2.42-1.19-3.65-1.7a42,42,0,0,0-15.58-3.5,25.51,25.51,0,0,0-9,1.39,2.48,2.48,0,0,0-.73.39,1.34,1.34,0,0,0-.51.73,1.53,1.53,0,0,0,.09,1,2,2,0,0,0,.25.45,1.49,1.49,0,0,0,1.05.56,2.47,2.47,0,0,0,1-.16,23.21,23.21,0,0,1,9.92-1.12A41.87,41.87,0,0,1,34,40.36c1.06.48,2.1,1,3.17,1.58l0,0a1.14,1.14,0,0,1,.18.44l-.2-.09a38.44,38.44,0,0,0-8.69-2.12c-6.93-.83-13.52.29-19.41,4.22q-.74.48-1.41,1L7,46a1.53,1.53,0,0,0-.59,1,1.64,1.64,0,0,0,.36,1.15l0,0h0a1.43,1.43,0,0,0,1.09.56,1.81,1.81,0,0,0,1-.29l.22-.15.24-.2h0a23.24,23.24,0,0,1,13.3-5,32.93,32.93,0,0,1,13.57,2.22c.45.17.77.27,1,.35l.07,0c0,.18,0,.54,0,1a30.63,30.63,0,0,0-9.65-.17A23,23,0,0,0,12.49,55a2.73,2.73,0,0,0-.54.92,1.51,1.51,0,0,0-.06.68,1.54,1.54,0,0,0,.31.69l.26.28a1.54,1.54,0,0,0,1,.41,1.41,1.41,0,0,0,.89-.33,3.9,3.9,0,0,0,.57-.59,18.84,18.84,0,0,1,3.15-3.16l.52-.4c5.25-3.76,11.15-4.57,17.53-3.67a8.31,8.31,0,0,1,.93.16l.11.05a5.5,5.5,0,0,1,0,1h0a18.56,18.56,0,0,0-3.94.25A29.52,29.52,0,0,0,20,57.43h0c-1,.8-2,1.66-2.89,2.49a1.65,1.65,0,0,0-.56,1,1.6,1.6,0,0,0,.35,1.15l.06.07h0a1.52,1.52,0,0,0,1.16.56,1.88,1.88,0,0,0,1-.37l.1-.08a6.71,6.71,0,0,0,.51-.46c.71-.64,1.44-1.26,2.18-1.84a29.73,29.73,0,0,1,7.09-4.18,20.78,20.78,0,0,1,8-1.61h.14v.12c-.06,1,0,2,0,2.89a9.06,9.06,0,0,1,0,1.09l0,.12h0a7.85,7.85,0,0,1-1.21,0,4.8,4.8,0,0,0-.87,0,1.58,1.58,0,0,0-.79.3,1.49,1.49,0,0,0-.51.88,5.28,5.28,0,0,0-.08,1c0,4.58-.06,9.12-.09,13.69V75l.64.07c.58.07,1.17.13,1.75.17l.75.07v-.76c0-1,0-2,0-3,0-3.28,0-6.56,0-9.85v-.12h.07c1.29.08,2.57.09,3.85.1h0c0,4.34-.07,8.63-.1,12.94v.76l.75,0c.58,0,1.15-.05,1.73-.09l.64,0v-.65c0-4.73.06-9.42.1-14.16a1.94,1.94,0,0,0-.37-1.23A1.83,1.83,0,0,0,42,58.59c-.51,0-1.08-.06-1.68,0h0v0c0-1.37.07-2.75,0-4.13v-.16Z"/><polygon class="cls-1" points="20.04 57.43 20.04 57.43 20.05 57.43 20.04 57.43"/></g></g></svg>