<svg xmlns="http://www.w3.org/2000/svg" width="14.898" height="18.623" viewBox="0 0 14.898 18.623"><g transform="translate(-9 -5)"><path d="M16.449,5a7.448,7.448,0,0,0-5.512,12.458l5.158,6a.466.466,0,0,0,.708,0l5.158-6A7.448,7.448,0,0,0,16.449,5Zm4.8,11.853-4.8,5.591-4.8-5.587a6.518,6.518,0,1,1,9.609,0Z"/><path d="M21.259,14a3.259,3.259,0,1,0,3.259,3.259A3.259,3.259,0,0,0,21.259,14Zm0,5.587a2.328,2.328,0,1,1,2.328-2.328,2.328,2.328,0,0,1-2.328,2.328Z" transform="translate(-4.81 -4.81)"/></g></svg>